<svg width="30" height="30" viewBox="0 0 30 30" fill="none" xmlns="http://www.w3.org/2000/svg">
<g clip-path="url(#clip0_2009_497)">
<path d="M15 2.5C14.7275 2.5 14.46 2.5025 14.1975 2.50625L13.4275 2.5275L13.0538 2.54375L12.33 2.58625L11.6388 2.64375C5.6575 3.22375 3.22375 5.6575 2.64375 11.6388L2.58625 12.33L2.54375 13.0538C2.5375 13.1762 2.53125 13.3012 2.5275 13.4275L2.50625 14.1975L2.50125 14.595L2.5 15C2.5 15.2725 2.5025 15.54 2.50625 15.8025L2.5275 16.5725L2.54375 16.9462L2.58625 17.67L2.64375 18.3612C3.22375 24.3425 5.6575 26.7763 11.6388 27.3563L12.33 27.4137L13.0538 27.4562C13.1762 27.4625 13.3012 27.4688 13.4275 27.4725L14.1975 27.4938L15 27.5L15.8025 27.4938L16.5725 27.4725L16.9462 27.4562L17.67 27.4137L18.3612 27.3563C24.3425 26.7763 26.7763 24.3425 27.3563 18.3612L27.4137 17.67L27.4562 16.9462C27.4625 16.8238 27.4688 16.6988 27.4725 16.5725L27.4938 15.8025L27.5 15L27.4938 14.1975L27.4725 13.4275L27.4562 13.0538L27.4137 12.33L27.3563 11.6388C26.7763 5.6575 24.3425 3.22375 18.3612 2.64375L17.67 2.58625L16.9462 2.54375C16.8217 2.53767 16.6971 2.53225 16.5725 2.5275L15.8025 2.50625L15.405 2.50125L15 2.5ZM17.8663 11.6163C18.0912 11.3921 18.393 11.2619 18.7105 11.2522C19.0279 11.2425 19.3371 11.354 19.5753 11.5641C19.8136 11.7741 19.9629 12.0669 19.993 12.3831C20.0231 12.6992 19.9318 13.015 19.7375 13.2662L19.6337 13.3837L14.6337 18.3837C14.4185 18.599 14.1321 18.7283 13.8284 18.7474C13.5246 18.7665 13.2243 18.6741 12.9838 18.4875L12.8663 18.3837L10.3663 15.8837C10.1421 15.6588 10.0119 15.357 10.0022 15.0395C9.99252 14.7221 10.104 14.4129 10.3141 14.1747C10.5241 13.9364 10.8169 13.7871 11.1331 13.757C11.4492 13.7269 11.765 13.8182 12.0162 14.0125L12.1337 14.1163L13.75 15.7312L17.8663 11.6163Z" fill="#FFDB59"/>
</g>
<defs>
<clipPath id="clip0_2009_497">
<rect width="30" height="30" fill="white"/>
</clipPath>
</defs>
</svg>
