<svg width="48" height="48" viewBox="0 0 48 48" fill="none" xmlns="http://www.w3.org/2000/svg">
<g id="Frame 22" clip-path="url(#clip0_2009_627)">
<path id="quotation (1) 1 (Traced)" fill-rule="evenodd" clip-rule="evenodd" d="M8.76871 10.1446C6.54009 10.547 4.5174 11.5756 2.89606 13.131C1.8969 14.0895 1.34891 14.8308 0.817304 15.9429C0.161374 17.3148 0 18.0834 0 19.8361C0 21.6508 0.165372 22.3927 0.901745 23.8827C1.77863 25.6567 3.23401 27.1742 5.0612 28.2195C5.906 28.7028 7.69974 29.3447 8.48818 29.4458C8.76812 29.4817 9.03578 29.561 9.08307 29.622C9.13026 29.6831 9.7742 31.2249 10.5139 33.0483C11.2537 34.8717 11.9432 36.4841 12.0462 36.6313C12.3656 37.0881 12.9901 37.3874 13.6237 37.3874C14.6117 37.3874 15.1803 36.9505 15.6432 35.8358C15.8122 35.4288 16.466 33.9332 17.096 32.512C19.6522 26.7457 20.8276 23.5894 21.1519 21.6202C21.5677 19.0955 20.9545 16.2817 19.5284 14.1691C18.0857 12.032 15.4612 10.4948 12.5685 10.0924C11.5462 9.95027 9.70468 9.97552 8.76871 10.1446ZM35.6148 10.1333C31.3212 10.9452 27.9403 13.8619 26.9746 17.5872C26.6438 18.8637 26.6249 20.6636 26.9292 21.9137C27.3543 23.6598 28.1676 25.1545 29.3707 26.4009C30.8792 27.9636 32.6278 28.9257 34.886 29.4352L35.8559 29.6541L37.2368 33.0466C38.0007 34.9231 38.7385 36.5903 38.8876 36.7774C39.4154 37.4388 40.4324 37.6653 41.236 37.3003C41.6976 37.0907 42.1554 36.5741 42.3446 36.0494C42.4176 35.8468 43.0245 34.4524 43.6933 32.9508C46.0863 27.5771 47.5681 23.6858 47.8611 22.0053C48.0491 20.9272 48.0458 19.0933 47.854 18.0821C47.3531 15.4416 45.8422 13.1119 43.6836 11.6518C42.9365 11.1463 41.6417 10.5806 40.6154 10.311C39.8218 10.1027 39.4014 10.0569 38.0113 10.0281C36.8497 10.0039 36.1326 10.0354 35.6148 10.1333ZM12.8231 13.0628C14.2389 13.3443 15.437 13.993 16.522 15.0658C17.7097 16.2401 18.3195 17.6874 18.4291 19.5923C18.5269 21.2912 18.2859 22.2582 16.8722 25.8395C16.2604 27.3893 14.5728 31.3874 13.9028 32.8743L13.7177 33.2852L12.4125 30.1333L11.1073 26.9815L10.0487 26.8667C5.52991 26.3766 2.43163 23.0766 2.86466 19.215C3.03949 17.6565 3.71599 16.3468 4.95326 15.1715C6.96551 13.26 9.88321 12.4782 12.8231 13.0628ZM39.5024 12.9695C41.0166 13.2794 42.12 13.8682 43.234 14.9608C44.1043 15.8143 44.6593 16.8262 44.9958 18.173C45.1718 18.8773 45.1949 19.1943 45.1552 20.3669C45.1129 21.6177 45.0772 21.8339 44.7466 22.8403C44.1262 24.7296 40.7849 32.8489 40.5181 33.1158C40.4737 33.1601 40.0703 32.3074 39.6217 31.221C39.173 30.1345 38.5913 28.7343 38.329 28.1094L37.852 26.9732L37.0541 26.9041C34.7263 26.7022 32.7829 25.8061 31.3535 24.2753C29.1586 21.9251 28.9734 18.5106 30.9016 15.9455C31.9648 14.5311 33.8012 13.409 35.7132 13.0056C36.7814 12.7802 38.4979 12.7638 39.5024 12.9695Z" fill="#FF7D61"/>
</g>
<defs>
<clipPath id="clip0_2009_627">
<rect width="48" height="48" fill="white"/>
</clipPath>
</defs>
</svg>
