<?xml version="1.0" encoding="UTF-8"?>
<svg version="1.1" xmlns="http://www.w3.org/2000/svg" width="1080" height="1350">
<path d="M0 0 C356.4 0 712.8 0 1080 0 C1080 445.5 1080 891 1080 1350 C723.6 1350 367.2 1350 0 1350 C0 904.5 0 459 0 0 Z " fill="#000000" transform="translate(0,0)"/>
<path d="M0 0 C3.39704794 0.01137087 6.79378165 0.0046273 10.19081879 -0.00687695 C30.29897409 -0.06469484 50.09506179 0.79906562 69.96044922 4.07324219 C71.51203735 4.32328003 71.51203735 4.32328003 73.0949707 4.57836914 C80.33170737 5.80173956 87.36585773 7.43482419 94.37939453 9.59790039 C97.79256806 10.64704532 101.03926217 11.41481898 104.58154297 11.78027344 C108.21044922 12.26074219 108.21044922 12.26074219 110.21044922 14.26074219 C111.7561122 14.84873451 113.32284617 15.38189756 114.89794922 15.88574219 C121.81692289 18.31599769 128.05350887 21.75109934 134.44726562 25.29541016 C136.01511086 26.15379566 137.60187228 26.97742537 139.19091797 27.79589844 C154.70955735 35.83513586 166.97515503 48.00611894 179.21044922 60.26074219 C180.26363558 61.27012331 181.31843417 62.2778239 182.37451172 63.28417969 C197.37186687 77.71559691 208.18895023 93.41696695 215.39794922 113.01074219 C215.87977661 114.26564453 215.87977661 114.26564453 216.37133789 115.54589844 C223.99746522 137.33821268 223.80352143 160.38331448 223.60168457 183.14434814 C223.58001083 186.21998193 223.58084131 189.29544073 223.58169174 192.37113762 C223.58066704 208.17082218 223.17058366 223.77147971 221.49404907 239.49536133 C219.36609961 260.24498668 218.86128761 280.92590253 218.89477539 301.76147461 C218.89942673 304.89150282 218.8923853 308.02114423 218.87426758 311.15112305 C218.74157481 334.2995109 219.856914 356.74996846 224.47216797 379.51855469 C224.98992688 382.14296227 225.4534437 384.73679232 225.85498047 387.37792969 C227.64928157 398.9735172 230.80815958 409.97472314 235.26904297 420.83886719 C236.21044922 423.26074219 236.21044922 423.26074219 237.10888672 426.52636719 C238.61415753 431.62934199 240.71750903 436.41552389 242.81982422 441.29589844 C243.12662109 442.02164062 243.43341797 442.74738281 243.74951172 443.49511719 C244.17031006 444.47303223 244.17031006 444.47303223 244.59960938 445.47070312 C245.21044922 447.26074219 245.21044922 447.26074219 245.21044922 450.26074219 C245.87044922 450.26074219 246.53044922 450.26074219 247.21044922 450.26074219 C247.42958984 450.87820313 247.64873047 451.49566406 247.87451172 452.13183594 C249.93067731 457.62330257 252.35051278 462.25740168 255.71044922 467.05371094 C257.16540816 469.19447084 258.41873255 471.35926527 259.64794922 473.63574219 C266.83310222 486.83530441 275.78051192 498.91309222 285.015625 510.72949219 C286.08503192 512.10001123 287.1463352 513.47684452 288.20654297 514.85449219 C292.01423313 519.73086877 296.05308166 524.30604508 300.27294922 528.82324219 C314.78714414 544.46069386 317.94162225 556.48296817 317.71044922 577.63574219 C317.70491028 578.61840057 317.69937134 579.60105896 317.69366455 580.61349487 C317.59954569 594.8038679 317.1302544 608.53411643 313.21044922 622.26074219 C312.98019043 623.08703125 312.74993164 623.91332031 312.51269531 624.76464844 C309.06022292 636.89808595 304.971097 649.02166857 299.21044922 660.26074219 C298.55044922 660.26074219 297.89044922 660.26074219 297.21044922 660.26074219 C296.96294922 661.12699219 296.71544922 661.99324219 296.46044922 662.88574219 C295.12036403 666.5039722 293.40077772 669.08591063 291.21044922 672.26074219 C290.80439453 672.85290527 290.39833984 673.44506836 289.97998047 674.05517578 C288.69287523 675.92334803 287.39083724 677.78030936 286.08544922 679.63574219 C285.64330078 680.27640625 285.20115234 680.91707031 284.74560547 681.57714844 C283.61774764 683.17523099 282.41946546 684.72314313 281.21044922 686.26074219 C280.55044922 686.26074219 279.89044922 686.26074219 279.21044922 686.26074219 C278.87013672 687.07865234 278.87013672 687.07865234 278.52294922 687.91308594 C276.81031371 690.97646076 274.60691877 693.26306033 272.21044922 695.82324219 C269.63600663 698.58103897 267.30408459 701.12028913 265.21044922 704.26074219 C259.70741582 704.84219477 255.08151769 703.63093706 249.89794922 702.01074219 C249.15391846 701.78547852 248.4098877 701.56021484 247.64331055 701.328125 C242.72191149 699.81055539 237.92195997 698.10075745 233.19091797 696.05761719 C231.21643009 695.26314869 229.28462788 694.72684975 227.21044922 694.26074219 C227.21044922 693.60074219 227.21044922 692.94074219 227.21044922 692.26074219 C226.21078125 692.09832031 226.21078125 692.09832031 225.19091797 691.93261719 C221.51022424 691.10289331 218.04363566 689.84405189 214.52294922 688.51074219 C213.81468994 688.24414795 213.10643066 687.97755371 212.37670898 687.70288086 C207.53331847 685.84708477 202.89415988 683.75427807 198.30029297 681.33886719 C196.01255356 680.12052072 196.01255356 680.12052072 192.71044922 678.82324219 C188.88405486 677.11503042 185.44657613 675.05485965 181.88232422 672.86230469 C179.2006879 671.2548911 176.47459836 669.78340007 173.71044922 668.32324219 C167.47887511 664.9610087 161.83883975 660.91882866 156.13623047 656.74121094 C153.49818657 654.82213079 151.32828002 653.30001912 148.21044922 652.26074219 C146.54378255 650.59407552 144.87711589 648.92740885 143.21044922 647.26074219 C142.00388672 646.58011719 142.00388672 646.58011719 140.77294922 645.88574219 C137.70502647 643.9402302 135.85975759 641.62769399 133.64013672 638.78417969 C132.18011971 636.98653867 132.18011971 636.98653867 129.21044922 636.26074219 C129.21044922 635.60074219 129.21044922 634.94074219 129.21044922 634.26074219 C128.55044922 634.26074219 127.89044922 634.26074219 127.21044922 634.26074219 C127.21044922 633.60074219 127.21044922 632.94074219 127.21044922 632.26074219 C126.55044922 632.26074219 125.89044922 632.26074219 125.21044922 632.26074219 C125.21044922 631.60074219 125.21044922 630.94074219 125.21044922 630.26074219 C124.55044922 630.26074219 123.89044922 630.26074219 123.21044922 630.26074219 C123.21044922 629.60074219 123.21044922 628.94074219 123.21044922 628.26074219 C122.55044922 628.26074219 121.89044922 628.26074219 121.21044922 628.26074219 C120.18759869 626.60800065 119.19156609 624.93859423 118.21044922 623.26074219 C116.95341954 621.81325346 115.65822368 620.39840747 114.33544922 619.01074219 C108.34441247 612.47418014 103.10411574 605.39590116 97.77539062 598.31787109 C96.36279986 596.46100841 94.92716408 594.62741324 93.47216797 592.80371094 C84.70097125 581.78013266 77.95377286 569.73234787 71.12817383 557.45092773 C69.57018737 554.64882706 67.99011846 551.93024604 66.21044922 549.26074219 C65.65321587 547.05657473 65.26671014 544.85048834 64.87060547 542.61230469 C64.29386448 540.15335234 64.29386448 540.15335234 62.73779297 537.83496094 C61.06942037 535.02304906 60.41145968 532.63199803 59.71044922 529.44824219 C58.95105916 526.02646676 58.0845998 522.94577479 56.78076172 519.68261719 C54.6169931 514.07861693 53.68217944 508.20970468 52.58544922 502.32324219 C52.15912872 500.06348979 51.72962152 497.80433543 51.29638672 495.54589844 C51.11124512 494.55468994 50.92610352 493.56348145 50.73535156 492.54223633 C50.43350292 490.30694182 50.43350292 490.30694182 49.21044922 489.26074219 C48.93459118 487.55034692 48.71817788 485.8303001 48.52685547 484.10839844 C48.34219727 482.47547852 48.34219727 482.47547852 48.15380859 480.80957031 C47.9652832 479.08383789 47.9652832 479.08383789 47.77294922 477.32324219 C47.65113281 476.23849609 47.52931641 475.15375 47.40380859 474.03613281 C47.15159187 471.78447781 46.90359991 469.53234574 46.65974426 467.2797699 C46.36412223 464.58454868 46.04247139 461.89409383 45.70256042 459.20411682 C44.41546388 448.78457226 43.91378525 438.55729393 43.94482422 428.06542969 C43.94270215 426.47288925 43.93992824 424.88034956 43.93655396 423.28781128 C43.93103561 419.09722556 43.93957566 414.90679638 43.95290375 410.7162323 C43.96050494 408.11668713 43.9645962 405.51715655 43.96783447 402.91760254 C44.00454778 377.98906472 44.31446731 353.1281438 46.21044922 328.26074219 C46.30116699 327.0704541 46.39188477 325.88016602 46.48535156 324.65380859 C46.81670572 320.4065605 47.15660707 316.16039075 47.52587891 311.91625977 C48.48633647 300.71767173 48.85508163 289.49238026 49.21044922 278.26074219 C49.87044922 278.26074219 50.53044922 278.26074219 51.21044922 278.26074219 C51.19884766 276.95621094 51.18724609 275.65167969 51.17529297 274.30761719 C51.16590135 272.54199364 51.15680265 270.77636852 51.14794922 269.01074219 C51.13957031 268.15738281 51.13119141 267.30402344 51.12255859 266.42480469 C51.10568915 261.90379475 51.25297252 257.47188607 51.70385742 252.97241211 C52.38060955 245.09426528 52.39441843 237.22744202 52.41357422 229.32714844 C52.4164016 228.52379499 52.41922897 227.72044155 52.42214203 226.89274406 C52.43706607 222.61607424 52.44633048 218.33943737 52.45068359 214.06274414 C52.45500976 210.61439083 52.46867923 207.16629603 52.49169922 203.71801758 C52.61435754 184.95029225 52.33780427 166.31530927 50.81982422 147.60058594 C50.75707558 146.80973665 50.69432693 146.01888737 50.62967682 145.20407295 C49.83265667 135.06188112 49.83265667 135.06188112 47.21044922 125.26074219 C46.92438228 123.95063852 46.67071621 122.63261573 46.46435547 121.30761719 C46.29383667 120.26250977 46.29383667 120.26250977 46.11987305 119.19628906 C45.94814575 118.11444336 45.94814575 118.11444336 45.77294922 117.01074219 C44.96838593 112.13637302 44.08940033 107.46009551 42.52294922 102.76074219 C40.99549844 98.13065701 40.97547676 94.11683962 41.21044922 89.26074219 C40.55044922 89.26074219 39.89044922 89.26074219 39.21044922 89.26074219 C39.21044922 88.60074219 39.21044922 87.94074219 39.21044922 87.26074219 C38.55044922 87.26074219 37.89044922 87.26074219 37.21044922 87.26074219 C36.95392578 86.37515625 36.69740234 85.48957031 36.43310547 84.57714844 C32.3187201 71.26427187 26.47034735 57.84348291 17.21044922 47.26074219 C16.22044922 46.93074219 15.23044922 46.60074219 14.21044922 46.26074219 C13.20348453 44.59827417 12.20433754 42.93106065 11.21044922 41.26074219 C9.15852649 39.28364363 9.15852649 39.28364363 6.77294922 37.51074219 C5.88349609 36.82496094 4.99404297 36.13917969 4.07763672 35.43261719 C3.13146484 34.71589844 2.18529297 33.99917969 1.21044922 33.26074219 C0.26427734 32.52339844 -0.68189453 31.78605469 -1.65673828 31.02636719 C-15.6529664 20.26003787 -30.99094 12.03597472 -46.78955078 4.26074219 C-46.78955078 3.60074219 -46.78955078 2.94074219 -46.78955078 2.26074219 C-31.19574716 0.22847863 -15.70830044 -0.05323502 0 0 Z " fill="#014AC7" transform="translate(232.78955078125,299.7392578125)"/>
<path d="M0 0 C0.99596191 0.07001221 1.99192383 0.14002441 3.01806641 0.2121582 C10.03525088 0.81279278 16.65550407 2.31267477 23.4375 4.1875 C23.4375 4.8475 23.4375 5.5075 23.4375 6.1875 C16.67431382 7.61612809 9.93490397 8.4727548 3.0625 9.125 C-3.65762888 9.77584402 -10.06322062 10.81862712 -16.62109375 12.4765625 C-19.43249978 13.15607896 -22.2030425 13.63619551 -25.0625 14.0625 C-48.93816697 17.90242569 -73.3560007 24.65518016 -96.33203125 32.171875 C-99.51329118 33.17202927 -102.69260259 33.98457878 -105.9375 34.75 C-111.39453635 36.06263847 -116.41162815 37.98116842 -121.5625 40.1875 C-128.45386455 43.10181315 -135.30149386 45.36534637 -142.5625 47.1875 C-142.5625 47.8475 -142.5625 48.5075 -142.5625 49.1875 C-143.73167969 49.61160156 -144.90085937 50.03570312 -146.10546875 50.47265625 C-187.99493531 66.22603852 -223.66485539 99.42229362 -242.31176758 139.89770508 C-244.18143731 144.09792954 -245.71195041 148.29572551 -246.859375 152.74609375 C-247.5625 155.1875 -247.5625 155.1875 -249.01171875 158.84375 C-250.80045129 163.54889429 -251.73209869 168.30780964 -252.625 173.25 C-252.78548828 174.08982422 -252.94597656 174.92964844 -253.11132812 175.79492188 C-253.63063234 178.58748552 -254.10375285 181.38434952 -254.5625 184.1875 C-254.74635254 185.28143066 -254.93020508 186.37536133 -255.11962891 187.50244141 C-256.61071663 197.3000695 -256.87123862 206.91003763 -256.82324219 216.8046875 C-256.81245656 219.44814679 -256.82323805 222.09093528 -256.8359375 224.734375 C-256.84620041 237.23987762 -255.36194388 248.25510997 -251.5625 260.1875 C-251.12214503 261.66360013 -250.683499 263.14021061 -250.24609375 264.6171875 C-247.42602606 274.01020391 -244.289097 282.56841136 -239.5625 291.1875 C-239.06492187 292.1878125 -238.56734375 293.188125 -238.0546875 294.21875 C-233.74187078 302.79922305 -228.32629889 310.52988147 -222.5625 318.1875 C-221.799375 319.2084375 -221.03625 320.229375 -220.25 321.28125 C-211.98832379 332.23764282 -203.00137711 342.53199768 -193.78125 352.6875 C-190.39503357 356.50295514 -187.15917365 360.43912988 -183.91015625 364.37109375 C-181.93401836 366.74180161 -179.92486759 369.06832573 -177.875 371.375 C-174.24112731 375.5001655 -170.8878446 379.81168044 -167.5625 384.1875 C-166.54542969 385.51201172 -166.54542969 385.51201172 -165.5078125 386.86328125 C-156.69075017 398.45724756 -148.22957456 410.21109634 -141.5625 423.1875 C-140.73909144 424.72769362 -139.91335447 426.26664355 -139.0859375 427.8046875 C-138.18193824 429.49460265 -137.2782948 431.18470819 -136.375 432.875 C-135.94630615 433.67139893 -135.5176123 434.46779785 -135.07592773 435.28833008 C-132.49305152 440.16461786 -130.42026323 444.99224352 -128.5625 450.1875 C-127.80191084 452.00432261 -127.03169666 453.81715858 -126.25 455.625 C-120.1918226 470.08409411 -115.07974302 484.74282372 -113.08984375 500.33984375 C-112.71923989 503.11329044 -112.71923989 503.11329044 -111.56689453 505.10595703 C-110.5101434 507.29600568 -110.19474134 508.93159042 -109.96484375 511.33984375 C-109.88556641 512.11650391 -109.80628906 512.89316406 -109.72460938 513.69335938 C-109.65048828 514.49580078 -109.57636719 515.29824219 -109.5 516.125 C-109.03613849 520.87478847 -108.53290478 525.51046714 -107.5625 530.1875 C-105.65408373 546.51506144 -105.5928805 563.47755888 -107.875 579.75 C-108.05144043 581.02435913 -108.05144043 581.02435913 -108.23144531 582.32446289 C-109.02452272 587.37044326 -110.49979881 591.48912508 -112.5625 596.1875 C-113.4909185 599.43151998 -114.24017411 602.71298764 -115 606 C-116.46007018 612.06368838 -117.95666108 617.87635519 -120.48046875 623.59765625 C-121.65124058 626.39990073 -122.60879269 629.23490968 -123.57128906 632.11376953 C-126.77411735 641.6146495 -130.84957585 650.35276422 -135.5625 659.1875 C-135.96597656 659.95964844 -136.36945313 660.73179687 -136.78515625 661.52734375 C-145.68888461 678.54517318 -155.89668328 694.69875265 -168.5625 709.1875 C-169.24183594 709.97640625 -169.92117188 710.7653125 -170.62109375 711.578125 C-194.69227228 738.96185103 -224.27022888 759.45706496 -257.5625 774.1875 C-258.52027344 774.61546875 -259.47804688 775.0434375 -260.46484375 775.484375 C-273.46564392 781.10042893 -286.9514076 785.55099858 -300.59765625 789.29296875 C-303.99457082 790.31786129 -307.0943096 791.66828526 -310.29296875 793.1875 C-313.8609116 794.75960563 -317.56171956 795.89189547 -321.27734375 797.0625 C-323.98886571 797.99105924 -326.60435837 799.00734641 -329.25390625 800.09375 C-334.60739806 802.25576595 -340.0372394 804.02034262 -345.5625 805.6875 C-346.56579346 805.99083252 -347.56908691 806.29416504 -348.6027832 806.60668945 C-356.77728444 809.0349456 -364.97660976 811.05108859 -373.33349609 812.73583984 C-375.6280632 813.20078499 -377.91742764 813.68702155 -380.20703125 814.17578125 C-392.97739817 816.86052695 -405.83190334 818.86825919 -418.74023438 820.76464844 C-421.08642344 821.11617088 -423.42627322 821.48900202 -425.765625 821.8828125 C-434.41496941 823.28487518 -442.82861918 823.39166864 -451.5625 823.1875 C-449.01686046 820.64186046 -447.10913901 820.39847692 -443.625 819.5 C-429.03452075 815.46369939 -415.12610706 809.87418213 -401.5625 803.1875 C-400.18491154 802.51819683 -398.80730692 801.84892693 -397.4296875 801.1796875 C-390.74437397 797.9071074 -384.21529301 794.53096055 -377.890625 790.59375 C-375.47574565 789.13509804 -373.00782689 787.85395576 -370.5 786.5625 C-356.23094188 778.84350387 -343.21166563 768.25572889 -330.796875 757.875 C-328.5625 756.1875 -328.5625 756.1875 -326.5625 756.1875 C-326.5625 755.5275 -326.5625 754.8675 -326.5625 754.1875 C-325.12865249 752.94565799 -323.63572975 751.77207712 -322.125 750.625 C-310.0220822 740.93327152 -298.89955532 729.56735733 -289.5625 717.1875 C-289.14339355 716.64480469 -288.72428711 716.10210938 -288.29248047 715.54296875 C-281.28784204 706.46185648 -275.30092236 697.01302561 -269.63769531 687.04833984 C-268.1967846 684.55455658 -266.65913346 682.12473173 -265.125 679.6875 C-262.52013097 675.39278675 -260.89294931 671.01913171 -259.5625 666.1875 C-258.9025 666.1875 -258.2425 666.1875 -257.5625 666.1875 C-257.376875 664.6096875 -257.376875 664.6096875 -257.1875 663 C-256.65109218 659.72791229 -255.92369965 657.18213924 -254.5625 654.1875 C-253.9025 654.1875 -253.2425 654.1875 -252.5625 654.1875 C-252.645 653.40375 -252.7275 652.62 -252.8125 651.8125 C-252.57752772 648.40540199 -252.03777184 646.66229013 -250.70703125 643.60546875 C-248.5842289 638.44377656 -247.18944908 633.31936061 -246 627.875 C-245.79020508 626.93148682 -245.58041016 625.98797363 -245.36425781 625.01586914 C-239.97595257 600.03995353 -238.41638635 575.0790559 -240.375 549.625 C-240.44501221 548.65071045 -240.51502441 547.6764209 -240.5871582 546.67260742 C-241.08643506 540.83310907 -242.16760719 535.47521617 -243.81640625 529.85449219 C-244.52737832 527.31304621 -245.06224785 524.80066433 -245.54296875 522.20703125 C-246.60921955 516.64298099 -248.20270274 511.28345408 -249.875 505.875 C-250.18260254 504.86969238 -250.49020508 503.86438477 -250.80712891 502.82861328 C-252.82047965 496.33626383 -255.01786378 489.994071 -257.6171875 483.7109375 C-258.554306 481.20937324 -259.11632518 478.8170835 -259.5625 476.1875 C-260.2225 476.1875 -260.8825 476.1875 -261.5625 476.1875 C-261.7584375 475.61386719 -261.954375 475.04023437 -262.15625 474.44921875 C-264.45540447 467.91843085 -267.02429208 461.51392986 -269.6875 455.125 C-270.03619141 454.2796167 -270.38488281 453.4342334 -270.74414062 452.56323242 C-271.07865234 451.76763916 -271.41316406 450.9720459 -271.7578125 450.15234375 C-272.05703613 449.4368335 -272.35625977 448.72132324 -272.66455078 447.98413086 C-273.53654214 446.00253621 -273.53654214 446.00253621 -275.5625 444.1875 C-276.26064036 442.25930282 -276.95746026 440.33060668 -277.64453125 438.3984375 C-278.58559898 436.13186587 -279.71495798 434.2351164 -281.0625 432.1875 C-284.32248573 427.19932906 -286.17803313 421.98175022 -287.5625 416.1875 C-288.2225 416.1875 -288.8825 416.1875 -289.5625 416.1875 C-289.9440625 415.13433594 -290.325625 414.08117187 -290.71875 412.99609375 C-293.40239921 405.83812095 -296.51248404 398.84957287 -299.53515625 391.83007812 C-303.33159729 382.93895804 -306.50017891 374.27186878 -308.5 364.8125 C-308.6640332 364.0508252 -308.82806641 363.28915039 -308.99707031 362.50439453 C-309.34298021 360.89463358 -309.68686129 359.28443546 -310.02880859 357.67382812 C-310.57305115 355.13834495 -311.13819954 352.60819582 -311.70703125 350.078125 C-312.07591659 348.40633728 -312.44441702 346.73446457 -312.8125 345.0625 C-312.98773193 344.29373535 -313.16296387 343.5249707 -313.34350586 342.73291016 C-314.41499582 337.77868604 -314.723436 333.25698408 -314.5625 328.1875 C-313.9025 328.1875 -313.2425 328.1875 -312.5625 328.1875 C-311.21601785 330.13737261 -309.96062966 332.15049407 -308.75 334.1875 C-308.02762957 335.39340043 -307.30497428 336.59913026 -306.58203125 337.8046875 C-305.91558594 338.92101562 -305.24914062 340.03734375 -304.5625 341.1875 C-303.6922876 342.56553497 -302.81824698 343.94117409 -301.9375 345.3125 C-299.47354612 349.23657469 -297.27947247 353.29685603 -295.08984375 357.37890625 C-292.62339367 361.91439886 -290.04174962 366.38012561 -287.421875 370.828125 C-286.71875 372.03125 -286.015625 373.234375 -285.3125 374.4375 C-284.94898438 375.04851562 -284.58546875 375.65953125 -284.2109375 376.2890625 C-281.5625 380.84915414 -281.5625 380.84915414 -281.5625 384.1875 C-280.9025 384.1875 -280.2425 384.1875 -279.5625 384.1875 C-277.88576863 387.28633145 -276.2228866 390.39238455 -274.5625 393.5 C-274.08554687 394.38107422 -273.60859375 395.26214844 -273.1171875 396.16992188 C-272.66601562 397.01748047 -272.21484375 397.86503906 -271.75 398.73828125 C-271.12158203 399.90870972 -271.12158203 399.90870972 -270.48046875 401.1027832 C-269.5625 403.1875 -269.5625 403.1875 -269.5625 406.1875 C-268.9025 406.1875 -268.2425 406.1875 -267.5625 406.1875 C-266.94375 407.45980469 -266.94375 407.45980469 -266.3125 408.7578125 C-262.55618951 416.38781818 -258.56764296 423.75429079 -254.1640625 431.03125 C-252.56638701 434.17983974 -251.93048099 436.6969375 -251.5625 440.1875 C-250.9025 440.1875 -250.2425 440.1875 -249.5625 440.1875 C-249.32128418 440.71069824 -249.08006836 441.23389648 -248.83154297 441.77294922 C-242.90038689 454.63809571 -242.90038689 454.63809571 -235.8984375 466.9375 C-231.99200196 473.51675985 -229.3112963 480.75981704 -226.5234375 487.86328125 C-225.64388785 489.99064726 -224.67918549 492.01738015 -223.625 494.0625 C-218.68596987 503.70904322 -215.08224832 513.95752181 -211.5625 524.1875 C-211.3238623 524.85612061 -211.08522461 525.52474121 -210.83935547 526.21362305 C-208.73304074 532.25897601 -207.29066854 538.37286016 -205.9375 544.625 C-205.51012345 546.58253722 -205.08054744 548.53959595 -204.6484375 550.49609375 C-204.4632959 551.35001709 -204.2781543 552.20394043 -204.08740234 553.08374023 C-203.63389232 555.22586839 -203.63389232 555.22586839 -202.5625 557.1875 C-200.37253652 578.68158605 -200.07635732 601.158279 -205.796875 622.10546875 C-206.65298924 625.55176536 -207.19124598 628.99346037 -207.75 632.5 C-208.96787835 639.58695041 -211.08432691 646.27565433 -213.4375 653.0625 C-213.76516357 654.01294189 -214.09282715 654.96338379 -214.43041992 655.94262695 C-216.69523288 662.28775526 -219.45714904 668.21547695 -222.5625 674.1875 C-223.20710552 675.49022544 -223.8480322 676.79478107 -224.484375 678.1015625 C-234.80593232 699.1212745 -246.86251967 721.82396289 -263.78125 738.35546875 C-265.79523174 740.1613613 -265.79523174 740.1613613 -266.5625 743.1875 C-268.09375 744.6953125 -268.09375 744.6953125 -270.0625 746.3125 C-273.16293476 748.93382673 -276.04781284 751.64871431 -278.875 754.5625 C-283.78039847 759.52689811 -289.10398788 763.8500704 -294.5625 768.1875 C-295.41070313 768.87972656 -296.25890625 769.57195313 -297.1328125 770.28515625 C-302.14272514 774.3606181 -307.26493412 778.14389106 -312.62890625 781.7421875 C-314.68107 783.05075641 -314.68107 783.05075641 -315.5625 785.1875 C-307.86938505 787.14088223 -302.80682782 786.83384036 -296.00756836 782.92529297 C-293.18917616 781.17551372 -290.41216625 779.37186357 -287.65332031 777.52978516 C-285.52225055 776.16166027 -283.35131009 774.94049471 -281.125 773.734375 C-276.32926053 771.11186598 -271.81695326 768.15422042 -267.3125 765.0625 C-266.48838623 764.49772949 -265.66427246 763.93295898 -264.81518555 763.35107422 C-257.65975136 758.37913816 -251.06758457 752.97934544 -244.5625 747.1875 C-243.64174683 746.39375977 -243.64174683 746.39375977 -242.70239258 745.58398438 C-201.44253009 709.97031399 -175.33091221 661.57149802 -170.16015625 607.203125 C-169.84196835 602.86182153 -169.67430532 598.53818545 -169.5625 594.1875 C-169.52995117 593.15463867 -169.49740234 592.12177734 -169.46386719 591.05761719 C-168.55517303 558.7209553 -171.73302216 525.5698759 -183.421875 495.1640625 C-184.54990165 492.22037652 -185.50059272 489.25921916 -186.4375 486.25 C-189.08321848 478.19357037 -192.75652631 470.40118015 -196.7734375 462.9375 C-197.5625 461.1875 -197.5625 461.1875 -197.5625 458.1875 C-198.2225 458.1875 -198.8825 458.1875 -199.5625 458.1875 C-200.0471875 457.12273437 -200.531875 456.05796875 -201.03125 454.9609375 C-211.34898305 432.5151143 -224.94977864 412.05349232 -238.13256836 391.21582031 C-246.48221938 378.00151663 -254.8309446 364.77565595 -262.5625 351.1875 C-263.06652344 350.32511719 -263.57054687 349.46273438 -264.08984375 348.57421875 C-264.55519531 347.76597656 -265.02054688 346.95773437 -265.5 346.125 C-265.90089844 345.43277344 -266.30179688 344.74054688 -266.71484375 344.02734375 C-267.5625 342.1875 -267.5625 342.1875 -267.5625 339.1875 C-268.2225 339.1875 -268.8825 339.1875 -269.5625 339.1875 C-269.92601562 338.32769531 -270.28953125 337.46789062 -270.6640625 336.58203125 C-271.16679688 335.39996094 -271.66953125 334.21789062 -272.1875 333 C-272.46037842 332.35635498 -272.73325684 331.71270996 -273.0144043 331.04956055 C-274.68711412 327.13406291 -276.48308519 323.3156265 -278.375 319.5 C-285.10964377 304.99735441 -290.60379379 288.94614091 -292.94921875 273.10668945 C-293.45015347 269.90545338 -294.05905902 266.75478295 -294.71272278 263.58267212 C-296.70036931 253.5581978 -296.99240578 243.76176406 -296.89868164 233.56494141 C-296.87484345 230.79430467 -296.87818146 228.02462148 -296.88476562 225.25390625 C-296.87042911 216.38124273 -296.71609201 207.84946124 -294.5625 199.1875 C-294.20788663 197.64593602 -293.85366126 196.10428269 -293.5 194.5625 C-293.33113281 193.82902344 -293.16226563 193.09554687 -292.98828125 192.33984375 C-292.57610244 190.25626097 -292.35945737 188.24047551 -292.1875 186.125 C-288.45332715 151.33199268 -269.11343661 114.33180947 -247.5625 87.1875 C-246.92183594 86.37410156 -246.28117188 85.56070313 -245.62109375 84.72265625 C-208.47632767 38.40798369 -153.47979136 10.39514941 -94.66748047 3.45703125 C-92.32453634 3.15703005 -89.9939641 2.80174894 -87.66015625 2.4375 C-58.8934235 -2.03001994 -29.01597119 -2.12852659 0 0 Z " fill="#FAFAFA" transform="translate(828.5625,300.8125)"/>
<path d="M0 0 C-0.36103968 3.61039679 -1.12026868 6.4528958 -2.8125 9.625 C-6.11334832 15.87860718 -8.06536017 22.67433379 -9.97265625 29.4609375 C-10.96611041 32.88325486 -12.11837096 36.2057138 -13.3125 39.5625 C-19.09266899 56.55013523 -21.99846984 74.21757403 -24 92 C-24.07786051 92.64832007 -24.15572102 93.29664015 -24.23594093 93.96460629 C-25.92907058 108.17175518 -26.32346998 122.22997553 -26.37890625 136.52734375 C-26.39512925 138.8184934 -26.41231402 141.10963643 -26.43040466 143.40077209 C-26.4755889 149.36458266 -26.51066655 155.32840272 -26.54260254 161.29229736 C-26.59497785 170.88742299 -26.65971471 180.48245216 -26.73081779 190.07745552 C-26.75356642 193.41498543 -26.76987714 196.75250292 -26.78553772 200.09007263 C-26.79894014 202.12767686 -26.81255457 204.1652797 -26.82641602 206.20288086 C-26.82902939 207.12596039 -26.83164276 208.04903992 -26.83433533 209.00009155 C-26.84123383 209.8531337 -26.84813232 210.70617584 -26.85523987 211.58506775 C-26.85909478 212.32141418 -26.8629497 213.0577606 -26.86692142 213.81642056 C-27 216 -27 216 -27.50042057 218.29639626 C-28.14094012 221.76273401 -28.1433104 225.16139675 -28.13803101 228.67259216 C-28.14085229 229.43817839 -28.14367357 230.20376462 -28.14658034 230.99255043 C-28.15490545 233.55550942 -28.15626298 236.11842509 -28.15771484 238.68139648 C-28.16238574 240.52193319 -28.16752976 242.36246876 -28.17311096 244.20300293 C-28.18439151 248.17199533 -28.19282703 252.14098023 -28.19923019 256.10998344 C-28.20996273 262.42597567 -28.23023219 268.74191525 -28.25234985 275.05787659 C-28.31406302 293.02171343 -28.36789483 310.98554966 -28.40136719 328.94946289 C-28.41992906 338.86790138 -28.44914409 348.7862537 -28.4893719 358.70462853 C-28.51012365 363.933864 -28.52585219 369.16299229 -28.52817917 374.39227104 C-28.57177515 450.7071047 -28.57177515 450.7071047 -37.3359375 482.35546875 C-38.00889094 485.03540685 -38.3540713 487.63390594 -38.6875 490.375 C-40.21264017 500.2884111 -44.4413159 509.6741086 -48 519 C-48.50625754 520.35116985 -49.01154936 521.70270215 -49.515625 523.0546875 C-58.49415983 546.98935555 -58.49415983 546.98935555 -63.578125 554.79296875 C-65.16294876 557.25292871 -66.51257197 559.78565425 -67.875 562.375 C-70.6095437 567.43817857 -73.68573541 572.18991654 -76.921875 576.9453125 C-79.02923932 580.0429796 -81.07580849 583.176142 -83.125 586.3125 C-85.68512092 590.15019582 -88.30349041 593.73807737 -91.37890625 597.171875 C-93.4435043 599.50014461 -95.4061553 601.90276871 -97.375 604.3125 C-98.5196875 605.71048828 -98.5196875 605.71048828 -99.6875 607.13671875 C-101.22610027 609.04177617 -102.74713507 610.96115814 -104.25 612.89453125 C-104.95125 613.79558594 -105.6525 614.69664062 -106.375 615.625 C-107.00148438 616.44226563 -107.62796875 617.25953125 -108.2734375 618.1015625 C-110 620 -110 620 -113 621 C-111.32073668 616.63221913 -109.36694083 612.41834992 -107.375 608.1875 C-107.05015625 607.49462891 -106.7253125 606.80175781 -106.390625 606.08789062 C-105.59500115 604.39133977 -104.79767301 602.69558835 -104 601 C-103.34 601.66 -102.68 602.32 -102 603 C-99.69 598.71 -97.38 594.42 -95 590 C-94.34 590 -93.68 590 -93 590 C-92.9175 589.34 -92.835 588.68 -92.75 588 C-92.10615138 585.42460553 -91.40058665 583.68700044 -90.1875 581.375 C-88.06594457 577.30038812 -86.52834526 573.12508614 -85.00390625 568.796875 C-84.0451554 566.12580258 -83.01033158 563.50200965 -81.9375 560.875 C-74.86303388 543.25765246 -70.42657314 523.96203345 -69.2109375 505.00390625 C-69 503 -69 503 -68 501 C-67.87550932 497.92734357 -67.81190594 494.87839355 -67.796875 491.8046875 C-67.78990601 490.87291183 -67.78293701 489.94113617 -67.77575684 488.98112488 C-67.75824919 485.94570484 -67.75202506 482.91046859 -67.75 479.875 C-67.74899292 478.84857391 -67.74798584 477.82214783 -67.74694824 476.76461792 C-67.75959591 457.80669208 -68.19585418 439.20021499 -74.046875 420.9921875 C-74.95777009 418.13257421 -75.61660251 415.30649352 -76.25 412.375 C-80.0460764 397.04783132 -87.24825561 382.66807318 -95 369 C-95.51949219 368.06027344 -96.03898438 367.12054687 -96.57421875 366.15234375 C-97.97383878 363.73770592 -97.97383878 363.73770592 -101 362 C-101.69040574 360.34302621 -102.3530635 358.6744239 -103 357 C-105.34767906 352.82189826 -105.34767906 352.82189826 -109 350 C-109.96944462 348.31337484 -110.93529235 346.62448945 -111.87548828 344.92138672 C-113.6268595 341.92892223 -115.76801405 339.25632463 -117.9375 336.5625 C-118.41203613 335.96397217 -118.88657227 335.36544434 -119.37548828 334.7487793 C-121.93169118 331.53629891 -124.52528025 328.3578708 -127.15234375 325.203125 C-134.92208949 315.84322572 -141.88706976 306.12456415 -148.64160156 296.01025391 C-150.29016941 293.57058682 -152.01494665 291.19120218 -153.75 288.8125 C-182.56103758 247.55224865 -193.40527575 191.26060162 -185.27416992 141.86401367 C-184.99672546 140.30336874 -184.71063869 138.74422718 -184.41455078 137.18701172 C-184.01283955 135.06773657 -183.65605251 132.94516015 -183.30859375 130.81640625 C-182.05057402 123.67804289 -180.16248591 117.38467016 -177.19140625 110.77734375 C-176.05270031 108.1228522 -175.21171613 105.52956284 -174.4375 102.75 C-173.32392514 98.8081981 -171.82072388 95.35062722 -169.90234375 91.73828125 C-168.9005068 89.88951539 -168.9005068 89.88951539 -168 87.375 C-166.69567728 84.27723355 -165.00323913 81.69185258 -163 79 C-162.34 79 -161.68 79 -161 79 C-160.74476563 78.2572583 -160.48953125 77.5145166 -160.2265625 76.74926758 C-158.9342351 73.85259185 -157.61034674 72.2367682 -155.375 70.01171875 C-154.31539062 68.95307617 -154.31539062 68.95307617 -153.234375 67.87304688 C-152.49703125 67.15181641 -151.7596875 66.43058594 -151 65.6875 C-149.89398437 64.57665039 -149.89398437 64.57665039 -148.765625 63.44335938 C-143.26707949 58 -143.26707949 58 -141 58 C-141 57.34 -141 56.68 -141 56 C-137.12727343 52.46361444 -132.96934054 49.7037739 -128 48 C-127.01 47.34 -126.02 46.68 -125 46 C-124.01 46 -123.02 46 -122 46 C-122 45.34 -122 44.68 -122 44 C-116.69540389 38.52592798 -109.38795561 35.66202696 -102.55859375 32.6015625 C-99.84688708 31.38114567 -97.20004637 30.11839039 -94.5625 28.75 C-92.09666049 27.53871042 -89.80682318 26.50829168 -87.25 25.5703125 C-86.54883057 25.31121094 -85.84766113 25.05210937 -85.12524414 24.78515625 C-84.42391357 24.52605469 -83.72258301 24.26695312 -83 24 C-81.74810979 23.52498461 -80.49678874 23.04846599 -79.24609375 22.5703125 C-70.23823015 19.14349719 -61.18239047 15.93323535 -52 13 C-50.74920654 12.59563721 -50.74920654 12.59563721 -49.47314453 12.18310547 C-35.78064511 7.77957405 -22.08360656 4.25444005 -7.97338867 1.46142578 C-1.72328042 0 -1.72328042 0 0 0 Z " fill="#014AC6" transform="translate(803,344)"/>
<path d="M0 0 C0.33 0 0.66 0 1 0 C1.02331846 12.4494655 1.04101344 24.89892569 1.05181217 37.3484087 C1.05699876 43.1311248 1.06401829 48.91382579 1.07543945 54.6965332 C1.08642019 60.29218885 1.09230852 65.88783011 1.09487724 71.48349571 C1.09670444 73.6029756 1.10027143 75.72245483 1.10573006 77.84192848 C1.11314313 80.84361003 1.11398264 83.8452344 1.11352539 86.84692383 C1.11712067 87.69498596 1.12071594 88.5430481 1.12442017 89.41680908 C1.11491309 95.30022932 0.84138198 101.14729782 0.50474548 107.0189209 C-0.03711245 116.63374202 -0.16523366 126.22218937 -0.18945312 135.8503418 C-0.19742564 137.64669475 -0.20581578 139.4430459 -0.21458435 141.23939514 C-0.23244389 145.06684003 -0.24752779 148.89428144 -0.26036072 152.72174644 C-0.28086636 158.7997783 -0.30847733 164.87776616 -0.33703613 170.95576477 C-0.3967279 183.86632228 -0.44873614 196.77690671 -0.5 209.6875 C-0.55536176 223.61651303 -0.61220087 237.54551253 -0.67754889 251.47448283 C-0.70098356 256.51524123 -0.72257652 261.55599266 -0.73963928 266.59677696 C-0.86272175 302.73366186 -0.86272175 302.73366186 -1.45507812 317.46020508 C-1.51232685 318.89704792 -1.51232685 318.89704792 -1.57073212 320.3629179 C-1.73670626 323.85609782 -1.88702059 326.66106176 -3 330 C-3.27119383 333.5814804 -3.44546294 337.16264729 -3.62109375 340.75 C-4 344 -4 344 -6 347 C-6.10311086 340.27219893 -5.96411373 333.67008479 -5.30786037 326.97370434 C-3.39635172 307.2159743 -3.66458094 287.38443449 -3.6282146 267.55610061 C-3.61613362 262.23205759 -3.59231104 256.90806706 -3.56959534 251.58406067 C-3.52829182 241.53984774 -3.49570562 231.49562987 -3.46712118 221.4513734 C-3.41572455 203.41300319 -3.35389897 185.3746733 -3.28178078 167.3363741 C-3.25692015 161.0154105 -3.23746493 154.69446017 -3.22239864 148.3734659 C-3.21220202 144.45742781 -3.19805924 140.54141089 -3.18292236 136.6253891 C-3.1767661 134.81012024 -3.17230721 132.99484471 -3.16966438 131.17956734 C-3.16585372 128.70411959 -3.15603899 126.22876501 -3.14476013 123.75334167 C-3.14514626 123.03468797 -3.1455324 122.31603427 -3.14593023 121.57560319 C-3.12260546 117.91156797 -2.77847914 114.57304254 -2 111 C-1.90826073 109.501152 -1.85878506 107.99920686 -1.84851074 106.49758911 C-1.84016708 105.62575989 -1.83182343 104.75393066 -1.82322693 103.85568237 C-1.81904251 102.91217926 -1.81485809 101.96867615 -1.81054688 100.99658203 C-1.80225357 99.99272461 -1.79396027 98.98886719 -1.78541565 97.95458984 C-1.76804132 95.77805261 -1.7528674 93.60149695 -1.73963928 91.42493057 C-1.71856807 87.97805222 -1.69154765 84.53126585 -1.66296387 81.08444214 C-1.60332746 73.76466365 -1.55115503 66.44484202 -1.5 59.125 C-1.44070124 50.64874955 -1.37833545 42.17254445 -1.30812073 33.6963768 C-1.28161632 30.3046897 -1.26075844 26.91299784 -1.2401123 23.52127075 C-1.22350191 21.43491396 -1.20662943 19.34855924 -1.18945312 17.26220703 C-1.18526871 16.32275238 -1.18108429 15.38329773 -1.17677307 14.41537476 C-1.13012098 9.50916256 -0.82621182 4.83821502 0 0 Z " fill="#011339" transform="translate(777,449)"/>
<path d="M0 0 C1.34096477 4.0228943 0.59095503 7.53071373 0.08618164 11.65454102 C-1.23552212 23.61431706 -1.33229599 35.50625968 -1.37890625 47.52734375 C-1.39512925 49.8184934 -1.41231402 52.10963643 -1.43040466 54.40077209 C-1.4755889 60.36458266 -1.51066655 66.32840272 -1.54260254 72.29229736 C-1.59497785 81.88742299 -1.65971471 91.48245216 -1.73081779 101.07745552 C-1.75356642 104.41498543 -1.76987714 107.75250292 -1.78553772 111.09007263 C-1.79894014 113.12767686 -1.81255457 115.1652797 -1.82641602 117.20288086 C-1.82902939 118.12596039 -1.83164276 119.04903992 -1.83433533 120.00009155 C-1.84123383 120.8531337 -1.84813232 121.70617584 -1.85523987 122.58506775 C-1.85909478 123.32141418 -1.8629497 124.0577606 -1.86692142 124.81642056 C-2 127 -2 127 -2.49915886 129.28041458 C-3.15347893 132.83339613 -3.15343769 136.32905276 -3.15821838 139.92829895 C-3.16562535 141.11689554 -3.16562535 141.11689554 -3.17318195 142.32950419 C-3.18852375 144.981142 -3.19690857 147.63275566 -3.20532227 150.28442383 C-3.2149034 152.18661714 -3.22491362 154.08880834 -3.23532104 155.99099731 C-3.26235068 161.15374616 -3.28337078 166.31650413 -3.30332303 171.47928452 C-3.32519453 176.87517855 -3.35257753 182.27104451 -3.37937927 187.66691589 C-3.42929039 197.88424059 -3.4742351 208.10158088 -3.51740164 218.31893605 C-3.5667875 229.95125551 -3.62170064 241.58354681 -3.67708123 253.21583903 C-3.79087702 277.14386641 -3.89772131 301.07192081 -4 325 C-4.33 325 -4.66 325 -5 325 C-5 257.02 -5 189.04 -5 119 C-4.34 119 -3.68 119 -3 119 C-3.00222061 117.74878357 -3.00444122 116.49756714 -3.00672913 115.20843506 C-3.0270566 103.38039349 -3.04201828 91.5523555 -3.05181217 79.72430038 C-3.05701666 73.64431781 -3.06406985 67.56434942 -3.07543945 61.484375 C-3.08635515 55.6099458 -3.09229515 49.73553018 -3.09487724 43.86109161 C-3.0967159 41.62697384 -3.10030619 39.39285676 -3.10573006 37.15874481 C-3.17539367 7.25772585 -3.17539367 7.25772585 0 0 Z " fill="#09429E" transform="translate(778,433)"/>
<path d="M0 0 C11.7541128 17.6311692 6.31744846 55.66935907 6.26074219 76.60424805 C6.2493949 80.82432606 6.25608561 85.04415014 6.26764679 89.26421928 C6.31674087 110.58723668 5.65070935 131.73835317 4 153 C3.34 153 2.68 153 2 153 C2.00523682 153.71542969 2.01047363 154.43085937 2.01586914 155.16796875 C2.03680296 158.44530338 2.04971202 161.72262387 2.0625 165 C2.07087891 166.12535156 2.07925781 167.25070312 2.08789062 168.41015625 C2.10533416 174.37584397 1.91781223 180.10287573 1 186 C0.67 186 0.34 186 0 186 C-0.11819024 176.21647491 0.02992011 166.46400369 0.4375 156.6875 C0.47673584 155.69161865 0.51597168 154.6957373 0.55639648 153.66967773 C0.59837158 152.73067627 0.64034668 151.7916748 0.68359375 150.82421875 C0.72025146 149.98979248 0.75690918 149.15536621 0.79467773 148.2956543 C1 146 1 146 1.4942627 144.16375732 C2.05486263 141.76527455 2.20141159 139.5454679 2.29711914 137.08422852 C2.33706497 136.10144424 2.3770108 135.11865997 2.41816711 134.10609436 C2.45677353 133.04112228 2.49537994 131.97615021 2.53515625 130.87890625 C2.57831467 129.76386215 2.62147308 128.64881805 2.66593933 127.49998474 C2.8042179 123.85435149 2.93448442 120.20850745 3.0625 116.5625 C3.10669067 115.31960205 3.15088135 114.0767041 3.19641113 112.79614258 C7.2417775 63.95557434 7.2417775 63.95557434 1 16 C0.77202438 13.26710707 0.58331813 10.54957796 0.4375 7.8125 C0.39431641 7.06291016 0.35113281 6.31332031 0.30664062 5.54101562 C0.20077315 3.69421625 0.0999024 1.84713166 0 0 Z " fill="#011843" transform="translate(280,425)"/>
<path d="M0 0 C0.33 0 0.66 0 1 0 C1.102436 10.82407049 1.02029737 21.60451024 0.5078125 32.41796875 C-0.05758389 45.48678901 -0.18615752 58.54269201 -0.18530273 71.62255859 C-0.18751055 75.39301511 -0.20582808 79.16318767 -0.22460938 82.93359375 C-0.2522728 95.11761345 0.01427639 107.07402611 1.52563477 119.16992188 C2.07847468 123.63361337 2.37780937 128.07136436 2.5625 132.5625 C2.60272779 137.43057633 2.60272779 137.43057633 4 142 C4.0716735 144.55157655 4.09308442 147.07472971 4.0625 149.625 C4.05798828 150.33140625 4.05347656 151.0378125 4.04882812 151.765625 C4.03703875 153.51045275 4.01910324 155.255237 4 157 C4.66 157 5.32 157 6 157 C8.21772491 165.27950633 8.60271115 173.47919963 9 182 C8.67 182 8.34 182 8 182 C7.82609741 181.09906616 7.82609741 181.09906616 7.64868164 180.17993164 C7.12393529 177.47333141 6.59329853 174.76791952 6.0625 172.0625 C5.78889648 170.64420898 5.78889648 170.64420898 5.50976562 169.19726562 C5.33251953 168.29814453 5.15527344 167.39902344 4.97265625 166.47265625 C4.81031494 165.64000244 4.64797363 164.80734863 4.48071289 163.94946289 C4.18019737 162.00778088 4.18019737 162.00778088 3 161 C2.72414196 159.28960474 2.50772866 157.56955792 2.31640625 155.84765625 C2.19330078 154.75904297 2.07019531 153.67042969 1.94335938 152.54882812 C1.75483398 150.8230957 1.75483398 150.8230957 1.5625 149.0625 C1.37977539 147.43538086 1.37977539 147.43538086 1.19335938 145.77539062 C0.94114265 143.52373563 0.69315069 141.27160355 0.44929504 139.01902771 C0.15367301 136.32380649 -0.16797782 133.63335164 -0.50788879 130.94337463 C-1.79498229 120.52385476 -2.29681806 110.29653709 -2.265625 99.8046875 C-2.26766208 98.21100269 -2.27034433 96.6173186 -2.27362061 95.02363586 C-2.27893201 90.83251126 -2.27024282 86.64153895 -2.25714111 82.45043564 C-2.24996108 79.86096503 -2.24675554 77.2715167 -2.24462891 74.68203735 C-2.21914332 49.74796337 -1.8641228 24.87562807 0 0 Z " fill="#093D92" transform="translate(279,628)"/>
<path d="M0 0 C3.39705302 0.01137089 6.79379183 0.00462531 10.19083405 -0.00687408 C30.66431902 -0.06577182 50.74625632 0.92214 70.96044922 4.26074219 C72.03681641 4.42574219 73.11318359 4.59074219 74.22216797 4.76074219 C75.24439453 4.92574219 76.26662109 5.09074219 77.31982422 5.26074219 C78.66512207 5.47730469 78.66512207 5.47730469 80.03759766 5.69824219 C82.21044922 6.26074219 82.21044922 6.26074219 84.21044922 8.26074219 C81.73084786 8.12049999 79.25192519 7.97382368 76.77294922 7.82324219 C76.06589844 7.78392578 75.35884766 7.74460937 74.63037109 7.70410156 C69.32373047 7.37402344 69.32373047 7.37402344 68.21044922 6.26074219 C39.45473331 1.42067119 8.97225823 0.78598706 -20.05126953 3.03808594 C-27.28939698 3.46919698 -34.54167782 3.33624086 -41.78955078 3.26074219 C-41.45955078 4.25074219 -41.12955078 5.24074219 -40.78955078 6.26074219 C-42.76955078 5.60074219 -44.74955078 4.94074219 -46.78955078 4.26074219 C-46.78955078 3.60074219 -46.78955078 2.94074219 -46.78955078 2.26074219 C-31.19574716 0.22847863 -15.70830044 -0.05323502 0 0 Z " fill="#093F99" transform="translate(232.78955078125,299.7392578125)"/>
<path d="M0 0 C3.28956405 1.64478203 3.76268145 5.18293974 4.875 8.5 C12.13072615 30.96346169 12.59825029 53.53864297 12.39123535 76.88360596 C12.36956262 79.95909748 12.37038175 83.03441354 12.37127304 86.10996819 C12.36996638 102.83086429 11.96607132 119.37210448 10 136 C9.67 136 9.34 136 9 136 C9 126.43 9 116.86 9 107 C9.66 107 10.32 107 11 107 C11.00847664 99.43401133 10.98308414 91.86869148 10.9197216 84.30297661 C10.89121877 80.78595981 10.8724419 77.26958041 10.87988281 73.75244141 C10.91125018 54.49017864 9.09611555 36.69277631 4.65042114 17.9133606 C3.98980658 14.95434173 3.47193193 11.99437836 3 9 C2.34 9 1.68 9 1 9 C0.67 6.03 0.34 3.06 0 0 Z " fill="#083D97" transform="translate(444,406)"/>
<path d="M0 0 C0.33 0 0.66 0 1 0 C1.02740796 2.62507322 1.04703194 5.24984991 1.0625 7.875 C1.07087891 8.60203125 1.07925781 9.3290625 1.08789062 10.078125 C1.10427399 13.81353108 0.97599693 17.43269576 0.5 21.13867188 C-0.33337305 29.22267341 -0.12282682 37.35972235 -0.09765625 45.4765625 C-0.09578803 47.25588949 -0.09436603 49.03521699 -0.09336853 50.81454468 C-0.08957519 55.46691339 -0.07977256 60.11925021 -0.06866455 64.77160645 C-0.05838152 69.53132699 -0.05385623 74.29105276 -0.04882812 79.05078125 C-0.03814703 88.36720141 -0.02110946 97.68359804 0 107 C-0.33 107 -0.66 107 -1 107 C-3.41926977 98.49989537 -3.27371848 90.15841364 -3.23046875 81.40625 C-3.22927487 79.80725136 -3.22882423 78.208252 -3.2290802 76.60925293 C-3.22752436 73.2775425 -3.21929827 69.9459409 -3.20581055 66.61425781 C-3.18871113 62.3357175 -3.18499983 58.05729516 -3.18575573 53.77872467 C-3.18548464 50.4863166 -3.18001507 47.1939345 -3.17275429 43.90153503 C-3.16956648 42.3226084 -3.16759995 40.74367882 -3.16686058 39.16474915 C-3.16470444 36.96980697 -3.15597943 34.77499298 -3.14526367 32.58007812 C-3.14145187 31.33037231 -3.13764008 30.0806665 -3.13371277 28.79309082 C-3 26 -3 26 -2 25 C-1.85561656 23.65682471 -1.77308383 22.30685134 -1.71875 20.95703125 C-1.68136719 20.13009766 -1.64398438 19.30316406 -1.60546875 18.45117188 C-1.57066406 17.58041016 -1.53585937 16.70964844 -1.5 15.8125 C-1.28138212 10.46445883 -1.03461719 5.26792588 0 0 Z " fill="#09409B" transform="translate(452,543)"/>
<path d="M0 0 C1 3.875 1 3.875 1 5 C2.98 4.34 4.96 3.68 7 3 C2.94118563 8.59458197 -1.38727541 13.87899056 -5.88208008 19.12280273 C-9.27503241 23.09528038 -12.4812714 27.16934182 -15.5625 31.390625 C-17 33 -17 33 -20 34 C-18.32073668 29.63221913 -16.36694083 25.41834992 -14.375 21.1875 C-13.88773438 20.14819336 -13.88773438 20.14819336 -13.390625 19.08789062 C-12.59500115 17.39133977 -11.79767301 15.69558835 -11 14 C-10.34 14.66 -9.68 15.32 -9 16 C-5.535 9.565 -5.535 9.565 -2 3 C-1.34 3 -0.68 3 0 3 C0 2.01 0 1.02 0 0 Z " fill="#0842A0" transform="translate(710,931)"/>
<path d="M0 0 C0.33 0 0.66 0 1 0 C1.02513241 6.18489298 1.04305946 12.36975482 1.05493164 18.5546875 C1.05989241 20.64909382 1.06666313 22.74349682 1.07543945 24.83789062 C1.13154846 38.5944979 0.84420319 52.26813568 0 66 C-0.66 66 -1.32 66 -2 66 C-1.99476318 66.71542969 -1.98952637 67.43085937 -1.98413086 68.16796875 C-1.96319704 71.44530338 -1.95028798 74.72262387 -1.9375 78 C-1.92912109 79.12535156 -1.92074219 80.25070312 -1.91210938 81.41015625 C-1.89466584 87.37584397 -2.08218777 93.10287573 -3 99 C-3.33 99 -3.66 99 -4 99 C-4.11819024 89.21647491 -3.97007989 79.46400369 -3.5625 69.6875 C-3.52326416 68.69161865 -3.48402832 67.6957373 -3.44360352 66.66967773 C-3.40162842 65.73067627 -3.35965332 64.7916748 -3.31640625 63.82421875 C-3.27974854 62.98979248 -3.24309082 62.15536621 -3.20532227 61.2956543 C-3 59 -3 59 -2.5057373 57.20045471 C-1.90829159 54.60097821 -1.79461251 52.16340357 -1.70288086 49.49707031 C-1.66291489 48.39623108 -1.62294891 47.29539185 -1.58177185 46.16119385 C-1.54318558 44.97878113 -1.5045993 43.79636841 -1.46484375 42.578125 C-1.42186661 41.36300232 -1.37888947 40.14787964 -1.33460999 38.89593506 C-1.19823588 35.01408406 -1.06779782 31.13205924 -0.9375 27.25 C-0.84609393 24.61847598 -0.75430182 21.98696534 -0.66210938 19.35546875 C-0.43692607 12.9037944 -0.21661636 6.45196736 0 0 Z " fill="#000D2B" transform="translate(284,512)"/>
<path d="M0 0 C1.89555794 3.21347014 2.24862565 5.57742246 2.24291992 9.28759766 C2.24599655 10.34194 2.24907318 11.39628235 2.25224304 12.48257446 C2.24505753 13.61496552 2.23787201 14.74735657 2.23046875 15.9140625 C2.23001053 17.08004974 2.22955231 18.24603699 2.2290802 19.44735718 C2.22606049 21.91022765 2.2181826 24.37309625 2.20581055 26.8359375 C2.18753742 30.61725585 2.18530101 34.39832958 2.18554688 38.1796875 C2.18063226 40.57031463 2.17480418 42.96094009 2.16796875 45.3515625 C2.16685593 46.48800201 2.1657431 47.62444153 2.16459656 48.7953186 C2.15821671 49.84335663 2.15183685 50.89139465 2.14526367 51.97119141 C2.14145187 52.89622467 2.13764008 53.82125793 2.13371277 54.77432251 C2 57 2 57 1 59 C0.68286275 62.63386433 0.48828964 66.26847692 0.28125 69.91015625 C0 73 0 73 -1 74 C-1.36760731 76.32817964 -1.70241581 78.6618385 -2 81 C-2.66 81 -3.32 81 -4 81 C-4.18859327 75.81368494 -3.75067988 71.46929752 -2.5078125 66.4453125 C-1.7410104 62.75286544 -1.50504769 59.04263075 -1.24609375 55.28515625 C-1 53 -1 53 0 51 C0.0902835 49.36582405 0.11755658 47.72797163 0.11352539 46.09130859 C0.11344986 45.07040131 0.11337433 44.04949402 0.11329651 42.99765015 C0.10813522 41.89240997 0.10297394 40.7871698 0.09765625 39.6484375 C0.09553383 37.95468491 0.09553383 37.95468491 0.09336853 36.22671509 C0.08775744 32.60945012 0.07520303 28.99224636 0.0625 25.375 C0.05748643 22.92708423 0.05292328 20.47916748 0.04882812 18.03125 C0.0377844 12.02081234 0.02103544 6.01041054 0 0 Z " fill="#093F97" transform="translate(735,794)"/>
<path d="M0 0 C0.33 0 0.66 0 1 0 C1.02898816 3.93748458 1.04679464 7.87494179 1.0625 11.8125 C1.07087891 12.93205078 1.07925781 14.05160156 1.08789062 15.20507812 C1.09111328 16.27822266 1.09433594 17.35136719 1.09765625 18.45703125 C1.10289307 19.44678955 1.10812988 20.43654785 1.11352539 21.45629883 C1 24 1 24 0 27 C-0.12863771 29.31167938 -0.20217761 31.62656704 -0.24609375 33.94140625 C-0.27907129 35.34440636 -0.31228219 36.74740101 -0.34570312 38.15039062 C-0.392769 40.34639191 -0.43713652 42.54237767 -0.47680664 44.73852539 C-0.632957 52.98831342 -0.91378895 60.96119843 -3 69 C-3.33 69 -3.66 69 -4 69 C-4.02730665 66.49992418 -4.04698485 64.0001551 -4.0625 61.5 C-4.07087891 60.80390625 -4.07925781 60.1078125 -4.08789062 59.390625 C-4.10689957 55.28469185 -3.82176701 51.37441606 -3.25610352 47.29882812 C-2.69053972 42.22223263 -2.61575042 37.10205306 -2.4375 32 C-2.39431641 30.84371094 -2.35113281 29.68742188 -2.30664062 28.49609375 C-2.20132083 25.66416146 -2.09918913 22.83215253 -2 20 C-1.34 20 -0.68 20 0 20 C0 13.4 0 6.8 0 0 Z " fill="#073E9A" transform="translate(284,558)"/>
<path d="M0 0 C15.85954815 -0.58412887 31.0238078 -0.14094257 46.6875 2.375 C47.39293945 2.48605072 48.09837891 2.59710144 48.82519531 2.71151733 C60.59407772 4.59407772 60.59407772 4.59407772 63 7 C60.52039864 6.85975781 58.04147598 6.7130815 55.5625 6.5625 C54.85544922 6.52318359 54.14839844 6.48386719 53.41992188 6.44335938 C48.11328125 6.11328125 48.11328125 6.11328125 47 5 C31.53603983 2.39715522 15.63319504 1.95566067 0 1 C0 0.67 0 0.34 0 0 Z " fill="#0942A0" transform="translate(254,301)"/>
<path d="M0 0 C0.99 0.495 0.99 0.495 2 1 C2 1.99 2 2.98 2 4 C2.99 4 3.98 4 5 4 C5.12375 4.53625 5.2475 5.0725 5.375 5.625 C7.98104833 15.52798366 13.04688158 24.33106732 17.75 33.359375 C19 36 19 36 19 38 C19.66 38 20.32 38 21 38 C22.5625 40.8125 22.5625 40.8125 24 44 C23.67 44.99 23.34 45.98 23 47 C22.66790527 46.41621582 22.33581055 45.83243164 21.99365234 45.23095703 C20.45529368 42.52829085 18.91515493 39.82664293 17.375 37.125 C16.85292969 36.2071875 16.33085937 35.289375 15.79296875 34.34375 C12.69736653 28.91689179 9.53131657 23.55517571 6.2043457 18.26635742 C4.60127859 15.24967954 4.00620756 12.31779361 3.43359375 8.9765625 C2.84381439 6.28801877 1.51395195 4.27092793 0 2 C0 1.34 0 0.68 0 0 Z " fill="#0943A3" transform="translate(294,833)"/>
<path d="M0 0 C1.13583456 3.71727674 0.66670026 5.47051709 -1 9 C-1.66 9 -2.32 9 -3 9 C-2.92458984 10.05574219 -2.92458984 10.05574219 -2.84765625 11.1328125 C-3.0284045 14.53458731 -4.02116457 16.78554311 -5.4375 19.875 C-7.41182692 24.38536375 -8.56665573 28.12487701 -9 33 C-9.495 33.495 -9.495 33.495 -10 34 C-10.24179404 36.28808802 -10.38336599 38.57465815 -10.5234375 40.87109375 C-11 43 -11 43 -14 45 C-13.22613912 36.20242363 -11.392275 28.73021513 -8.00390625 20.578125 C-7.01344087 18.03451742 -6.23731928 15.50195175 -5.5 12.875 C-4.17353463 8.24336401 -2.27737635 4.24063183 0 0 Z " fill="#0942A3" transform="translate(634,434)"/>
<path d="M0 0 C0.33 0 0.66 0 1 0 C0.86048455 4.04191057 0.71226955 8.08345742 0.5625 12.125 C0.50352539 13.83816406 0.50352539 13.83816406 0.44335938 15.5859375 C0.40146484 16.69453125 0.35957031 17.803125 0.31640625 18.9453125 C0.27974854 19.96125488 0.24309082 20.97719727 0.20532227 22.02392578 C-0.00478284 25.06932555 -0.49394402 27.99133904 -1 31 C-1.13751836 32.87031508 -1.24271295 34.74327205 -1.31640625 36.6171875 C-1.35830078 37.63554688 -1.40019531 38.65390625 -1.44335938 39.703125 C-1.48267578 40.74984375 -1.52199219 41.7965625 -1.5625 42.875 C-1.60568359 43.94492187 -1.64886719 45.01484375 -1.69335938 46.1171875 C-1.79892817 48.74467754 -1.90103791 51.37225422 -2 54 C-2.33 54 -2.66 54 -3 54 C-3.32240634 35.74188082 -3.44373868 18.01813275 0 0 Z " fill="#063787" transform="translate(619,479)"/>
<path d="M0 0 C0.66 1.32 1.32 2.64 2 4 C2.99 3.34 3.98 2.68 5 2 C4.67 3.65 4.34 5.3 4 7 C3.34 7 2.68 7 2 7 C1.773125 7.825 1.54625 8.65 1.3125 9.5 C-0.27426232 13.73136618 -2.50748237 17.25171013 -5 21 C-6.05711427 17.80042565 -5.95184778 16.03354912 -4.78515625 12.890625 C-4.51123047 12.13652344 -4.23730469 11.38242187 -3.95507812 10.60546875 C-3.51325195 9.43951172 -3.51325195 9.43951172 -3.0625 8.25 C-2.77181641 7.45722656 -2.48113281 6.66445313 -2.18164062 5.84765625 C-1.46405186 3.89487371 -0.73329094 1.94694059 0 0 Z " fill="#121A29" transform="translate(706,927)"/>
<path d="M0 0 C0.33 0 0.66 0 1 0 C1.43241983 7.73551035 0.72225636 15.10137919 -0.375 22.75 C-0.50108643 23.63647217 -0.62717285 24.52294434 -0.75708008 25.4362793 C-1.54966535 30.72331256 -2.61875468 35.83534359 -4 41 C-4.33 41 -4.66 41 -5 41 C-5.02689216 39.52093108 -5.04634621 38.04172517 -5.0625 36.5625 C-5.07990234 35.32693359 -5.07990234 35.32693359 -5.09765625 34.06640625 C-5 32 -5 32 -4 31 C-3.78933632 28.71195833 -3.63135159 26.41896178 -3.5 24.125 C-3.10918114 17.32754342 -3.10918114 17.32754342 -2 14 C-1.69301138 10.61459776 -1.49095405 7.22864938 -1.28125 3.8359375 C-1 1 -1 1 0 0 Z " fill="#0944A3" transform="translate(770,784)"/>
<path d="M0 0 C-0.45346725 4.53467254 -1.78496955 7.7007157 -3.88671875 11.63671875 C-5.69269695 15.47046195 -6.84374472 19.5088927 -8.0703125 23.55859375 C-9 26 -9 26 -11 27 C-10.52548478 21.49562349 -9.61249157 17.9235418 -7 13 C-5.91711279 10.02573514 -4.94633253 7.0202102 -4 4 C-6.31 3.67 -8.62 3.34 -11 3 C-11 2.67 -11 2.34 -11 2 C-7.12315913 0.80712589 -4.08378077 0 0 0 Z " fill="#0744A5" transform="translate(803,344)"/>
<path d="M0 0 C3.64720572 0.55621874 5.02019037 1.79107068 7.3125 4.625 C12.89776274 11.69942407 12.89776274 11.69942407 20 17 C20 17.66 20 18.32 20 19 C20.639375 19.28875 21.27875 19.5775 21.9375 19.875 C24 21 24 21 25 23 C24.401875 22.690625 23.80375 22.38125 23.1875 22.0625 C20.91043228 20.89790296 20.91043228 20.89790296 18 20 C16.37995767 18.27870503 14.96124214 16.45074522 13.5 14.59375 C11.98483163 12.73155509 11.98483163 12.73155509 9 12 C9 11.34 9 10.68 9 10 C8.34 10 7.68 10 7 10 C7 9.34 7 8.68 7 8 C6.34 8 5.68 8 5 8 C5 7.34 5 6.68 5 6 C4.34 6 3.68 6 3 6 C3 5.34 3 4.68 3 4 C2.34 4 1.68 4 1 4 C0.67 2.68 0.34 1.36 0 0 Z " fill="#07378A" transform="translate(353,924)"/>
<path d="M0 0 C3.61255268 3.61255268 4.11550099 7.78082879 4.22705078 12.72021484 C4.22673676 14.55048628 4.21559418 16.38077841 4.1953125 18.2109375 C4.1924826 19.17907379 4.18965271 20.14721008 4.18673706 21.14468384 C4.17558696 24.22158428 4.1504918 27.29818828 4.125 30.375 C4.11496352 32.4674437 4.10583884 34.55989198 4.09765625 36.65234375 C4.07566453 41.76834251 4.04117025 46.88412108 4 52 C3.67 52 3.34 52 3 52 C2.98018066 50.83017578 2.96036133 49.66035156 2.93994141 48.45507812 C2.86347389 44.08638138 2.77482197 39.71799996 2.68261719 35.34960938 C2.64449662 33.46425636 2.60961519 31.57883479 2.578125 29.69335938 C2.53210468 26.97240821 2.47417386 24.25192207 2.4140625 21.53125 C2.39673569 20.28075867 2.39673569 20.28075867 2.37905884 19.00500488 C2.24726158 13.69704231 1.36646493 9.12612709 0 4 C0 2.68 0 1.36 0 0 Z " fill="#04307F" transform="translate(546,848)"/>
<path d="M0 0 C-4.27620173 2.41221636 -8.17263578 3.60643654 -12.94921875 4.47265625 C-15.28834777 4.95389234 -15.28834777 4.95389234 -18 7 C-19.77875415 7.39650247 -21.57366694 7.72363109 -23.375 8 C-26.35489386 8.45970814 -28.82739573 8.92536031 -31.6015625 10.125 C-34.26393813 11.09629013 -35.38779089 10.96748486 -38 10 C-33.78982488 8.57772858 -29.57457095 7.17183052 -25.35449219 5.77929688 C-23.73167187 5.24217095 -22.10998945 4.70159895 -20.48925781 4.15820312 C-17.93364236 3.30342389 -15.37366015 2.46300034 -12.8125 1.625 C-11.99934326 1.35026855 -11.18618652 1.07553711 -10.34838867 0.79248047 C-9.57986572 0.54385254 -8.81134277 0.29522461 -8.01953125 0.0390625 C-7.33995361 -0.18571777 -6.66037598 -0.41049805 -5.96020508 -0.64208984 C-3.68046769 -1.0583428 -2.18606839 -0.70620721 0 0 Z " fill="#093D92" transform="translate(774,352)"/>
<path d="M0 0 C0 0.33 0 0.66 0 1 C-5.62257161 2.9169573 -10.52369385 3.24889924 -16.4375 3.125 C-17.26443359 3.11597656 -18.09136719 3.10695313 -18.94335938 3.09765625 C-20.96236708 3.07431512 -22.98122356 3.03845288 -25 3 C-24.67 3.99 -24.34 4.98 -24 6 C-25.98 5.34 -27.96 4.68 -30 4 C-30 3.34 -30 2.68 -30 2 C-26.87588408 1.65802981 -23.75060292 1.32807747 -20.625 1 C-19.75488281 0.90460938 -18.88476562 0.80921875 -17.98828125 0.7109375 C-11.96970497 0.08678885 -6.04920988 -0.11723906 0 0 Z " fill="#083583" transform="translate(216,300)"/>
<path d="M0 0 C3.87523204 3.37352789 5.81307123 7.07862988 8 11.625 C8.34740234 12.3363208 8.69480469 13.0476416 9.05273438 13.78051758 C16.26492084 28.69709178 16.26492084 28.69709178 16 35 C14.67010344 32.38426971 13.42930471 29.75213921 12.265625 27.05859375 C8.82301333 19.16043496 5.35982152 11.42862857 1.03125 3.96875 C0 2 0 2 0 0 Z " fill="#0943A2" transform="translate(709,713)"/>
<path d="M0 0 C0 3 0 3 -1.65234375 4.99291992 C-2.78349609 6.10050659 -2.78349609 6.10050659 -3.9375 7.23046875 C-4.74960937 8.03291016 -5.56171875 8.83535156 -6.3984375 9.66210938 C-7.25695312 10.49548828 -8.11546875 11.32886719 -9 12.1875 C-10.28777344 13.4549707 -10.28777344 13.4549707 -11.6015625 14.74804688 C-13.7278365 16.83888298 -15.86078464 18.92241983 -18 21 C-18.66 20.67 -19.32 20.34 -20 20 C-13.6688763 12.89967436 -7.30341903 6.13126536 0 0 Z " fill="#2F302F" transform="translate(628,384)"/>
<path d="M0 0 C0.99 0.66 1.98 1.32 3 2 C3 2.66 3 3.32 3 4 C2.505 4.433125 2.01 4.86625 1.5 5.3125 C1.005 5.869375 0.51 6.42625 0 7 C0.061875 7.7425 0.12375 8.485 0.1875 9.25 C-0.1048201 13.53736143 -2.8863582 16.18181327 -6 19 C-6.99 19.33 -7.98 19.66 -9 20 C-7.32073668 15.63221913 -5.36694083 11.41834992 -3.375 7.1875 C-2.88773438 6.14819336 -2.88773438 6.14819336 -2.390625 5.08789062 C-1.59500115 3.39133977 -0.79767301 1.69558835 0 0 Z " fill="#253D62" transform="translate(699,945)"/>
<path d="M0 0 C-0.33 0.33 -0.66 0.66 -1 1 C1.475 1.495 1.475 1.495 4 2 C0.1584024 4.56780471 -3.8139175 4.22688882 -8.25 4.125 C-8.99507813 4.11597656 -9.74015625 4.10695313 -10.5078125 4.09765625 C-12.33868059 4.07418358 -14.16938238 4.03831525 -16 4 C-13.71185277 1.71185277 -12.19248378 1.24548839 -9.125 0.3125 C-8.26132812 0.04050781 -7.39765625 -0.23148438 -6.5078125 -0.51171875 C-3.91305068 -1.01692938 -2.469215 -0.85561171 0 0 Z " fill="#B4B5B5" transform="translate(393,1120)"/>
<path d="M0 0 C-1 3 -1 3 -4 5 C-3.01 5.66 -2.02 6.32 -1 7 C-6.445 8.485 -6.445 8.485 -12 10 C-12.66 9.01 -13.32 8.02 -14 7 C-12.04480616 5.82807953 -10.0857461 4.6626071 -8.125 3.5 C-7.03445313 2.8503125 -5.94390625 2.200625 -4.8203125 1.53125 C-2 0 -2 0 0 0 Z " fill="#C4C4C4" transform="translate(540,1080)"/>
<path d="M0 0 C0.66 0 1.32 0 2 0 C1.02321077 6.19605106 -0.5523203 12.11137498 -2.5 18.0625 C-2.71358154 18.72967041 -2.92716309 19.39684082 -3.1472168 20.08422852 C-4.7568524 24.8784262 -4.7568524 24.8784262 -7 26 C-6.40380045 21.13103697 -5.43023178 16.67209049 -4 12 C-3.34 12 -2.68 12 -2 12 C-2.061875 10.700625 -2.061875 10.700625 -2.125 9.375 C-1.99542279 5.87641532 -1.23980344 3.25448403 0 0 Z " fill="#0943A5" transform="translate(543,922)"/>
<path d="M0 0 C0.33 0 0.66 0 1 0 C1.07416067 4.64473982 1.12860615 9.28913499 1.16479492 13.93432617 C1.17988094 15.51446536 1.2003525 17.09456269 1.22631836 18.67456055 C1.26271126 20.94590585 1.27972762 23.21669759 1.29296875 25.48828125 C1.30845261 26.19463211 1.32393646 26.90098297 1.33988953 27.6287384 C1.34158031 32.55691778 1.34158031 32.55691778 -0.51831055 34.96948242 C-1.25174683 35.47958862 -1.25174683 35.47958862 -2 36 C-1.90150757 35.15429443 -1.90150757 35.15429443 -1.80102539 34.29150391 C-1.00578112 26.99336689 -0.68689668 19.7097155 -0.4375 12.375 C-0.39431641 11.18003906 -0.35113281 9.98507812 -0.30664062 8.75390625 C-0.20159693 5.83602594 -0.09944352 2.91807562 0 0 Z " fill="#000F33" transform="translate(550,874)"/>
<path d="M0 0 C1 2 1 2 -0.07421875 5.265625 C-0.6038404 6.59701645 -1.14200086 7.92503473 -1.6875 9.25 C-1.94466797 9.90613281 -2.20183594 10.56226563 -2.46679688 11.23828125 C-4.21163521 15.55107576 -6.29973613 19.21139448 -9 23 C-9.33 21.68 -9.66 20.36 -10 19 C-9.34 19 -8.68 19 -8 19 C-7.7834375 17.8553125 -7.7834375 17.8553125 -7.5625 16.6875 C-7 14 -7 14 -6 11 C-5.34 11 -4.68 11 -4 11 C-4 9.35 -4 7.7 -4 6 C-3.34 6 -2.68 6 -2 6 C-1.855625 5.195625 -1.71125 4.39125 -1.5625 3.5625 C-1 1 -1 1 0 0 Z " fill="#08419F" transform="translate(749,874)"/>
<path d="M0 0 C1.49275774 2.98551548 0.45398681 4.97261456 -0.3125 8.1875 C-2.02210538 15.75524859 -3.08299363 23.29714648 -4 31 C-4.33 31 -4.66 31 -5 31 C-5.54096643 14.49050591 -5.54096643 14.49050591 -2 7 C-1.26298738 4.68176029 -0.63609208 2.34864766 0 0 Z " fill="#093F99" transform="translate(784,398)"/>
<path d="M0 0 C-0.47285854 5.48515912 -1.38187569 9.09101692 -4 14 C-4.69907414 16.73572585 -4.69907414 16.73572585 -5 19 C-5.66 19 -6.32 19 -7 19 C-6.41347648 14.51006131 -5.2356462 10.77456816 -3.4375 6.625 C-2.98246094 5.56539063 -2.52742187 4.50578125 -2.05859375 3.4140625 C-1.70925781 2.61742187 -1.35992188 1.82078125 -1 1 C-2.39605469 1.49113281 -2.39605469 1.49113281 -3.8203125 1.9921875 C-6.79240294 2.93420142 -8.91983656 3.18118608 -12 3 C-8.2391768 -0.7608232 -5.0273023 -0.25136512 0 0 Z " fill="#000E2E" transform="translate(804,343)"/>
<path d="M0 0 C0.33 0 0.66 0 1 0 C1.05859888 3.83326795 1.09379643 7.66641888 1.125 11.5 C1.15013672 13.11648438 1.15013672 13.11648438 1.17578125 14.765625 C1.2131143 20.88824592 0.80603367 26.14105614 -1 32 C-1.33 32 -1.66 32 -2 32 C-2 28.04 -2 24.08 -2 20 C-1.34 20 -0.68 20 0 20 C0 13.4 0 6.8 0 0 Z " fill="#07388A" transform="translate(284,558)"/>
<path d="M0 0 C1.02451301 3.23392606 0.95041862 5.64525388 0.44140625 8.984375 C0.30283203 9.91894531 0.16425781 10.85351562 0.02148438 11.81640625 C-0.12998047 12.78449219 -0.28144531 13.75257813 -0.4375 14.75 C-0.58509766 15.73355469 -0.73269531 16.71710938 -0.88476562 17.73046875 C-1.24958978 20.15478412 -1.62156746 22.57777798 -2 25 C-2.66 25 -3.32 25 -4 25 C-4.21908649 18.97512156 -3.49398047 13.82450494 -2 8 C-1.80921875 7.22527344 -1.6184375 6.45054687 -1.421875 5.65234375 C-0.95615457 3.76617601 -0.47925183 1.88277506 0 0 Z " fill="#000F33" transform="translate(785,397)"/>
<path d="M0 0 C0 3.17370278 -0.30933342 4.3794668 -2 7 C-2.639375 7.28875 -3.27875 7.5775 -3.9375 7.875 C-6.32671951 8.92051039 -6.32671951 8.92051039 -7.5 12.0625 C-9 15 -9 15 -11.1875 15.875 C-12.0846875 15.936875 -12.0846875 15.936875 -13 16 C-13 15.34 -13 14.68 -13 14 C-12.34 14 -11.68 14 -11 14 C-10.76539063 13.27425781 -10.53078125 12.54851562 -10.2890625 11.80078125 C-8.78466556 8.53213699 -6.96659552 6.66802714 -4.375 4.1875 C-3.55773437 3.39730469 -2.74046875 2.60710937 -1.8984375 1.79296875 C-0.95871094 0.90544922 -0.95871094 0.90544922 0 0 Z " fill="#063584" transform="translate(653,409)"/>
<path d="M0 0 C-9.51145038 7 -9.51145038 7 -14 7 C-14 7.66 -14 8.32 -14 9 C-15.65 9.33 -17.3 9.66 -19 10 C-11.7080292 2.7080292 -11.7080292 2.7080292 -7 0.8125 C-6.113125 0.44769531 -5.22625 0.08289063 -4.3125 -0.29296875 C-2 -1 -2 -1 0 0 Z " fill="#083889" transform="translate(702,378)"/>
<path d="M0 0 C0 3 0 3 -2.3359375 5.69921875 C-3.34119508 6.70314662 -4.35458968 7.6989775 -5.375 8.6875 C-5.88289062 9.19861328 -6.39078125 9.70972656 -6.9140625 10.23632812 C-10.73300859 14 -10.73300859 14 -13 14 C-13 14.66 -13 15.32 -13 16 C-13.66 15.67 -14.32 15.34 -15 15 C-10.39863498 9.46398272 -5.53601728 4.60136502 0 0 Z " fill="#CCCCCC" transform="translate(608,359)"/>
<path d="M0 0 C6.48463627 0.27594197 11.07074377 2.78610069 16 7 C16 7.66 16 8.32 16 9 C10.38943639 6.8547845 5.0482725 4.26652927 0 1 C0 0.67 0 0.34 0 0 Z " fill="#063786" transform="translate(200,310)"/>
<path d="M0 0 C0.66 0 1.32 0 2 0 C2.67363372 2.72761511 3.33909444 5.456799 4 8.1875 C4.28617188 9.34088867 4.28617188 9.34088867 4.578125 10.51757812 C5.51623421 14.42078253 6.25957208 17.95229795 6 22 C3.79659808 18.20856066 2.89456757 14.09676496 1.875 9.875 C1.69324219 9.14667969 1.51148438 8.41835938 1.32421875 7.66796875 C0 2.28148496 0 2.28148496 0 0 Z " fill="#08409E" transform="translate(727,754)"/>
<path d="M0 0 C0.66 0.33 1.32 0.66 2 1 C-4.92938497 9.81548975 -4.92938497 9.81548975 -11 11 C-10.04882866 9.8274869 -9.08882991 8.66212985 -8.125 7.5 C-7.32449219 6.52546875 -7.32449219 6.52546875 -6.5078125 5.53125 C-6.01023437 5.0259375 -5.51265625 4.520625 -5 4 C-4.34 4 -3.68 4 -3 4 C-3 3.34 -3 2.68 -3 2 C-2.01 1.34 -1.02 0.68 0 0 Z " fill="#073687" transform="translate(665,398)"/>
<path d="M0 0 C4.88151235 0.61018904 8.7134195 2.743905 13 5 C14.155 5.5775 15.31 6.155 16.5 6.75 C17.325 7.1625 18.15 7.575 19 8 C17.25 8.6875 17.25 8.6875 15 9 C13.63461347 8.04422943 12.30518475 7.03647024 11 6 C9.00428677 5.32060826 7.00405227 4.65438441 5 4 C2.125 2.4375 2.125 2.4375 0 1 C0 0.67 0 0.34 0 0 Z " fill="#073A8E" transform="translate(417,973)"/>
<path d="M0 0 C0.99 0.495 0.99 0.495 2 1 C2 1.99 2 2.98 2 4 C2.99 4 3.98 4 5 4 C5.52923572 6.12292296 6.04815377 8.24842051 6.5625 10.375 C6.85253906 11.55835938 7.14257812 12.74171875 7.44140625 13.9609375 C8 17 8 17 7 19 C5.10222047 16.15333071 4.64195066 14.85888655 4.0625 11.625 C3.30143774 7.88057368 2.13612469 5.20418704 0 2 C0 1.34 0 0.68 0 0 Z " fill="#04327E" transform="translate(294,833)"/>
<path d="M0 0 C3.6578722 4.19977919 6.79365864 8.87201939 9 14 C8.67 14.66 8.34 15.32 8 16 C7.34 15.34 6.68 14.68 6 14 C6 13.01 6 12.02 6 11 C5.01 11 4.02 11 3 11 C0 4.5 0 4.5 0 0 Z " fill="#063686" transform="translate(486,764)"/>
<path d="M0 0 C0.66 0 1.32 0 2 0 C3.6277833 6.14778871 4.20190089 11.64012196 4 18 C2.05116862 15.07675293 1.51920273 13.48916982 0.875 10.125 C0.70742188 9.28195312 0.53984375 8.43890625 0.3671875 7.5703125 C0.00121155 5.00848085 -0.06482904 2.58390011 0 0 Z " fill="#0744A5" transform="translate(279,413)"/>
<path d="M0 0 C1.72251754 4.0845326 0.07280563 7.36973696 -1.4375 11.25 C-1.68048828 11.8996875 -1.92347656 12.549375 -2.17382812 13.21875 C-2.77285994 14.81616817 -3.38514321 16.40860594 -4 18 C-5.11446742 14.65659775 -4.85175268 13.31739772 -4.125 9.9375 C-3.94195313 9.05964844 -3.75890625 8.18179688 -3.5703125 7.27734375 C-3 5 -3 5 -2 3 C-1.34 3 -0.68 3 0 3 C0 2.01 0 1.02 0 0 Z " fill="#073786" transform="translate(763,834)"/>
<path d="M0 0 C2.47045803 3.81615468 2.43831912 7.84744248 2.625 12.25 C2.66367187 12.99507812 2.70234375 13.74015625 2.7421875 14.5078125 C2.83605108 16.3381524 2.91909718 18.16904143 3 20 C0.53382398 15.23205969 -0.11580769 11.69657674 -0.0625 6.3125 C-0.05347656 5.13300781 -0.04445313 3.95351563 -0.03515625 2.73828125 C-0.02355469 1.83464844 -0.01195312 0.93101562 0 0 Z " fill="#01133B" transform="translate(731,772)"/>
<path d="M0 0 C0.33 0.66 0.66 1.32 1 2 C1.66 2 2.32 2 3 2 C3 4.31 3 6.62 3 9 C3.66 9 4.32 9 5 9 C5.33 11.97 5.66 14.94 6 18 C3.52621876 15.52621876 2.96861769 13.43825655 1.875 10.125 C1.52179688 9.07570313 1.16859375 8.02640625 0.8046875 6.9453125 C0 4 0 4 0 0 Z " fill="#083D98" transform="translate(288,811)"/>
<path d="M0 0 C0.33 0 0.66 0 1 0 C1.2358396 5.77807024 0.86783046 10.51324804 -1 16 C-1.66 16 -2.32 16 -3 16 C-3.45496035 10.23716896 -1.79099852 5.39431697 0 0 Z " fill="#093E93" transform="translate(730,875)"/>
<path d="M0 0 C1.33363823 3.63796253 0.65099829 5.57375218 -0.875 9.0625 C-1.24367188 9.91972656 -1.61234375 10.77695312 -1.9921875 11.66015625 C-2.32476563 12.43230469 -2.65734375 13.20445312 -3 14 C-3.33 14.99 -3.66 15.98 -4 17 C-4.66 17 -5.32 17 -6 17 C-4.46745644 11.12524968 -2.32330984 5.60526694 0 0 Z " fill="#0B3E93" transform="translate(721,906)"/>
<path d="M0 0 C1.04327633 3.33532281 1.03074612 6.15310627 0.75 9.625 C0.68296875 10.58664062 0.6159375 11.54828125 0.546875 12.5390625 C0 15 0 15 -3 17 C-2.48517081 11.147205 -1.54642808 5.6702363 0 0 Z " fill="#073B92" transform="translate(623,462)"/>
<path d="M0 0 C2.36503817 2.36503817 2.54921059 3.64036042 3.1875 6.875 C3.36667969 7.73867188 3.54585938 8.60234375 3.73046875 9.4921875 C3.9991907 11.99246997 3.7769577 13.63055452 3 16 C0.14206684 13.14206684 0.59200059 10.85334416 0.375 6.875 C0.30023438 5.59367187 0.22546875 4.31234375 0.1484375 2.9921875 C0.09945313 2.00476563 0.05046875 1.01734375 0 0 Z " fill="#01143D" transform="translate(276,406)"/>
<path d="M0 0 C0.33 0.66 0.66 1.32 1 2 C1.66 2 2.32 2 3 2 C3.66 7.28 4.32 12.56 5 18 C3.03723564 15.05585347 2.28266038 12.94101364 1.375 9.5625 C0.98441406 8.14130859 0.98441406 8.14130859 0.5859375 6.69140625 C0 4 0 4 0 0 Z " fill="#03225E" transform="translate(271,387)"/>
<path d="M0 0 C1.33256282 3.64120668 0.65840377 5.66876554 -0.8125 9.1875 C-1.16957031 10.06792969 -1.52664063 10.94835937 -1.89453125 11.85546875 C-3 14 -3 14 -5 15 C-4.54901762 13.06077578 -4.08894441 11.12366406 -3.625 9.1875 C-3.24214844 7.56908203 -3.24214844 7.56908203 -2.8515625 5.91796875 C-2 3 -2 3 0 0 Z " fill="#021E50" transform="translate(755,861)"/>
<path d="M0 0 C3.66739101 3.66739101 4.125 7.86829525 4.125 12.875 C4.09322822 14.25026422 4.05498128 15.62546802 4 17 C3.67 17 3.34 17 3 17 C2.49453964 14.91798472 1.99583165 12.83432933 1.5 10.75 C1.2215625 9.58984375 0.943125 8.4296875 0.65625 7.234375 C0 4 0 4 0 0 Z " fill="#011744" transform="translate(546,848)"/>
<path d="M0 0 C2.88214816 2.32877571 3.91208725 3.53338618 4.609375 7.234375 C4.65578125 8.39453125 4.7021875 9.5546875 4.75 10.75 C4.80671875 11.92046875 4.8634375 13.0909375 4.921875 14.296875 C4.94765625 15.18890625 4.9734375 16.0809375 5 17 C4.34 16.67 3.68 16.34 3 16 C2.65625 13.92578125 2.65625 13.92578125 2.5 11.3125 C2.18030875 7.26114001 1.50306608 3.8077674 0 0 Z " fill="#0942A3" transform="translate(542,840)"/>
<path d="M0 0 C1 2 1 2 0.29296875 4.78515625 C-0.07183594 5.86667969 -0.43664062 6.94820313 -0.8125 8.0625 C-1.16957031 9.14660156 -1.52664063 10.23070312 -1.89453125 11.34765625 C-3 14 -3 14 -5 15 C-4.56826496 8.84777564 -3.34594658 5.18082051 0 0 Z " fill="#0742A1" transform="translate(797,356)"/>
<path d="M0 0 C5.86448454 0.2555331 9.65757571 0.65757571 14 5 C8.94744036 4.36843005 4.70406799 2.86540627 0 1 C0 0.67 0 0.34 0 0 Z " fill="#083A8D" transform="translate(470,996)"/>
<path d="M0 0 C1 2 1 2 0.3125 5.5 C-1 9 -1 9 -3.125 10.4375 C-3.74375 10.623125 -4.3625 10.80875 -5 11 C-4.67 9.35 -4.34 7.7 -4 6 C-3.01 5.67 -2.02 5.34 -1 5 C-0.67 3.35 -0.34 1.7 0 0 Z " fill="#0F408F" transform="translate(703,944)"/>
<path d="M0 0 C1.63996535 5.36502951 -0.28832845 9.49454095 -2.625 14.4375 C-3.305625 15.7059375 -3.305625 15.7059375 -4 17 C-5 15 -5 15 -4.00390625 11.5234375 C-3.53099953 10.13802064 -3.05018356 8.75528453 -2.5625 7.375 C-2.31951172 6.66859375 -2.07652344 5.9621875 -1.82617188 5.234375 C-1.22412795 3.48726713 -0.61291983 1.74332214 0 0 Z " fill="#001136" transform="translate(761,843)"/>
<path d="M0 0 C2.97 0 5.94 0 9 0 C9 0.66 9 1.32 9 2 C10.98 2 12.96 2 15 2 C15.33 2.66 15.66 3.32 16 4 C10.43109483 3.52013969 5.32932432 2.70084819 0 1 C0 0.67 0 0.34 0 0 Z " fill="#01133A" transform="translate(310,305)"/>
<path d="M0 0 C0.33 0 0.66 0 1 0 C1 1.65 1 3.3 1 5 C1.66 5 2.32 5 3 5 C3 8.3 3 11.6 3 15 C2.67 15 2.34 15 2 15 C-0.10428384 9.87080814 -0.21755666 5.4389165 0 0 Z " fill="#073C92" transform="translate(282,780)"/>
<path d="M0 0 C0.95837449 3.04626176 1.01658162 5.09213636 0.25 8.1875 C0.01023437 9.22970703 0.01023437 9.22970703 -0.234375 10.29296875 C-0.61335937 11.13794922 -0.61335937 11.13794922 -1 12 C-1.99 12.33 -2.98 12.66 -4 13 C-3.27991594 8.39146203 -1.68704061 4.32762591 0 0 Z " fill="#00133B" transform="translate(796,362)"/>
<path d="M0 0 C-5.44535609 3.38495108 -10.67721029 3.67373505 -17 4 C-14.23719462 2.15812975 -12.19292174 1.27751723 -9.0625 0.3125 C-7.78052734 -0.09548828 -7.78052734 -0.09548828 -6.47265625 -0.51171875 C-3.89489426 -1.02075548 -2.45550663 -0.84888744 0 0 Z " fill="#073480" transform="translate(774,352)"/>
<path d="M0 0 C0 3 0 3 -1 6 C-3.21701147 7.58965571 -5.57862473 8.72327486 -8 10 C-6.23915938 6.0381086 -3.9706445 1.98532225 0 0 Z " fill="#031B4D" transform="translate(514,985)"/>
<path d="M0 0 C0.75 1.6875 0.75 1.6875 1 4 C-0.8125 6.75 -0.8125 6.75 -3 9 C-3.66 9 -4.32 9 -5 9 C-3.7508258 5.54074837 -2.32472205 2.85306797 0 0 Z " fill="#001235" transform="translate(724,923)"/>
<path d="M0 0 C3.28788824 3.11016455 5.83735988 6.01618925 8 10 C6.25 9.9375 6.25 9.9375 4 9 C1.99159505 6.29950956 0 3.44873267 0 0 Z " fill="#083C93" transform="translate(510,802)"/>
<path d="M0 0 C0.66 0 1.32 0 2 0 C1.57742724 1.4835001 1.13643678 2.96176424 0.6875 4.4375 C0.44386719 5.26121094 0.20023438 6.08492187 -0.05078125 6.93359375 C-0.36402344 7.61550781 -0.67726563 8.29742188 -1 9 C-1.99 9.33 -2.98 9.66 -4 10 C-2.8905928 6.51329166 -1.73662334 3.22515763 0 0 Z " fill="#011238" transform="translate(530,960)"/>
<path d="M0 0 C1.44560748 4.56237823 0.40342867 7.49425532 -1 12 C-1.99 12.495 -1.99 12.495 -3 13 C-2.45144652 8.428721 -1.58255197 4.32564205 0 0 Z " fill="#292E38" transform="translate(703,935)"/>
<path d="M0 0 C0.8125 1.6875 0.8125 1.6875 1 4 C-1.4375 6.75 -1.4375 6.75 -4 9 C-3.46930939 5.17902761 -2.50298434 2.93828597 0 0 Z " fill="#06317A" transform="translate(639,425)"/>
<path d="M0 0 C0.33 1.32 0.66 2.64 1 4 C-0.65 5.32 -2.3 6.64 -4 8 C-4 4.09161134 -2.49432124 2.88405893 0 0 Z " fill="#01143D" transform="translate(520,977)"/>
<path d="M0 0 C3.94120709 0.56302958 6.7508723 1.6791945 10 4 C10 4.66 10 5.32 10 6 C6.40992874 4.66654496 3.20429093 3.1056769 0 1 C0 0.67 0 0.34 0 0 Z " fill="#083A90" transform="translate(407,967)"/>
<path d="M0 0 C0.66 1.32 1.32 2.64 2 4 C0.35 5.65 -1.3 7.3 -3 9 C-3 5.30581799 -1.71820705 3.22163822 0 0 Z " fill="#3C4E6B" transform="translate(694,956)"/>
<path d="M0 0 C1.32 0 2.64 0 4 0 C4 0.66 4 1.32 4 2 C6.97 2.495 6.97 2.495 10 3 C10.33 3.99 10.66 4.98 11 6 C7.2089881 4.55049545 3.6125362 2.84827434 0 1 C0 0.67 0 0.34 0 0 Z " fill="#011643" transform="translate(366,324)"/>
<path d="M0 0 C0.33 0 0.66 0 1 0 C0.48041715 4.37934119 -0.05675742 8.68803391 -1 13 C-1.33 13 -1.66 13 -2 13 C-2.05447047 11.58376784 -2.09300508 10.16691809 -2.125 8.75 C-2.14820313 7.96109375 -2.17140625 7.1721875 -2.1953125 6.359375 C-1.9828378 3.79268059 -1.28654105 2.2083933 0 0 Z " fill="#083D97" transform="translate(767,812)"/>
<path d="M0 0 C0 2.95274099 -0.43891831 4.49058403 -1.5 7.1875 C-1.7784375 7.90292969 -2.056875 8.61835938 -2.34375 9.35546875 C-2.5603125 9.89816406 -2.776875 10.44085938 -3 11 C-3.33 11 -3.66 11 -4 11 C-4 9.02 -4 7.04 -4 5 C-3.34 5 -2.68 5 -2 5 C-2 3.68 -2 2.36 -2 1 C-1.34 0.67 -0.68 0.34 0 0 Z " fill="#011137" transform="translate(633,434)"/>
<path d="M0 0 C0.33 0 0.66 0 1 0 C0.88590407 1.45922693 0.75834456 2.91740598 0.625 4.375 C0.55539062 5.18710937 0.48578125 5.99921875 0.4140625 6.8359375 C0 9 0 9 -2 11 C-2.28571429 3.57142857 -2.28571429 3.57142857 0 0 Z " fill="#083E9A" transform="translate(791,371)"/>
<path d="M0 0 C1.45742463 -0.08096803 2.91612807 -0.13917774 4.375 -0.1875 C5.18710937 -0.22230469 5.99921875 -0.25710938 6.8359375 -0.29296875 C7.55007813 -0.19628906 8.26421875 -0.09960938 9 0 C9.66 0.99 10.32 1.98 11 3 C6.88425629 2.5251065 3.63616656 1.9789756 0 0 Z " fill="#01143A" transform="translate(326,309)"/>
<path d="M0 0 C3.37462715 0.54723683 5.08235 1.0549 8 3 C8 3.66 8 4.32 8 5 C4.62496331 3.8141763 2.35277269 2.72426311 0 0 Z " fill="#083E98" transform="translate(391,957)"/>
<path d="M0 0 C4.26086957 6.39130435 4.26086957 6.39130435 3.625 10.3125 C3.41875 10.869375 3.2125 11.42625 3 12 C0.97649676 8.96474514 0.67875982 7.80573798 0.375 4.3125 C0.30023438 3.50425781 0.22546875 2.69601562 0.1484375 1.86328125 C0.09945313 1.24839844 0.05046875 0.63351562 0 0 Z " fill="#000F32" transform="translate(288,815)"/>
<path d="M0 0 C0.33 0.99 0.66 1.98 1 3 C1.66 3 2.32 3 3 3 C3.66 4.98 4.32 6.96 5 9 C4.01 8.67 3.02 8.34 2 8 C2 7.01 2 6.02 2 5 C1.34 5 0.68 5 0 5 C0 3.35 0 1.7 0 0 Z " fill="#073A91" transform="translate(477,747)"/>
<path d="M0 0 C4.42857143 5.14285714 4.42857143 5.14285714 5 9 C4.34 9 3.68 9 3 9 C0.56839395 5.63316085 0 4.26649636 0 0 Z " fill="#083988" transform="translate(438,393)"/>
<path d="M0 0 C0.33 0.66 0.66 1.32 1 2 C-0.3125 4 -0.3125 4 -2 6 C-2.99 6 -3.98 6 -5 6 C-5 5.34 -5 4.68 -5 4 C-4.34 4 -3.68 4 -3 4 C-2.67 3.01 -2.34 2.02 -2 1 C-1.34 0.67 -0.68 0.34 0 0 Z " fill="#073A91" transform="translate(645,419)"/>
<path d="M0 0 C-0.375 2.9375 -0.375 2.9375 -1 6 C-1.99 6.495 -1.99 6.495 -3 7 C-2.67 5.35 -2.34 3.7 -2 2 C-3.32 1.67 -4.64 1.34 -6 1 C-4 0 -4 0 0 0 Z " fill="#093174" transform="translate(803,344)"/>
</svg>
