<svg width="24" height="24" viewBox="0 0 24 24" fill="none" xmlns="http://www.w3.org/2000/svg">
<g id="Frame">
<path id="Vector" d="M13.4093 12.0069C13.4093 15.4571 10.6314 18.2542 7.20454 18.2542C3.77771 18.2542 1 15.458 1 12.0069C1 8.55581 3.77792 5.75977 7.20454 5.75977C10.6312 5.75977 13.4093 8.55665 13.4093 12.0069ZM20.216 12.0069C20.216 15.2549 18.8269 17.8876 17.1136 17.8876C15.4003 17.8876 14.0112 15.254 14.0112 12.0069C14.0112 8.75975 15.4003 6.12616 17.1136 6.12616C18.8269 6.12616 20.216 8.75975 20.216 12.0069ZM23 12.0069C23 14.9169 22.5114 17.2758 21.9088 17.2758C21.3063 17.2758 20.8177 14.9161 20.8177 12.0069C20.8177 9.09769 21.3063 6.73799 21.9091 6.73799C22.5118 6.73799 23 9.09706 23 12.0069Z" fill="#909090"/>
</g>
</svg>
