<svg width="80" height="80" viewBox="0 0 80 80" fill="none" xmlns="http://www.w3.org/2000/svg">
<g id="Frame 5" clip-path="url(#clip0_2009_77)">
<path id="content-creator 1 (Traced)" fill-rule="evenodd" clip-rule="evenodd" d="M18.2018 1.43547C17.721 1.67513 17.1447 2.1111 16.9209 2.40442C15.9956 3.61768 16.0038 3.53268 16.0038 11.9002V19.6414L13.1246 19.6967C10.2654 19.7519 10.2376 19.7561 9.1515 20.2912C7.81624 20.949 6.49632 22.2908 5.87036 23.6265L5.42105 24.5853L5.37672 44.7924L5.33256 64.9996H3.03102C0.840653 64.9996 0.711993 65.0182 0.367014 65.3852C-0.109458 65.8927 -0.123291 67.4459 0.333182 69.2303C1.44862 73.5916 4.74526 76.8882 9.1065 78.0037C10.3608 78.3245 11.0824 78.3321 40.0024 78.3321C68.9223 78.3321 69.644 78.3245 70.8982 78.0037C75.2595 76.8882 78.5561 73.5916 79.6715 69.2303C79.8522 68.524 80 67.4461 80 66.8351C80 65.8895 79.9427 65.6704 79.6144 65.3619C79.2571 65.0264 79.0602 64.9996 76.9479 64.9996H74.667V48.6332V32.2667L76.827 30.0855C79.5665 27.3188 79.9167 26.6667 79.9167 24.3318C79.9167 21.9161 79.5404 21.2695 76.2141 17.969C72.9463 14.7267 72.4081 14.4192 70.0006 14.4192C67.9329 14.4192 66.9718 14.8447 65.2352 16.5286L64.001 17.7254V13.3641V9.00286H66.3052C68.5215 9.00286 68.6235 8.9877 68.9848 8.60305C69.3425 8.22241 69.3578 8.09642 69.3055 5.96421C69.2526 3.80767 69.2321 3.69518 68.7463 2.91039C68.4342 2.40608 67.9309 1.90311 67.4261 1.59097L66.6103 1.08666L42.843 1.04333L19.0758 1L18.2018 1.43547ZM61.3728 12.0444L61.3279 20.4189L58.6708 23.0785L56.0138 25.7382L55.6219 25.3701L55.23 25.0019H45.3354H35.4408L35.055 25.3642C34.5462 25.8424 34.5352 26.7542 35.0317 27.2828L35.3941 27.6684H44.7356H54.077L52.7516 29.0017L51.4262 30.3349H46.1C40.8608 30.3349 40.7675 30.341 40.388 30.6973C40.0105 31.0521 40.0024 31.1279 40.0024 34.3114C40.0024 38.4518 39.9317 38.3345 42.4274 38.3345H44.1278L43.6188 39.6677L43.1098 41.001H33.9422H24.7748L24.3889 41.3633C23.8801 41.8414 23.8691 42.7532 24.3656 43.2819L24.7281 43.6675H33.5931H42.4582L42.0994 44.9591L41.7408 46.2507L37.2545 46.2952C32.9196 46.338 32.7555 46.3517 32.3856 46.6992C31.8797 47.1745 31.87 48.0877 32.3651 48.6149C32.7251 48.998 32.7548 49.0005 36.8827 49.0005C40.6782 49.0005 41.0288 49.0244 40.9323 49.2758C40.8741 49.4273 40.707 50.0273 40.5608 50.6091L40.2952 51.667H32.535C24.7967 51.667 24.7736 51.668 24.3889 52.0293C23.8801 52.5075 23.8691 53.4193 24.3656 53.9479L24.7281 54.3335H33.2244H41.7208L47.9027 52.65C51.3029 51.7239 54.527 50.7873 55.0673 50.5686C56.6142 49.9423 57.6168 49.222 59.5429 47.3531L61.3344 45.6146V52.6406V59.6666H40.0024H18.6703L18.6728 32.2932C18.6746 10.6713 18.7191 4.83294 18.8843 4.50646C18.9994 4.27914 19.2796 3.99899 19.5069 3.88383C19.8317 3.71951 24.3609 3.67418 40.669 3.67218L61.4178 3.66968L61.3728 12.0444ZM66.2363 4.17731C66.4491 4.38164 66.5806 4.79095 66.632 5.40991L66.7088 6.33635H65.3549H64.001L64.0035 5.62806C64.0091 3.98899 65.2202 3.20204 66.2363 4.17731ZM24.3656 9.38851C24.0076 9.76965 24.0033 9.84548 24.0033 15.6925V21.6106L24.3889 21.9731C24.7729 22.3336 24.8102 22.3354 32.0262 22.3354H39.2776L39.64 21.9498C39.998 21.5686 40.0024 21.4928 40.0024 15.6458V9.72766L39.6167 9.36518C39.2327 9.0047 39.1954 9.00286 31.9795 9.00286H24.7281L24.3656 9.38851ZM45.6977 9.38851C45.2012 9.91715 45.2122 10.8289 45.721 11.3071C46.0978 11.6609 46.2137 11.6694 50.6917 11.6694C55.2688 11.6694 55.2773 11.6687 55.6391 11.2837C56.1356 10.7551 56.1246 9.84332 55.6158 9.36518C55.239 9.01136 55.1231 9.00286 50.6451 9.00286C46.068 9.00286 46.0595 9.00353 45.6977 9.38851ZM37.3358 15.6691V19.6689H32.0028H26.6698V15.6691V11.6694H32.0028H37.3358V15.6691ZM43.0312 14.7215C42.5347 15.2502 42.5457 16.1619 43.0545 16.6401C43.4357 16.9981 43.5115 17.0024 49.3585 17.0024H55.2766L55.6391 16.6168C56.1356 16.0881 56.1246 15.1763 55.6158 14.6982C55.2346 14.3402 55.1588 14.3359 49.3118 14.3359H43.3937L43.0312 14.7215ZM71.737 17.5725C72.6083 18.0878 76.5306 22.0684 76.9225 22.8354C77.3853 23.7408 77.3225 25.1238 76.776 26.0562C76.5306 26.4752 76.2469 26.869 76.1461 26.9315C75.9769 27.036 67.3341 18.5765 67.3341 18.3065C67.3341 18.1205 68.3299 17.4659 68.9815 17.2236C69.7748 16.9284 70.8857 17.0692 71.737 17.5725ZM43.0312 20.0546C42.5347 20.5832 42.5457 21.495 43.0545 21.9731C43.4357 22.3311 43.5115 22.3354 49.3585 22.3354H55.2766L55.6391 21.9498C56.1356 21.4211 56.1246 20.5094 55.6158 20.0312C55.2346 19.6732 55.1588 19.6689 49.3118 19.6689H43.3937L43.0312 20.0546ZM69.7489 24.667L74.0779 28.9982L73.7037 29.3725L73.3296 29.7467L68.9653 25.3826C64.6431 21.0602 64.6042 21.0152 64.9102 20.677C65.0802 20.4892 65.2644 20.3355 65.3195 20.3355C65.3747 20.3355 67.3679 22.2846 69.7489 24.667ZM16.0038 23.651V24.9666L14.6992 25.0259C13.0618 25.1004 12.0268 25.6671 11.2584 26.9098L10.7541 27.7256L10.7102 46.3625L10.6664 64.9996H9.33532H8.00423V45.5311C8.00423 23.572 7.92857 24.9021 9.25183 23.5788C10.2499 22.5807 11.0592 22.3614 13.7956 22.3471L16.0038 22.3354V23.651ZM63.4213 23.6725L64.0761 24.343L57.3733 31.0457L50.6706 37.7485L49.9628 37.0407L49.255 36.3329L55.9189 29.6675C59.584 26.0015 62.6242 23.002 62.6747 23.002C62.7254 23.002 63.0613 23.3037 63.4213 23.6725ZM27.0321 25.3876C26.5356 25.9162 26.5466 26.828 27.0555 27.3061C27.4054 27.6348 27.6194 27.6684 29.3596 27.6684C31.1495 27.6684 31.3024 27.6426 31.6405 27.2828C32.137 26.7542 32.126 25.8424 31.6172 25.3642C31.2672 25.0356 31.0532 25.0019 29.313 25.0019C27.5231 25.0019 27.3703 25.0278 27.0321 25.3876ZM67.0866 27.3376L68.0786 28.3401L61.3741 35.0445L54.6695 41.749L53.6286 40.708L52.5875 39.6669L59.2517 33.001C62.917 29.3348 65.9562 26.3352 66.0053 26.3352C66.0543 26.3352 66.541 26.7863 67.0866 27.3376ZM16.0038 44.6151V61.5616L16.3661 61.9474L16.7286 62.3331H39.979H63.2295L63.6153 61.9708L64.001 61.6083V52.259V42.9097L65.3342 41.5843L66.6675 40.2589V52.6291V64.9996H40.0024H13.3373L13.3398 46.959C13.3416 32.8231 13.3874 28.8289 13.5512 28.5051C13.8271 27.9601 14.4254 27.6739 15.2955 27.6709L16.0038 27.6684V44.6151ZM24.3656 30.7206C23.8691 31.2492 23.8801 32.161 24.3889 32.6391C24.7701 32.9971 24.8459 33.0015 30.6929 33.0015H36.6111L36.9735 32.6158C37.47 32.0872 37.459 31.1754 36.9502 30.6973C36.5691 30.3393 36.4932 30.3349 30.6462 30.3349H24.7281L24.3656 30.7206ZM70.7542 31.0054L71.409 31.6759L64.7062 38.3786L58.0035 45.0814L57.2957 44.3736L56.5879 43.6658L63.2518 37.0004C66.917 33.3344 69.9571 30.3349 70.0076 30.3349C70.0583 30.3349 70.3942 30.6366 70.7542 31.0054ZM47.4186 34.3347L46.0932 35.668H44.3809H42.6689V34.3347V33.0015H45.7065H48.744L47.4186 34.3347ZM72.0005 50.0005V64.9996H70.6672H69.334V51.2957V37.5919L70.6217 36.2966C71.3299 35.5841 71.9298 35.0013 71.955 35.0013C71.98 35.0013 72.0005 41.7509 72.0005 50.0005ZM24.3656 36.0536C23.8691 36.5822 23.8801 37.494 24.3889 37.9722C24.7701 38.3302 24.8459 38.3345 30.6929 38.3345H36.6111L36.9735 37.9488C37.47 37.4202 37.459 36.5084 36.9502 36.0303C36.5691 35.6723 36.4932 35.668 30.6462 35.668H24.7281L24.3656 36.0536ZM55.4223 47.2801C54.6968 47.7731 53.5481 48.2221 51.6393 48.7587L50.1084 49.1892L47.6359 46.7167L45.1634 44.2441L45.676 42.4186C46.1483 40.7363 46.5818 39.6682 47.1813 38.7093C47.4099 38.3435 47.5233 38.4415 51.7002 42.6161L55.9846 46.898L55.4223 47.2801ZM24.3656 46.7197C23.8691 47.2483 23.8801 48.1601 24.3889 48.6382C24.7389 48.9669 24.9529 49.0005 26.6931 49.0005C28.483 49.0005 28.6359 48.9747 28.974 48.6149C29.4705 48.0862 29.4595 47.1745 28.9507 46.6963C28.6007 46.3677 28.3867 46.334 26.6465 46.334C24.8566 46.334 24.7038 46.3598 24.3656 46.7197ZM46.8748 50.01C46.7278 50.1356 43.4575 51.0112 43.3893 50.9431C43.3472 50.9009 44.0575 48.1234 44.2669 47.5111C44.3229 47.3475 44.7674 47.6878 45.6732 48.5884C46.4015 49.3125 46.9423 49.9521 46.8748 50.01ZM29.3098 69.422C30.4006 71.572 30.8346 72.1027 31.9127 72.6046L32.7528 72.9958H40.0024H47.2519L48.092 72.6046C49.1702 72.1027 49.6041 71.572 50.6949 69.422L51.585 67.6676L64.3759 67.6669C71.4109 67.6664 77.1668 67.7274 77.1668 67.8024C77.1668 67.8776 77.0459 68.3462 76.8982 68.844C75.9649 71.9878 73.6589 74.2734 70.4086 75.2765C69.4628 75.5683 68.0669 75.5823 40.0024 75.5823H10.5874L9.42082 75.2127C6.294 74.222 4.02313 71.9315 3.10652 68.844C2.95886 68.3462 2.83787 67.8776 2.83787 67.8024C2.83787 67.7274 8.5937 67.6664 15.6288 67.6669L28.4197 67.6676L29.3098 69.422ZM48.3352 67.7543C48.3352 68.0609 47.2769 69.8546 46.9686 70.0706C46.6436 70.2981 45.7267 70.3326 40.0024 70.3326C34.278 70.3326 33.3611 70.2981 33.0361 70.0706C32.7278 69.8546 31.6695 68.0609 31.6695 67.7543C31.6695 67.7058 35.4193 67.6661 40.0024 67.6661C44.5854 67.6661 48.3352 67.7058 48.3352 67.7543Z" fill="#FF7D61"/>
</g>
<defs>
<clipPath id="clip0_2009_77">
<rect width="80" height="80" fill="white"/>
</clipPath>
</defs>
</svg>
