<svg width="80" height="80" viewBox="0 0 80 80" fill="none" xmlns="http://www.w3.org/2000/svg">
<g id="Frame 5" clip-path="url(#clip0_2009_95)">
<path id="infinite 1 (Traced)" fill-rule="evenodd" clip-rule="evenodd" d="M16.9376 7.26392C14.0827 8.32203 12.3261 11.0463 12.5541 14.0615L12.6381 15.1721L11.9626 15.1184C10.7352 15.0206 9.60362 15.4777 8.60754 16.4738C7.51819 17.5631 7.13466 18.5414 7.2273 19.9946C7.30088 21.1513 7.70831 22.0008 8.7861 23.2448L9.55676 24.1344L8.57379 24.7913C7.28776 25.6508 4.26108 28.716 3.76335 29.6628C3.3981 30.3577 3.38841 30.4338 3.61275 30.8345C3.93301 31.4064 4.5579 31.7003 5.05313 31.5121C5.26278 31.4322 5.79363 30.9156 6.23278 30.3637C7.25167 29.0834 8.94389 27.4862 10.1484 26.6683C10.6656 26.317 11.1348 26.0297 11.1909 26.0297C11.2471 26.0297 11.7958 26.5527 12.4102 27.1922C14.308 29.1667 14.8103 29.0537 17.571 26.03C18.591 24.9128 19.4809 23.9988 19.5484 23.9988C19.6159 23.9988 20.1869 24.5517 20.8172 25.2273C22.0492 26.5479 22.6828 26.967 23.4476 26.967C24.1906 26.967 24.8462 26.5565 25.8376 25.4704L26.7436 24.4781L27.5142 24.7818C31.065 26.1814 34.9435 28.9906 37.685 32.1487L38.4536 33.0341L36.1628 36.1813C34.9027 37.9121 33.8222 39.2712 33.7618 39.2014C33.7013 39.1316 33.2364 38.5131 32.7287 37.8269C29.3792 33.3007 25.2755 30.9943 20.5574 30.9867C18.4896 30.9834 17.3137 31.2618 15.5682 32.1685C11.6714 34.1924 9.37741 38.6018 10.0136 42.8455C10.9032 48.782 16.2911 52.6938 22.369 51.8163C25.0489 51.4294 27.3488 50.3594 29.5645 48.4689C31.145 47.1202 32.1272 45.8981 36.7999 39.4649C42.033 32.2602 43.2539 30.8328 46.1781 28.5008C52.5164 23.4457 59.8494 22.1299 66.5215 24.85C68.732 25.7513 70.3466 26.8535 72.2622 28.7689C74.1788 30.6856 75.3345 32.3791 76.2042 34.545C77.975 38.9553 78.0506 43.1634 76.442 47.7876C76.0502 48.9143 76.0367 49.0329 76.2573 49.4259C76.7671 50.3341 77.938 50.2894 78.4184 49.3436C79.3551 47.4999 79.999 44.2649 80 41.3992C80.0031 31.975 73.6064 23.8704 64.3465 21.5664C62.1225 21.013 58.749 20.8821 56.3327 21.2556C51.174 22.0529 46.3273 24.6866 41.9063 29.0954L39.9778 31.0185L38.7038 29.6692C36.2565 27.078 33.2305 24.8168 30.2433 23.3476C29.3841 22.9251 28.6915 22.5407 28.7043 22.4937C28.7171 22.4469 29.6631 21.3609 30.8063 20.0808C33.2775 17.314 33.664 16.7651 34.0727 15.4419C35.0405 12.3085 33.5517 8.97926 30.5164 7.48935C29.6893 7.08333 29.4764 7.04849 27.8218 7.04849C26.1118 7.04849 25.9764 7.0727 25.0098 7.55231C24.4513 7.82945 23.8712 8.14549 23.721 8.25454C23.4999 8.41482 23.3952 8.41482 23.1742 8.25454C23.0237 8.14549 22.4438 7.83133 21.8853 7.55637C20.9816 7.1116 20.698 7.05161 19.3076 7.01053C18.0699 6.97397 17.5776 7.02662 16.9376 7.26392ZM20.9108 9.76475C21.232 9.92926 21.77 10.2833 22.1065 10.5515C23.1475 11.3815 23.7477 11.3815 24.7886 10.5515C25.924 9.64633 26.5541 9.40106 27.7437 9.40138C30.1505 9.40216 31.8768 11.1272 31.8768 13.5318C31.8768 15.2196 31.6209 15.6032 27.4661 20.1436C26.43 21.2758 25.0963 22.7017 24.5025 23.3119L23.4227 24.4217L22.2788 23.2208L21.1351 22.02L21.4488 21.0957C22.1829 18.9321 21.2009 16.6389 19.0733 15.5486C18.3267 15.1659 16.6107 15.0375 15.7731 15.3013C15.405 15.4172 15.3448 15.3788 15.1872 14.9265C14.8674 14.0095 14.9679 12.5869 15.4158 11.6882C16.4301 9.65258 18.9619 8.76633 20.9108 9.76475ZM13.226 18.1404C14.2878 18.8954 14.5433 18.8771 15.9613 17.9457C16.5903 17.5327 17.4784 17.488 18.1506 17.8356C19.1466 18.3505 19.539 19.829 18.9363 20.7962C18.5265 21.4539 14.5383 25.743 14.3895 25.686C14.1393 25.5901 10.156 21.1471 9.93232 20.7145C9.62581 20.1216 9.63612 19.0038 9.95247 18.5523C10.3441 17.9931 11.1206 17.5949 11.8204 17.5942C12.2977 17.5938 12.6492 17.7303 13.226 18.1404ZM57.973 31.0265C53.7284 31.5589 50.4007 33.7003 47.1656 37.9808C46.776 38.4964 44.6745 41.3787 42.4955 44.386C39.0656 49.1197 38.2604 50.1291 36.4976 51.9041C33.6268 54.7949 31.2673 56.4763 28.2664 57.7702C21.0314 60.8893 13.0396 59.4938 7.78205 54.1931C6.12264 52.5203 5.30934 51.3936 4.31076 49.3852C2.06488 44.8681 1.82039 39.8285 3.61165 34.9757C3.95254 34.0519 3.86177 33.5683 3.26984 33.1537C2.32062 32.4888 1.66948 33.044 0.997873 35.0907C-1.22676 41.8702 0.332515 49.5151 5.03329 54.8763C8.96717 59.3626 14.3969 61.82 20.4012 61.8312C26.8806 61.8434 32.4415 59.3276 38.0154 53.8625L40.0073 51.9096L41.9991 53.8602C43.5162 55.3457 45.899 57.3505 46.531 57.6732C46.5532 57.6846 46.3423 58.1381 46.0624 58.681C45.5917 59.5936 45.5532 59.7814 45.5532 61.1662C45.5532 63.5906 45.6215 63.6989 50.5009 69.0092C52.1284 70.7805 53.6352 72.3096 53.8492 72.4071C54.0632 72.5046 54.5689 72.5857 54.9731 72.5872C55.7072 72.59 55.7094 72.5885 57.4875 70.7516C60.42 67.7224 63.1223 64.6187 63.5332 63.8079C63.7455 63.3888 63.988 62.6842 64.0717 62.2421C64.1556 61.8 64.2412 61.4236 64.2621 61.4057C64.2831 61.3878 64.9122 61.1877 65.6602 60.9612C68.3127 60.1579 71.377 58.3698 73.6317 56.3096C74.9371 55.1169 76.4075 53.208 76.4075 52.7059C76.4075 52.0749 76.175 51.7088 75.6601 51.5293C75.0582 51.3195 74.514 51.5756 73.9091 52.3534C73.001 53.5212 71.043 55.3973 69.9349 56.1612C68.1609 57.3844 66.6074 58.1011 63.9584 58.9184C63.8563 58.9498 63.5977 58.6767 63.3835 58.3113C62.8747 57.443 61.7173 56.3863 60.8594 56.0069C59.1441 55.2481 57.4355 55.3051 55.7272 56.1781L54.8092 56.6472L53.6542 56.0764C52.6538 55.5819 52.3482 55.5048 51.3696 55.4996C50.6903 55.496 49.8841 55.6074 49.3473 55.7788L48.4548 56.0639L47.172 55.1459C45.8851 54.2251 42.4456 51.036 41.8748 50.2342L41.57 49.8062L43.7746 46.7837C44.9871 45.1212 46.0275 43.7083 46.0867 43.6436C46.146 43.5791 46.5 43.9597 46.8736 44.4894C49.4381 48.1257 52.6656 50.6045 56.0202 51.5139C57.0027 51.7802 57.7212 51.8543 59.3791 51.8602C61.2584 51.8669 61.6246 51.8224 62.7411 51.4511C66.6317 50.1575 69.3963 46.8806 70.001 42.8455C70.6372 38.6018 68.3432 34.1924 64.4463 32.1685C62.4595 31.1365 60.2308 30.7433 57.973 31.0265ZM23.3694 33.7603C26.2868 34.5412 29.0794 36.7846 31.5639 40.3429L32.3467 41.4641L31.1431 43.0812C27.8489 47.5075 24.642 49.4541 20.6321 49.4609C18.1391 49.4653 16.2185 48.6433 14.5378 46.8523C10.3512 42.391 12.5609 35.1319 18.5706 33.6044C19.6694 33.325 22.0295 33.4017 23.3694 33.7603ZM61.3725 33.6075C65.623 34.6097 68.3671 38.8655 67.4863 43.0895C67.2132 44.3991 66.466 45.7981 65.4768 46.8523C63.7961 48.6433 61.8755 49.4653 59.3825 49.4609C55.3732 49.4541 52.1656 47.5075 48.8725 43.0828L47.6701 41.4671L48.2928 40.5502C50.3929 37.4576 52.9054 35.1993 55.3519 34.2052C57.3081 33.4102 59.5796 33.1847 61.3725 33.6075ZM52.2085 58.075C52.5005 58.1715 52.9856 58.4413 53.2863 58.6744C54.5158 59.6278 55.099 59.6586 56.1368 58.8247C56.4611 58.5639 56.9695 58.2491 57.2666 58.1251C59.2933 57.2782 61.7155 58.9415 61.7155 61.1801C61.7155 62.5159 61.2237 63.1938 56.7992 67.9567L54.8233 70.0837L53.6883 68.8736C50.6869 65.6731 48.5454 63.2349 48.274 62.7095C47.9394 62.0615 47.8724 60.6908 48.1405 59.9795C48.7062 58.4791 50.6616 57.5636 52.2085 58.075Z" fill="#FF7D61"/>
</g>
<defs>
<clipPath id="clip0_2009_95">
<rect width="80" height="80" fill="white"/>
</clipPath>
</defs>
</svg>
