<svg width="80" height="80" viewBox="0 0 80 80" fill="none" xmlns="http://www.w3.org/2000/svg">
<g id="Frame 5" clip-path="url(#clip0_2009_83)">
<path id="copywriting 1 (Traced)" fill-rule="evenodd" clip-rule="evenodd" d="M1.75696 0.472205C1.15428 0.817843 0.814889 1.15723 0.469251 1.75991L1.52588e-05 2.57822V40.0015V77.4247L0.469251 78.2431C0.814889 78.8457 1.15428 79.1851 1.75696 79.5308L2.57527 80L33.2795 79.9981C62.7713 79.9962 64.0088 79.9847 64.6176 79.7083C65.4449 79.3325 66.329 78.2854 66.5458 77.4246C66.6406 77.0477 66.7183 75.8917 66.7183 74.8554V72.9715L71.9919 72.968C76.7716 72.9649 77.3241 72.9377 77.8906 72.6779C78.6862 72.3128 79.3414 71.6577 79.7064 70.862C79.9767 70.2726 79.9933 69.5301 79.9966 57.8487C80.0003 44.3054 80.0353 44.8471 79.0933 43.8544C78.8615 43.6104 78.3906 43.2588 78.0468 43.0732C77.4466 42.7494 77.2088 42.7341 72.07 42.6892L66.7183 42.6425V22.8629C66.7183 8.30406 66.6705 2.92355 66.5369 2.4779C66.2947 1.66928 65.3978 0.649087 64.6176 0.294698C64.0325 0.0289073 63.4461 0.00656274 56.9843 0.00343763L49.9847 0L49.6012 0.383608C49.1412 0.843625 49.1101 1.39521 49.5162 1.89679L49.8147 2.26571L56.6877 2.34384C63.1663 2.41743 63.5796 2.439 63.8894 2.71963C64.2057 3.00605 64.2182 3.1559 64.2182 6.66509V10.3129H33.2795H2.34088V6.8826C2.34088 3.23887 2.4112 2.81682 3.06857 2.51728C3.3417 2.3929 9.39599 2.34384 24.4656 2.34384H45.4817L45.8652 1.96023C46.3541 1.47146 46.3541 0.872376 45.8652 0.383608L45.4817 0L24.0284 0.0014063L2.57527 0.00296886L1.75696 0.472205ZM50.1139 5.35176C49.6829 5.67912 49.5383 6.28445 49.7633 6.81963C50.2628 8.00748 52.1865 7.60013 52.1865 6.30648C52.1865 5.39145 50.8639 4.78221 50.1139 5.35176ZM54.7044 5.42989C54.2019 5.84709 54.1259 6.56009 54.5294 7.07307C54.8036 7.42168 54.9906 7.50028 55.546 7.50028C56.0951 7.50028 56.289 7.42074 56.5502 7.08854C56.9799 6.54243 56.9593 6.00866 56.4905 5.54005C56.0288 5.07816 55.1902 5.02644 54.7044 5.42989ZM59.2891 5.54005C58.8203 6.00866 58.7997 6.54243 59.2294 7.08854C59.4907 7.42074 59.6846 7.50028 60.2337 7.50028C60.789 7.50028 60.976 7.42168 61.2503 7.07307C62.2067 5.85709 60.3912 4.43782 59.2891 5.54005ZM64.2182 27.7334V42.6538L41.1314 42.6949L18.0446 42.736L17.4196 43.0732C17.0758 43.2588 16.6049 43.6104 16.3731 43.8544C15.4311 44.8471 15.4661 44.3054 15.4698 57.8487C15.4731 69.5301 15.4897 70.2726 15.76 70.862C16.125 71.6577 16.7802 72.3128 17.5758 72.6779C18.173 72.9518 19.2262 72.9647 41.2095 72.968L64.2182 72.9715V74.9786C64.2182 76.8205 64.1911 77.0102 63.8893 77.2833C63.5686 77.5735 62.8114 77.5821 33.5366 77.6219C12.3094 77.651 3.3928 77.6135 3.10341 77.4943C2.87825 77.4015 2.61449 77.1511 2.51745 76.938C2.38807 76.6541 2.34088 68.0344 2.34088 44.6818V12.813H33.2795H64.2182V27.7334ZM8.12141 18.4279C6.96949 18.7784 6.28728 19.376 5.79164 20.4695C5.51647 21.0766 5.47241 21.4958 5.46944 23.5382C5.46569 26.1727 5.56553 26.4763 6.49526 26.6555C6.86965 26.7277 7.0795 26.661 7.43279 26.3574L7.88796 25.9661L7.96609 23.5954C8.03578 21.4808 8.07703 21.2008 8.34751 21.0033C8.59877 20.82 9.87913 20.782 15.7975 20.782H22.944L23.2678 21.1938C23.5845 21.5964 23.5917 21.7602 23.5917 28.6229V35.6405L23.2081 36.024L22.8246 36.4076H15.7378C9.87054 36.4076 8.59862 36.3695 8.34751 36.1862C8.07266 35.9857 8.03688 35.7055 7.96609 33.2036L7.88796 30.4421L7.43279 30.051C7.0795 29.7474 6.86965 29.6806 6.49526 29.7528C5.54225 29.9366 5.466 30.1969 5.466 33.269C5.466 35.9426 5.47959 36.061 5.87773 36.86C6.37666 37.8611 7.21903 38.5121 8.32923 38.7546C8.88488 38.8758 11.3628 38.9152 16.2477 38.8803C23.1846 38.8308 23.3724 38.8214 23.9823 38.4924C24.78 38.0619 25.385 37.423 25.6928 36.686C25.901 36.1876 25.935 35.0332 25.9321 28.5607C25.9289 21.5697 25.9075 20.97 25.6408 20.3826C25.265 19.5553 24.2179 18.6712 23.3571 18.4544C22.5707 18.2565 8.76409 18.2324 8.12141 18.4279ZM29.8977 21.4039C29.4605 21.5827 29.0606 22.1639 29.0606 22.6208C29.0606 22.8205 29.2333 23.1563 29.4442 23.3673L29.8277 23.7509H40.2329H50.6381L51.0216 23.3673C51.5074 22.8816 51.5096 22.3272 51.0282 21.7674L50.6511 21.3289L40.4418 21.298C34.8268 21.2811 30.0819 21.3288 29.8977 21.4039ZM54.1173 21.3997C53.6784 21.5847 53.2803 22.1657 53.2803 22.6208C53.2803 22.8205 53.4529 23.1563 53.6639 23.3673C54.0462 23.7498 54.0569 23.7509 57.2187 23.7459C59.5727 23.7423 60.4588 23.6885 60.6573 23.5379C61.0479 23.241 61.2656 22.5638 61.1054 22.1429C60.8143 21.3769 60.617 21.3313 57.4365 21.2936C55.7951 21.2742 54.3016 21.3219 54.1173 21.3997ZM10.381 22.8844C10.0313 23.234 9.99742 23.3907 9.99742 24.654C9.99742 25.901 10.0338 26.0744 10.359 26.38C11.1254 27.0999 12.2203 26.6643 12.4281 25.5566L12.5324 25.0009H13.5305H14.5288V28.5948V32.1887H14.0812C13.8349 32.1887 13.4482 32.3345 13.2218 32.5126C12.7183 32.9086 12.6667 33.6956 13.1083 34.2417C13.3913 34.5916 13.5169 34.6133 15.539 34.6621C17.8571 34.7178 18.2655 34.6072 18.6206 33.8281C18.9562 33.0915 18.2477 32.1887 17.3341 32.1887C17.0402 32.1887 17.0289 32.0557 17.0289 28.5948V25.0009H18.0446H19.0603V25.5206C19.0603 26.1883 19.6014 26.7197 20.2812 26.7197C21.253 26.7197 21.6854 25.7938 21.5103 24.0871C21.4396 23.3957 21.3314 23.1276 21.0127 22.8524C20.6089 22.5038 20.5628 22.5008 15.685 22.5008H10.7645L10.381 22.8844ZM29.4442 27.7284C29.0252 28.1473 28.967 28.5311 29.2341 29.1172C29.5477 29.8053 29.8744 29.8449 35.2521 29.8449H40.3351L40.7918 29.3881C41.2889 28.8911 41.34 28.6539 41.0751 28.0724C40.7611 27.3834 40.4385 27.3448 34.9838 27.3448H29.8277L29.4442 27.7284ZM43.3791 27.6687C42.8755 28.0648 42.8241 28.8519 43.266 29.3978L43.5646 29.7667L51.9249 29.8097L60.2852 29.8528L60.7152 29.483C61.3035 28.9769 61.3056 28.2145 60.7198 27.7107L60.2943 27.3448H52.0426C43.931 27.3448 43.7838 27.3502 43.3791 27.6687ZM29.3845 33.8505C29.2064 34.0769 29.0606 34.4189 29.0606 34.6107C29.0606 34.8024 29.2064 35.1444 29.3845 35.3708L29.7083 35.7826H44.9973C53.4062 35.7826 60.4001 35.7388 60.5391 35.6855C60.6784 35.6321 60.9006 35.3788 61.0331 35.1226C61.2312 34.7393 61.2403 34.5753 61.084 34.198C60.9795 33.9458 60.7676 33.6717 60.6132 33.5891C60.4388 33.4958 54.5239 33.4387 45.0203 33.4387H29.7083L29.3845 33.8505ZM77.2804 45.4868C77.5668 45.8033 77.5796 46.265 77.6199 57.7409L77.6618 69.666L77.2819 70.1078L76.9019 70.5495H47.7332H18.5645L18.1844 70.1078L17.8046 69.666L17.8465 57.7409C17.8868 46.265 17.8996 45.8033 18.186 45.4868L18.4837 45.1579H47.7332H76.9827L77.2804 45.4868ZM20.5377 47.7291L20.154 48.1126V57.8584V67.6042L20.5156 67.9441L20.8774 68.2838H36.4365C51.025 68.2838 52.0162 68.2668 52.3249 68.0103C52.8274 67.5931 52.9034 66.8801 52.4999 66.3671L52.1638 65.9399H43.9716H35.7796V64.0649V62.1898H47.7332H59.6868V64.0649V65.9399H58.0575C56.4684 65.9399 56.4198 65.9506 56.0919 66.3671C55.6885 66.8801 55.7644 67.5931 56.2669 68.0103C56.5723 68.2638 57.2554 68.2838 65.6145 68.2838H74.6328L74.9726 67.9222L75.3123 67.5605V57.8365V48.1126L74.9287 47.7291L74.5453 47.3455H47.7332H20.9211L20.5377 47.7291ZM26.7168 51.7207V53.5957H24.6073H22.4979V51.7207V49.8456H24.6073H26.7168V51.7207ZM33.2795 51.7207V53.5957H31.2482H29.2169V51.7207V49.8456H31.2482H33.2795V51.7207ZM39.8423 51.7207V53.5957H37.811H35.7796V51.7207V49.8456H37.811H39.8423V51.7207ZM46.5613 51.7207V53.5957H44.4518H42.3424V51.7207V49.8456H44.4518H46.5613V51.7207ZM53.124 51.7207V53.5957H51.0146H48.9051V51.7207V49.8456H51.0146H53.124V51.7207ZM59.6868 51.7207V53.5957H57.6554H55.6241V51.7207V49.8456H57.6554H59.6868V51.7207ZM66.2495 51.7207V53.5957H64.2182H62.1869V51.7207V49.8456H64.2182H66.2495V51.7207ZM72.9685 51.7207V53.5957H70.859H68.7496V51.7207V49.8456H70.859H72.9685V51.7207ZM5.84961 53.0418C5.38084 53.5104 5.36021 54.0442 5.78992 54.5903L6.11368 55.002H9.3838C12.4455 55.002 12.6736 54.9822 12.9663 54.6895C13.4015 54.2544 13.3775 53.4306 12.9172 52.9979C12.5705 52.6723 12.4249 52.6582 9.39427 52.6582C6.24634 52.6582 6.2315 52.6598 5.84961 53.0418ZM26.7168 57.8146V59.6897H24.6073H22.4979V57.8146V55.9396H24.6073H26.7168V57.8146ZM33.2795 57.8146V59.6897H31.2482H29.2169V57.8146V55.9396H31.2482H33.2795V57.8146ZM39.8423 57.8146V59.6897H37.811H35.7796V57.8146V55.9396H37.811H39.8423V57.8146ZM46.5613 57.8146V59.6897H44.4518H42.3424V57.8146V55.9396H44.4518H46.5613V57.8146ZM53.124 57.8146V59.6897H51.0146H48.9051V57.8146V55.9396H51.0146H53.124V57.8146ZM59.6868 57.8146V59.6897H57.6554H55.6241V57.8146V55.9396H57.6554H59.6868V57.8146ZM66.2495 57.8146V59.6897H64.2182H62.1869V57.8146V55.9396H64.2182H66.2495V57.8146ZM72.9685 57.8146V59.6897H70.859H68.7496V57.8146V55.9396H70.859H72.9685V57.8146ZM6.2615 58.7662C5.4099 59.1067 5.20615 60.0691 5.84961 60.7124C6.23103 61.094 6.24931 61.096 9.34427 61.096C12.2552 61.096 12.4819 61.0752 12.8671 60.7721C13.1396 60.5579 13.2788 60.2979 13.2788 60.0036C13.2788 58.7389 12.8775 58.5936 9.41927 58.6058C7.88953 58.6112 6.46854 58.6834 6.2615 58.7662ZM26.7168 64.0649V65.9399H24.6073H22.4979V64.0649V62.1898H24.6073H26.7168V64.0649ZM33.2795 64.0649V65.9399H31.2482H29.2169V64.0649V62.1898H31.2482H33.2795V64.0649ZM66.2495 64.0649V65.9399H64.2182H62.1869V64.0649V62.1898H64.2182H66.2495V64.0649ZM72.9685 64.0649V65.9399H70.859H68.7496V64.0649V62.1898H70.859H72.9685V64.0649ZM5.84961 65.0735C5.16974 65.7532 5.50506 66.8808 6.45822 67.12C6.65542 67.1694 8.13641 67.1878 9.74928 67.1609C12.615 67.113 12.6888 67.1034 12.9803 66.7429C13.4221 66.1968 13.3705 65.4098 12.8671 65.0138C12.4819 64.7107 12.2552 64.6899 9.34427 64.6899C6.24931 64.6899 6.23103 64.6919 5.84961 65.0735Z" fill="#FF7D61"/>
</g>
<defs>
<clipPath id="clip0_2009_83">
<rect width="80" height="80" fill="white"/>
</clipPath>
</defs>
</svg>
