<svg width="80" height="80" viewBox="0 0 80 80" fill="none" xmlns="http://www.w3.org/2000/svg">
<g clip-path="url(#clip0_2009_304)">
<path d="M73.3333 13.64V62.6666C73.3312 63.3732 73.0496 64.0503 72.5499 64.5499C72.0503 65.0496 71.3732 65.3312 70.6666 65.3333H45.3333C43.9188 65.3333 42.5623 65.8952 41.5621 66.8954C40.5619 67.8956 40 69.2521 40 70.6666C40 69.2521 39.4381 67.8956 38.4379 66.8954C37.4377 65.8952 36.0811 65.3333 34.6666 65.3333H9.33329C8.6267 65.3312 7.94965 65.0496 7.45001 64.5499C6.95037 64.0503 6.66874 63.3732 6.66663 62.6666V9.33329C6.66874 8.6267 6.95037 7.94965 7.45001 7.45001C7.94965 6.95037 8.6267 6.66874 9.33329 6.66663H34.6666C36.0811 6.66663 37.4377 7.22853 38.4379 8.22872C39.4381 9.22892 40 10.5855 40 12C40 10.5855 40.5619 9.22892 41.5621 8.22872C42.5623 7.22853 43.9188 6.66663 45.3333 6.66663H66.36L47.9066 25.12C47.7587 25.2816 47.6249 25.4555 47.5066 25.64C47.4117 25.8228 47.3357 26.0149 47.28 26.2133L45.3733 33.0666C45.3166 33.2825 45.3174 33.5094 45.3757 33.7248C45.434 33.9402 45.5477 34.1366 45.7055 34.2944C45.8633 34.4522 46.0597 34.5659 46.2751 34.6242C46.4905 34.6825 46.7175 34.6833 46.9333 34.6266L53.8 32.7333C53.9974 32.6811 54.186 32.6002 54.36 32.4933C54.5504 32.3838 54.7253 32.2492 54.88 32.0933L73.3333 13.64Z" fill="#171B22"/>
<path d="M38 66.5333C38.622 67.0282 39.1247 67.6567 39.4709 68.3721C39.8171 69.0876 39.9979 69.8718 40 70.6666C40 69.2522 40.5619 67.8956 41.5621 66.8954C42.5623 65.8952 43.9188 65.3333 45.3333 65.3333H41.3333C40.1172 65.3378 38.9399 65.7617 38 66.5333Z" fill="#FFDB59"/>
<path d="M69.3333 17.64V62.6666C69.3312 63.3732 69.0496 64.0503 68.5499 64.5499C68.0503 65.0495 67.3732 65.3312 66.6666 65.3333H70.6666C71.3732 65.3312 72.0503 65.0495 72.5499 64.5499C73.0496 64.0503 73.3312 63.3732 73.3333 62.6666V13.64L69.3333 17.64Z" fill="#FFDB59"/>
<path d="M78.6666 16V70.6667C78.6645 71.3732 78.3829 72.0503 77.8833 72.5499C77.3836 73.0496 76.7066 73.3312 76 73.3333H47.4266C46.8888 73.3455 46.3683 73.5256 45.938 73.8484C45.5076 74.1712 45.1889 74.6204 45.0266 75.1333C44.6541 76.1678 43.9715 77.0622 43.0719 77.6944C42.1723 78.3266 41.0995 78.6658 40 78.6658C38.9005 78.6658 37.8277 78.3266 36.9281 77.6944C36.0285 77.0622 35.3458 76.1678 34.9733 75.1333C34.811 74.6204 34.4924 74.1712 34.062 73.8484C33.6317 73.5256 33.1111 73.3455 32.5733 73.3333H3.99998C3.29338 73.3312 2.61633 73.0496 2.11669 72.5499C1.61705 72.0503 1.33542 71.3732 1.33331 70.6667V16C1.33542 15.2934 1.61705 14.6163 2.11669 14.1167C2.61633 13.6171 3.29338 13.3354 3.99998 13.3333H6.66665V62.6667C6.66876 63.3732 6.95039 64.0503 7.45003 64.5499C7.94967 65.0496 8.62672 65.3312 9.33331 65.3333H34.6666C36.0811 65.3333 37.4377 65.8952 38.4379 66.8954C39.4381 67.8956 40 69.2522 40 70.6667C40 69.2522 40.5619 67.8956 41.5621 66.8954C42.5623 65.8952 43.9188 65.3333 45.3333 65.3333H70.6666C71.3732 65.3312 72.0503 65.0496 72.5499 64.5499C73.0496 64.0503 73.3312 63.3732 73.3333 62.6667V13.64L73.64 13.3333H76C76.7066 13.3354 77.3836 13.6171 77.8833 14.1167C78.3829 14.6163 78.6645 15.2934 78.6666 16Z" fill="#FFDB59"/>
<path d="M76 13.3333H73.64L73.3333 13.64V13.7053C73.7366 13.9381 74.0718 14.2724 74.3057 14.675C74.5397 15.0776 74.6641 15.5344 74.6667 16V70.6666C74.6646 71.3732 74.3829 72.0503 73.8833 72.5499C73.3836 73.0496 72.7066 73.3312 72 73.3333H76C76.7066 73.3312 77.3836 73.0496 77.8833 72.5499C78.3829 72.0503 78.6646 71.3732 78.6667 70.6666V16C78.6646 15.2934 78.3829 14.6163 77.8833 14.1167C77.3836 13.6171 76.7066 13.3354 76 13.3333Z" fill="#FFDB59"/>
<path d="M64.8725 8.15399L68.3519 4.67461L75.3238 11.6466L71.8445 15.126L64.8725 8.15399Z" fill="#171B22"/>
<path d="M68.36 4.66663L66.36 6.66663L71.3333 11.64L69.8493 13.124L71.8533 15.12L75.3333 11.64L68.36 4.66663Z" fill="#FFDB59"/>
<path d="M71.8533 15.12L54.88 32.0933C54.7252 32.2492 54.5504 32.3838 54.36 32.4933L50.9333 29.0666L68.36 11.64L71.8533 15.12Z" fill="#171B22"/>
<path d="M54.36 32.4933C54.186 32.6002 53.9973 32.6811 53.8 32.7333L46.9333 34.6266C46.7175 34.6833 46.4905 34.6825 46.2751 34.6242C46.0597 34.5659 45.8633 34.4522 45.7055 34.2944C45.5477 34.1366 45.434 33.9402 45.3757 33.7248C45.3174 33.5094 45.3166 33.2825 45.3733 33.0666L47.28 26.2133C47.3357 26.0149 47.4117 25.8228 47.5066 25.64L54.36 32.4933Z" fill="#171B22"/>
<path d="M68.36 11.6399L50.9333 29.0666L47.5067 25.6399C47.6249 25.4555 47.7587 25.2816 47.9067 25.1199L64.88 8.14661L68.36 11.6399Z" fill="#171B22"/>
<path d="M77.96 9.0133L75.3333 11.64L68.36 4.66664L70.9733 2.0533C71.4377 1.59213 72.0655 1.33331 72.72 1.33331C73.3744 1.33331 74.0023 1.59213 74.4666 2.0533L77.96 5.54664C78.415 6.00882 78.67 6.63139 78.67 7.27997C78.67 7.92855 78.415 8.55112 77.96 9.0133Z" fill="#171B22"/>
<path d="M77.96 5.54664L74.4666 2.0533C74.0023 1.59213 73.3744 1.33331 72.72 1.33331C72.0655 1.33331 71.4376 1.59213 70.9733 2.0533L70.72 2.30664L73.96 5.54664C74.415 6.00882 74.67 6.63139 74.67 7.27997C74.67 7.92855 74.415 8.55112 73.96 9.0133L73.3333 9.63997L75.3333 11.64L77.96 9.0133C78.415 8.55112 78.67 7.92855 78.67 7.27997C78.67 6.63139 78.415 6.00882 77.96 5.54664Z" fill="#FFDB59"/>
<path d="M7.99998 73.3333H3.99998C3.29338 73.3312 2.61633 73.0496 2.11669 72.5499C1.61705 72.0503 1.33542 71.3732 1.33331 70.6666V16C1.33542 15.2934 1.61705 14.6163 2.11669 14.1167C2.61633 13.6171 3.29338 13.3354 3.99998 13.3333H6.66665V13.6933C6.26166 13.9271 5.92529 14.2633 5.69126 14.6682C5.45724 15.0731 5.33379 15.5323 5.33331 16V70.6666C5.33542 71.3732 5.61705 72.0503 6.11669 72.5499C6.61633 73.0496 7.29339 73.3312 7.99998 73.3333Z" fill="#171B22"/>
<path d="M0 60H2.66667V70.6667H0V60Z" fill="#171B22"/>
<path d="M1.33333 66.6667C2.06971 66.6667 2.66667 66.0697 2.66667 65.3333C2.66667 64.597 2.06971 64 1.33333 64C0.596954 64 0 64.597 0 65.3333C0 66.0697 0.596954 66.6667 1.33333 66.6667Z" fill="#FF7D61"/>
<path d="M75.4093 1.11198C74.6962 0.400526 73.73 0.000976562 72.7227 0.000976562C71.7153 0.000976563 70.7491 0.400526 70.036 1.11198L65.812 5.33331H45.3333C44.2984 5.33331 43.2776 5.57428 42.3519 6.03713C41.4262 6.49998 40.621 7.172 40 7.99998C39.379 7.172 38.5738 6.49998 37.6481 6.03713C36.7224 5.57428 35.7016 5.33331 34.6667 5.33331H9.33333C8.27247 5.33331 7.25505 5.75474 6.50491 6.50488C5.75476 7.25503 5.33333 8.27245 5.33333 9.33331V12H4C2.93913 12 1.92172 12.4214 1.17157 13.1716C0.421427 13.9217 0 14.9391 0 16L0 60C0 60.3536 0.140476 60.6927 0.390524 60.9428C0.640573 61.1928 0.979711 61.3333 1.33333 61.3333C1.68696 61.3333 2.02609 61.1928 2.27614 60.9428C2.52619 60.6927 2.66667 60.3536 2.66667 60V16C2.66667 15.6464 2.80714 15.3072 3.05719 15.0572C3.30724 14.8071 3.64638 14.6666 4 14.6666H5.33333V62.6666C5.33333 63.7275 5.75476 64.7449 6.50491 65.4951C7.25505 66.2452 8.27247 66.6666 9.33333 66.6666H34.6667C35.7275 66.6666 36.7449 67.0881 37.4951 67.8382C38.2452 68.5884 38.6667 69.6058 38.6667 70.6666C38.6667 71.0203 38.8071 71.3594 39.0572 71.6095C39.3072 71.8595 39.6464 72 40 72C40.3536 72 40.6928 71.8595 40.9428 71.6095C41.1929 71.3594 41.3333 71.0203 41.3333 70.6666C41.3333 69.6058 41.7548 68.5884 42.5049 67.8382C43.2551 67.0881 44.2725 66.6666 45.3333 66.6666H70.6667C71.7275 66.6666 72.7449 66.2452 73.4951 65.4951C74.2452 64.7449 74.6667 63.7275 74.6667 62.6666V14.6666H76C76.3536 14.6666 76.6928 14.8071 76.9428 15.0572C77.1929 15.3072 77.3333 15.6464 77.3333 16V70.6666C77.3333 71.0203 77.1929 71.3594 76.9428 71.6095C76.6928 71.8595 76.3536 72 76 72H47.4267C46.6143 72.0086 45.8251 72.2715 45.1699 72.7517C44.5146 73.2319 44.0263 73.9053 43.7733 74.6773C43.4951 75.454 42.984 76.126 42.3097 76.6014C41.6354 77.0769 40.8308 77.3326 40.0058 77.3338C39.1807 77.335 38.3754 77.0815 37.6998 76.6079C37.0241 76.1344 36.5111 75.4639 36.2307 74.688C35.9787 73.9138 35.4903 73.2381 34.8342 72.7559C34.1782 72.2737 33.3875 72.0094 32.5733 72H4C3.64638 72 3.30724 71.8595 3.05719 71.6095C2.80714 71.3594 2.66667 71.0203 2.66667 70.6666C2.66667 70.313 2.52619 69.9739 2.27614 69.7238C2.02609 69.4738 1.68696 69.3333 1.33333 69.3333C0.979711 69.3333 0.640573 69.4738 0.390524 69.7238C0.140476 69.9739 0 70.313 0 70.6666C0 71.7275 0.421427 72.7449 1.17157 73.4951C1.92172 74.2452 2.93913 74.6666 4 74.6666H32.5733C32.8368 74.6819 33.0889 74.7789 33.2944 74.9444C33.5 75.1098 33.6488 75.3353 33.72 75.5893C34.1863 76.8822 35.0402 77.9996 36.1652 78.7891C37.2901 79.5786 38.6314 80.0016 40.0058 80.0005C41.3801 79.9993 42.7206 79.574 43.8443 78.7826C44.9679 77.9912 45.8199 76.8723 46.284 75.5786C46.356 75.3267 46.5047 75.1034 46.7095 74.94C46.9143 74.7765 47.165 74.681 47.4267 74.6666H76C77.0609 74.6666 78.0783 74.2452 78.8284 73.4951C79.5786 72.7449 80 71.7275 80 70.6666V16C79.9996 15.0748 79.6785 14.1784 79.0913 13.4634C78.5042 12.7484 77.6874 12.2591 76.78 12.0786L78.8987 9.96131C79.6081 9.24954 80.0064 8.28558 80.0064 7.28064C80.0064 6.27571 79.6081 5.31175 78.8987 4.59998L75.4093 1.11198ZM64.876 10.0373L66.476 11.6373L50.9333 27.1853L49.3333 25.5853L64.876 10.0373ZM48.1253 28.148L51.8813 31.904L46.6667 33.4226L48.1253 28.148ZM54.4187 30.6666L52.8187 29.0666L68.364 13.52L69.964 15.12L54.4187 30.6666ZM72.6987 12.3893L71.8493 13.2386L66.764 8.15331L68.364 6.55331L73.4493 11.64L72.6987 12.3893ZM34.6667 64H9.33333C8.97971 64 8.64057 63.8595 8.39052 63.6095C8.14048 63.3594 8 63.0203 8 62.6666V9.33331C8 8.97969 8.14048 8.64055 8.39052 8.3905C8.64057 8.14045 8.97971 7.99998 9.33333 7.99998H34.6667C35.7275 7.99998 36.7449 8.42141 37.4951 9.17155C38.2452 9.9217 38.6667 10.9391 38.6667 12V65.3493C37.5162 64.4753 36.1115 64.0014 34.6667 64ZM70.6667 64H45.3333C43.8885 64.0014 42.4838 64.4753 41.3333 65.3493V12C41.3333 10.9391 41.7548 9.9217 42.5049 9.17155C43.2551 8.42141 44.2725 7.99998 45.3333 7.99998H63.1453L46.944 24.1933C46.4939 24.6607 46.1668 25.2324 45.992 25.8573L44.0933 32.716C43.9687 33.1579 43.9648 33.6251 44.082 34.069C44.1993 34.5129 44.4334 34.9173 44.76 35.24C45.084 35.5633 45.4878 35.7953 45.9303 35.9123C46.3729 36.0294 46.8385 36.0274 47.28 35.9066L54.144 34.02C54.7787 33.8433 55.3564 33.5042 55.82 33.036L72 16.86V62.6666C72 63.0203 71.8595 63.3594 71.6095 63.6095C71.3594 63.8595 71.0203 64 70.6667 64ZM77.012 8.07598L75.3333 9.75198L70.2507 4.66665L71.9213 2.99731C72.1341 2.78627 72.4217 2.66785 72.7213 2.66785C73.021 2.66785 73.3086 2.78627 73.5213 2.99731L77.0093 6.48531C77.217 6.69782 77.3334 6.983 77.3339 7.2801C77.3344 7.57721 77.2189 7.86278 77.012 8.07598Z" fill="#FF7D61"/>
<path d="M18.6667 32C18.6667 31.6464 18.5262 31.3072 18.2762 31.0572C18.0261 30.8071 17.687 30.6667 17.3334 30.6667C16.9797 30.6667 16.6406 30.8071 16.3906 31.0572C16.1405 31.3072 16 31.6464 16 32C16.002 33.5363 16.5335 35.0249 17.505 36.215C18.4765 37.4051 19.8286 38.2239 21.3334 38.5333V40C21.3334 40.3536 21.4738 40.6928 21.7239 40.9428C21.9739 41.1929 22.3131 41.3333 22.6667 41.3333C23.0203 41.3333 23.3595 41.1929 23.6095 40.9428C23.8596 40.6928 24 40.3536 24 40V38.5333C25.5071 38.2273 26.862 37.4097 27.8352 36.219C28.8084 35.0283 29.34 33.5378 29.34 32C29.34 30.4622 28.8084 28.9717 27.8352 27.781C26.862 26.5903 25.5071 25.7727 24 25.4667V17.5787C24.7772 17.8534 25.4506 18.3616 25.9279 19.0337C26.4053 19.7058 26.6633 20.509 26.6667 21.3333C26.6667 21.687 26.8072 22.0261 27.0572 22.2761C27.3073 22.5262 27.6464 22.6667 28 22.6667C28.3537 22.6667 28.6928 22.5262 28.9428 22.2761C29.1929 22.0261 29.3334 21.687 29.3334 21.3333C29.3314 19.7971 28.7999 18.3084 27.8284 17.1183C26.8569 15.9282 25.5048 15.1095 24 14.8V13.3333C24 12.9797 23.8596 12.6406 23.6095 12.3905C23.3595 12.1405 23.0203 12 22.6667 12C22.3131 12 21.9739 12.1405 21.7239 12.3905C21.4738 12.6406 21.3334 12.9797 21.3334 13.3333V14.8C19.8263 15.106 18.4714 15.9236 17.4982 17.1143C16.525 18.305 15.9933 19.7955 15.9933 21.3333C15.9933 22.8711 16.525 24.3617 17.4982 25.5523C18.4714 26.743 19.8263 27.5606 21.3334 27.8667V35.756C20.5559 35.4811 19.8825 34.9727 19.4051 34.3004C18.9277 33.628 18.6698 32.8246 18.6667 32ZM26.6667 32C26.6633 32.8243 26.4053 33.6275 25.9279 34.2996C25.4506 34.9717 24.7772 35.4799 24 35.7547V28.2453C24.7772 28.5201 25.4506 29.0283 25.9279 29.7004C26.4053 30.3725 26.6633 31.1757 26.6667 32ZM18.6667 21.3333C18.6701 20.509 18.9281 19.7058 19.4055 19.0337C19.8828 18.3616 20.5562 17.8534 21.3334 17.5787V25.088C20.5562 24.8132 19.8828 24.305 19.4055 23.6329C18.9281 22.9608 18.6701 22.1577 18.6667 21.3333Z" fill="#FF7D61"/>
<path d="M32 46.6666H13.3333C12.9797 46.6666 12.6406 46.8071 12.3905 47.0571C12.1405 47.3072 12 47.6463 12 48C12 48.3536 12.1405 48.6927 12.3905 48.9428C12.6406 49.1928 12.9797 49.3333 13.3333 49.3333H32C32.3536 49.3333 32.6928 49.1928 32.9428 48.9428C33.1929 48.6927 33.3333 48.3536 33.3333 48C33.3333 47.6463 33.1929 47.3072 32.9428 47.0571C32.6928 46.8071 32.3536 46.6666 32 46.6666Z" fill="#FF7D61"/>
<path d="M28 54.6666H13.3333C12.9797 54.6666 12.6406 54.8071 12.3905 55.0571C12.1405 55.3072 12 55.6463 12 56C12 56.3536 12.1405 56.6927 12.3905 56.9428C12.6406 57.1928 12.9797 57.3333 13.3333 57.3333H28C28.3536 57.3333 28.6928 57.1928 28.9428 56.9428C29.1929 56.6927 29.3333 56.3536 29.3333 56C29.3333 55.6463 29.1929 55.3072 28.9428 55.0571C28.6928 54.8071 28.3536 54.6666 28 54.6666Z" fill="#FF7D61"/>
</g>
<defs>
<clipPath id="clip0_2009_304">
<rect width="80" height="80" fill="white"/>
</clipPath>
</defs>
</svg>
