<svg width="80" height="80" viewBox="0 0 80 80" fill="none" xmlns="http://www.w3.org/2000/svg">
<g clip-path="url(#clip0_2009_240)">
<path d="M24.04 68.4133C23.978 68.7171 23.9922 69.0316 24.0815 69.3286C24.1708 69.6256 24.3323 69.8958 24.5516 70.1151C24.7708 70.3344 25.0411 70.4959 25.338 70.5851C25.635 70.6744 25.9495 70.6887 26.2533 70.6266L29.3333 70.0133L33.6133 69.1733C34.486 68.9917 35.2872 68.561 35.92 67.9333L36.04 67.8266L60 43.8533V76C59.9979 76.7066 59.7163 77.3836 59.2166 77.8832C58.717 78.3829 58.0399 78.6645 57.3333 78.6666H4C3.2934 78.6645 2.61635 78.3829 2.11671 77.8832C1.61707 77.3836 1.33544 76.7066 1.33333 76V9.33329C1.33544 8.6267 1.61707 7.94965 2.11671 7.45001C2.61635 6.95037 3.2934 6.66874 4 6.66663H8V9.33329C8 10.0405 8.28095 10.7188 8.78105 11.2189C9.28114 11.719 9.95942 12 10.6667 12C11.3739 12 12.0522 11.719 12.5523 11.2189C13.0524 10.7188 13.3333 10.0405 13.3333 9.33329V6.66663H21.3333V9.33329C21.3333 10.0405 21.6143 10.7188 22.1144 11.2189C22.6145 11.719 23.2928 12 24 12C24.7072 12 25.3855 11.719 25.8856 11.2189C26.3857 10.7188 26.6667 10.0405 26.6667 9.33329V6.66663H34.6667V9.33329C34.6667 10.0405 34.9476 10.7188 35.4477 11.2189C35.9478 11.719 36.6261 12 37.3333 12C38.0406 12 38.7189 11.719 39.219 11.2189C39.719 10.7188 40 10.0405 40 9.33329V6.66663H48V9.33329C48 10.0405 48.2809 10.7188 48.781 11.2189C49.2811 11.719 49.9594 12 50.6667 12C51.3739 12 52.0522 11.719 52.5523 11.2189C53.0524 10.7188 53.3333 10.0405 53.3333 9.33329V6.66663H57.3333C58.0399 6.66874 58.717 6.95037 59.2166 7.45001C59.7163 7.94965 59.9979 8.6267 60 9.33329V25.48L59.3467 26.1333L26.8533 58.64L26.7333 58.7466C26.1056 59.3794 25.6749 60.1807 25.4933 61.0533L24.6533 65.3333L24.04 68.4133Z" fill="#171B22"/>
<path d="M57.3333 6.66663H53.3333C54.0399 6.66874 54.717 6.95037 55.2166 7.45001C55.7163 7.94965 55.9979 8.6267 56 9.33329V25.48L55.3467 26.1333L22.8533 58.64L22.7333 58.7466C22.1056 59.3794 21.6749 60.1807 21.4933 61.0533L20.6533 65.3333L20.04 68.4133C19.978 68.7171 19.9922 69.0316 20.0815 69.3286C20.1708 69.6256 20.3323 69.8958 20.5516 70.1151C20.7708 70.3344 21.0411 70.4959 21.338 70.5851C21.635 70.6744 21.9495 70.6887 22.2533 70.6266L24.6067 70.1586C24.3693 69.9416 24.1923 69.6667 24.0929 69.3608C23.9936 69.0548 23.9754 68.7284 24.04 68.4133L24.6533 65.3333L25.4933 61.0533C25.6749 60.1807 26.1056 59.3794 26.7333 58.7466L26.8533 58.64L59.3467 26.1333L60 25.48V9.33329C59.9979 8.6267 59.7163 7.94965 59.2166 7.45001C58.717 6.95037 58.0399 6.66874 57.3333 6.66663Z" fill="#FFDB59"/>
<path d="M56 75.9999C55.9979 76.7065 55.7163 77.3836 55.2166 77.8832C54.717 78.3829 54.0399 78.6645 53.3333 78.6666H57.3333C58.0399 78.6645 58.717 78.3829 59.2166 77.8832C59.7163 77.3836 59.9979 76.7065 60 75.9999V43.8533L56 47.8533V75.9999Z" fill="#FFDB59"/>
<path d="M13.3333 3.99996V9.33329C13.3333 10.0405 13.0524 10.7188 12.5523 11.2189C12.0522 11.719 11.3739 12 10.6667 12C9.95942 12 9.28115 11.719 8.78105 11.2189C8.28095 10.7188 8 10.0405 8 9.33329V3.99996C8.00211 3.29336 8.28374 2.61631 8.78338 2.11667C9.28302 1.61703 9.96007 1.3354 10.6667 1.33329C11.0168 1.33143 11.3637 1.40012 11.6867 1.53528C12.0097 1.67044 12.3022 1.86929 12.5467 2.11996C12.7973 2.36442 12.9962 2.65689 13.1313 2.97989C13.2665 3.3029 13.3352 3.64982 13.3333 3.99996Z" fill="#FFDB59"/>
<path d="M26.6667 3.99996V9.33329C26.6667 10.0405 26.3857 10.7188 25.8856 11.2189C25.3855 11.719 24.7072 12 24 12C23.2928 12 22.6145 11.719 22.1144 11.2189C21.6143 10.7188 21.3333 10.0405 21.3333 9.33329V3.99996C21.3354 3.29336 21.6171 2.61631 22.1167 2.11667C22.6164 1.61703 23.2934 1.3354 24 1.33329C24.3501 1.33143 24.6971 1.40012 25.0201 1.53528C25.3431 1.67044 25.6355 1.86929 25.88 2.11996C26.1307 2.36442 26.3295 2.65689 26.4647 2.97989C26.5998 3.3029 26.6685 3.64982 26.6667 3.99996Z" fill="#FFDB59"/>
<path d="M40 3.99996V9.33329C40 10.0405 39.7191 10.7188 39.219 11.2189C38.7189 11.719 38.0406 12 37.3333 12C36.6261 12 35.9478 11.719 35.4477 11.2189C34.9476 10.7188 34.6667 10.0405 34.6667 9.33329V3.99996C34.6688 3.29336 34.9504 2.61631 35.4501 2.11667C35.9497 1.61703 36.6267 1.3354 37.3333 1.33329C37.6835 1.33143 38.0304 1.40012 38.3534 1.53528C38.6764 1.67044 38.9689 1.86929 39.2133 2.11996C39.464 2.36442 39.6629 2.65689 39.798 2.97989C39.9332 3.3029 40.0019 3.64982 40 3.99996Z" fill="#FFDB59"/>
<path d="M53.3333 3.99996V9.33329C53.3333 10.0405 53.0524 10.7188 52.5523 11.2189C52.0522 11.719 51.3739 12 50.6667 12C49.9594 12 49.2811 11.719 48.781 11.2189C48.2809 10.7188 48 10.0405 48 9.33329V3.99996C48.0021 3.29336 48.2837 2.61631 48.7834 2.11667C49.283 1.61703 49.9601 1.3354 50.6667 1.33329C51.0168 1.33143 51.3637 1.40012 51.6867 1.53528C52.0097 1.67044 52.3022 1.86929 52.5467 2.11996C52.7973 2.36442 52.9962 2.65689 53.1313 2.97989C53.2665 3.3029 53.3352 3.64982 53.3333 3.99996Z" fill="#FFDB59"/>
<path d="M73.1333 30.7333L68.5333 35.32L59.3467 26.1333L60 25.48L63.9467 21.5466L73.12 30.72L73.1333 30.7333Z" fill="#171B22"/>
<path d="M73.12 30.72L63.9467 21.5466L61.9427 23.5426L69.12 30.72L69.1333 30.7333L66.536 33.3226L68.5333 35.32L73.1333 30.7333L73.12 30.72Z" fill="#FFDB59"/>
<path d="M68.5333 35.3199L60 43.8533L36.04 67.8266L31.44 63.2266L63.9467 30.7333L68.5333 35.3199Z" fill="#171B22"/>
<path d="M36.04 67.8267L35.92 67.9334C35.2872 68.5611 34.486 68.9918 33.6133 69.1734L29.3333 70.0133V70C29.3333 68.7623 28.8417 67.5754 27.9665 66.7002C27.0913 65.825 25.9043 65.3333 24.6667 65.3333H24.6533L25.4933 61.0534C25.6749 60.1807 26.1056 59.3795 26.7333 58.7467L26.8533 58.64L36.04 67.8267Z" fill="#171B22"/>
<path d="M29.3333 70V70.0134L26.2533 70.6267C25.9495 70.6887 25.635 70.6745 25.338 70.5852C25.0411 70.4959 24.7708 70.3344 24.5516 70.1152C24.3323 69.8959 24.1708 69.6257 24.0815 69.3287C23.9922 69.0317 23.978 68.7172 24.04 68.4134L24.6533 65.3334H24.6667C25.9043 65.3334 27.0913 65.825 27.9665 66.7002C28.8417 67.5754 29.3333 68.7624 29.3333 70Z" fill="#FFDB59"/>
<path d="M77.72 26.1333L73.1333 30.7333L73.12 30.72L63.9467 21.5466L68.5333 16.9466C68.8345 16.6454 69.192 16.4064 69.5855 16.2434C69.979 16.0804 70.4007 15.9965 70.8267 15.9965C71.2526 15.9965 71.6744 16.0804 72.0679 16.2434C72.4614 16.4064 72.8189 16.6454 73.12 16.9466L77.72 21.5466C78.0212 21.8478 78.2602 22.2053 78.4232 22.5988C78.5863 22.9923 78.6702 23.414 78.6702 23.84C78.6702 24.2659 78.5863 24.6877 78.4232 25.0812C78.2602 25.4747 78.0212 25.8322 77.72 26.1333Z" fill="#FFDB59"/>
<path d="M77.72 21.5467L73.12 16.9467C72.5584 16.387 71.8107 16.0533 71.019 16.0091C70.2274 15.9648 69.4472 16.2131 68.8267 16.7067C68.9292 16.7806 69.0272 16.8608 69.12 16.9467L73.72 21.5467C74.0212 21.8478 74.2602 22.2053 74.4232 22.5988C74.5863 22.9923 74.6702 23.4141 74.6702 23.84C74.6702 24.2659 74.5863 24.6877 74.4232 25.0812C74.2602 25.4747 74.0212 25.8322 73.72 26.1333L71.1307 28.7307L73.12 30.72L73.1333 30.7333L77.72 26.1333C78.0212 25.8322 78.2602 25.4747 78.4232 25.0812C78.5863 24.6877 78.6702 24.2659 78.6702 23.84C78.6702 23.4141 78.5863 22.9923 78.4232 22.5988C78.2602 22.2053 78.0212 21.8478 77.72 21.5467Z" fill="#FFDB59"/>
<path d="M63.9467 30.7333L31.44 63.2266L26.8533 58.64L59.3467 26.1333L63.9467 30.7333Z" fill="#171B22"/>
<path d="M4 78.6666H8C7.2934 78.6645 6.61635 78.3829 6.11671 77.8832C5.61707 77.3836 5.33544 76.7066 5.33333 76V9.33329C5.33544 8.6267 5.61707 7.94965 6.11671 7.45001C6.61635 6.95037 7.2934 6.66874 8 6.66663H4C3.2934 6.66874 2.61635 6.95037 2.11671 7.45001C1.61707 7.94965 1.33544 8.6267 1.33333 9.33329V76C1.33544 76.7066 1.61707 77.3836 2.11671 77.8832C2.61635 78.3829 3.2934 78.6645 4 78.6666Z" fill="#171B22"/>
<path d="M-3.8147e-06 65.3334H2.66666V76H-3.8147e-06V65.3334Z" fill="#171B22"/>
<path d="M1.33333 72C2.06971 72 2.66666 71.4031 2.66666 70.6667C2.66666 69.9303 2.06971 69.3334 1.33333 69.3334C0.59695 69.3334 -3.8147e-06 69.9303 -3.8147e-06 70.6667C-3.8147e-06 71.4031 0.59695 72 1.33333 72Z" fill="#FF7D61"/>
<path d="M74.068 16.0067C73.2086 15.1487 72.0438 14.6668 70.8293 14.6668C69.6149 14.6668 68.4501 15.1487 67.5907 16.0067L61.3333 22.2667V9.33333C61.3333 8.27247 60.9119 7.25505 60.1618 6.50491C59.4116 5.75476 58.3942 5.33333 57.3333 5.33333H54.6667V4C54.6667 2.93913 54.2452 1.92172 53.4951 1.17157C52.745 0.421427 51.7275 0 50.6667 0C49.6058 0 48.5884 0.421427 47.8382 1.17157C47.0881 1.92172 46.6667 2.93913 46.6667 4V5.33333H41.3333V4C41.3333 2.93913 40.9119 1.92172 40.1618 1.17157C39.4116 0.421427 38.3942 0 37.3333 0C36.2725 0 35.2551 0.421427 34.5049 1.17157C33.7548 1.92172 33.3333 2.93913 33.3333 4V5.33333H28V4C28 2.93913 27.5786 1.92172 26.8284 1.17157C26.0783 0.421427 25.0609 0 24 0C22.9391 0 21.9217 0.421427 21.1716 1.17157C20.4214 1.92172 20 2.93913 20 4V5.33333H14.6667V4C14.6667 2.93913 14.2452 1.92172 13.4951 1.17157C12.745 0.421427 11.7275 5.96046e-08 10.6667 5.96046e-08C9.6058 5.96046e-08 8.58839 0.421427 7.83824 1.17157C7.0881 1.92172 6.66667 2.93913 6.66667 4V5.33333H4C2.93913 5.33333 1.92172 5.75476 1.17157 6.50491C0.421427 7.25505 0 8.27247 0 9.33333L0 65.3333C0 65.687 0.140476 66.0261 0.390524 66.2761C0.640573 66.5262 0.979711 66.6667 1.33333 66.6667C1.68696 66.6667 2.02609 66.5262 2.27614 66.2761C2.52619 66.0261 2.66667 65.687 2.66667 65.3333V9.33333C2.66667 8.97971 2.80714 8.64057 3.05719 8.39052C3.30724 8.14048 3.64638 8 4 8H6.66667V9.33333C6.66667 10.3942 7.0881 11.4116 7.83824 12.1618C8.58839 12.9119 9.6058 13.3333 10.6667 13.3333C11.7275 13.3333 12.745 12.9119 13.4951 12.1618C14.2452 11.4116 14.6667 10.3942 14.6667 9.33333V8H20V9.33333C20 10.3942 20.4214 11.4116 21.1716 12.1618C21.9217 12.9119 22.9391 13.3333 24 13.3333C25.0609 13.3333 26.0783 12.9119 26.8284 12.1618C27.5786 11.4116 28 10.3942 28 9.33333V8H33.3333V9.33333C33.3333 10.3942 33.7548 11.4116 34.5049 12.1618C35.2551 12.9119 36.2725 13.3333 37.3333 13.3333C38.3942 13.3333 39.4116 12.9119 40.1618 12.1618C40.9119 11.4116 41.3333 10.3942 41.3333 9.33333V8H46.6667V9.33333C46.6667 10.3942 47.0881 11.4116 47.8382 12.1618C48.5884 12.9119 49.6058 13.3333 50.6667 13.3333C51.7275 13.3333 52.745 12.9119 53.4951 12.1618C54.2452 11.4116 54.6667 10.3942 54.6667 9.33333V8H57.3333C57.687 8 58.0261 8.14048 58.2761 8.39052C58.5262 8.64057 58.6667 8.97971 58.6667 9.33333V24.9333L25.788 57.8093C24.9705 58.6249 24.4136 59.6648 24.188 60.7973L22.7213 68.152C22.6521 68.5431 22.6557 68.9436 22.732 69.3333H22.4133C19.299 69.3298 16.3132 68.0911 14.1111 65.8889C11.9089 63.6868 10.6702 60.701 10.6667 57.5867C10.6717 55.3695 11.3025 53.1988 12.4866 51.3243C13.6707 49.4498 15.36 47.9476 17.36 46.9907L33.2507 39.4173C35.2002 38.4915 36.7764 36.9296 37.7199 34.9887C38.6635 33.0477 38.9181 30.8433 38.442 28.7384C37.9658 26.6334 36.7872 24.7533 35.1002 23.4074C33.4131 22.0614 31.3181 21.33 29.16 21.3333H9.33333C8.97971 21.3333 8.64057 21.4738 8.39053 21.7239C8.14048 21.9739 8 22.313 8 22.6667C8 23.0203 8.14048 23.3594 8.39053 23.6095C8.64057 23.8595 8.97971 24 9.33333 24H29.16C30.7117 23.9989 32.2176 24.5257 33.4303 25.4938C34.6429 26.4618 35.4903 27.8136 35.8331 29.3269C36.1758 30.8403 35.9937 32.4252 35.3165 33.8213C34.6393 35.2174 33.5074 36.3417 32.1067 37.0093L16.216 44.5813C13.2627 45.9864 10.8752 48.3544 9.44608 51.2962C8.01696 54.2379 7.63122 57.5784 8.35226 60.7685C9.07329 63.9585 10.8582 66.8084 13.4136 68.8495C15.969 70.8907 19.1428 72.0017 22.4133 72H25.8667H25.8787H25.888C26.0983 71.9998 26.3081 71.9797 26.5147 71.94L33.872 70.4733C35.0011 70.2447 36.0377 69.6882 36.852 68.8733L58.6667 47.0667V76C58.6667 76.3536 58.5262 76.6928 58.2761 76.9428C58.0261 77.1929 57.687 77.3333 57.3333 77.3333H4C3.64638 77.3333 3.30724 77.1929 3.05719 76.9428C2.80714 76.6928 2.66667 76.3536 2.66667 76C2.66667 75.6464 2.52619 75.3072 2.27614 75.0572C2.02609 74.8071 1.68696 74.6667 1.33333 74.6667C0.979711 74.6667 0.640573 74.8071 0.390524 75.0572C0.140476 75.3072 0 75.6464 0 76C0 77.0609 0.421427 78.0783 1.17157 78.8284C1.92172 79.5786 2.93913 80 4 80H57.3333C58.3942 80 59.4116 79.5786 60.1618 78.8284C60.9119 78.0783 61.3333 77.0609 61.3333 76V44.4L78.6667 27.076C79.5247 26.2166 80.0066 25.0518 80.0066 23.8373C80.0066 22.6229 79.5247 21.4581 78.6667 20.5987L74.068 16.0067ZM12 9.33333C12 9.68696 11.8595 10.0261 11.6095 10.2761C11.3594 10.5262 11.0203 10.6667 10.6667 10.6667C10.313 10.6667 9.97391 10.5262 9.72386 10.2761C9.47381 10.0261 9.33333 9.68696 9.33333 9.33333V4C9.33333 3.64638 9.47381 3.30724 9.72386 3.05719C9.97391 2.80714 10.313 2.66667 10.6667 2.66667C11.0203 2.66667 11.3594 2.80714 11.6095 3.05719C11.8595 3.30724 12 3.64638 12 4V9.33333ZM25.3333 9.33333C25.3333 9.68696 25.1929 10.0261 24.9428 10.2761C24.6928 10.5262 24.3536 10.6667 24 10.6667C23.6464 10.6667 23.3072 10.5262 23.0572 10.2761C22.8071 10.0261 22.6667 9.68696 22.6667 9.33333V4C22.6667 3.64638 22.8071 3.30724 23.0572 3.05719C23.3072 2.80714 23.6464 2.66667 24 2.66667C24.3536 2.66667 24.6928 2.80714 24.9428 3.05719C25.1929 3.30724 25.3333 3.64638 25.3333 4V9.33333ZM38.6667 9.33333C38.6667 9.68696 38.5262 10.0261 38.2761 10.2761C38.0261 10.5262 37.687 10.6667 37.3333 10.6667C36.9797 10.6667 36.6406 10.5262 36.3905 10.2761C36.1405 10.0261 36 9.68696 36 9.33333V4C36 3.64638 36.1405 3.30724 36.3905 3.05719C36.6406 2.80714 36.9797 2.66667 37.3333 2.66667C37.687 2.66667 38.0261 2.80714 38.2761 3.05719C38.5262 3.30724 38.6667 3.64638 38.6667 4V9.33333ZM52 9.33333C52 9.68696 51.8595 10.0261 51.6095 10.2761C51.3594 10.5262 51.0203 10.6667 50.6667 10.6667C50.313 10.6667 49.9739 10.5262 49.7239 10.2761C49.4738 10.0261 49.3333 9.68696 49.3333 9.33333V4C49.3333 3.64638 49.4738 3.30724 49.7239 3.05719C49.9739 2.80714 50.313 2.66667 50.6667 2.66667C51.0203 2.66667 51.3594 2.80714 51.6095 3.05719C51.8595 3.30724 52 3.64638 52 4V9.33333ZM36.0293 65.9347L33.3227 63.2293L63.9427 32.6093L66.6493 35.316L36.0293 65.9347ZM28.732 58.6373L59.3507 28.0187L62.0573 30.7253L31.4373 61.344L28.732 58.6373ZM61.236 26.1333L63.94 23.428L71.2373 30.7267L68.5333 33.4307L61.236 26.1333ZM26 69.3213C25.9094 69.3405 25.8154 69.3369 25.7265 69.3108C25.6376 69.2848 25.5566 69.2371 25.4907 69.172C25.4252 69.1072 25.3771 69.0269 25.3507 68.9386C25.3244 68.8503 25.3207 68.7568 25.34 68.6667L25.7013 66.8493C26.1937 67.0118 26.6412 67.2873 27.008 67.6538C27.3748 68.0204 27.6506 68.4677 27.8133 68.96L26 69.3213ZM33.3467 67.8613L30.4307 68.44C30.1568 67.4326 29.6243 66.5144 28.8859 65.7765C28.1475 65.0385 27.2289 64.5065 26.2213 64.2333L26.8 61.3227C26.8524 61.1088 26.927 60.901 27.0227 60.7027L33.956 67.636C33.7624 67.7329 33.5596 67.8102 33.3507 67.8667L33.3467 67.8613ZM76.7707 25.1947L73.12 28.8453L65.8213 21.5467L69.472 17.896C69.8316 17.5382 70.3181 17.3374 70.8253 17.3374C71.3326 17.3374 71.8191 17.5382 72.1787 17.896L76.7707 22.488C77.1284 22.8475 77.3293 23.3341 77.3293 23.8413C77.3293 24.3485 77.1284 24.8351 76.7707 25.1947Z" fill="#FF7D61"/>
</g>
<defs>
<clipPath id="clip0_2009_240">
<rect width="80" height="80" fill="white"/>
</clipPath>
</defs>
</svg>
