<svg width="80" height="80" viewBox="0 0 80 80" fill="none" xmlns="http://www.w3.org/2000/svg">
<g clip-path="url(#clip0_2009_159)">
<path d="M24.8933 67.7066L15.12 77.4932C13.5531 79.0531 11.0202 79.0531 9.45333 77.4932L2.50666 70.5466C0.946837 68.9797 0.946837 66.4468 2.50666 64.8799L12.2933 55.1066L24.8933 67.7066Z" fill="#171B22"/>
<path d="M12.2934 55.1066L10.2934 57.1066L20.8934 67.7066L11.12 77.4932C10.8714 77.7349 10.5922 77.9429 10.2894 78.1119C11.854 79.0226 13.8354 78.7689 15.12 77.4932L24.8934 67.7066L12.2934 55.1066Z" fill="#171B22"/>
<path d="M64 15.9999L46.3067 33.6932L40 27.3866L57.4533 9.93323L58.0667 10.0666L64 15.9999Z" fill="#171B22"/>
<path d="M70.3734 22.16C70.3501 22.2094 70.3185 22.2545 70.28 22.2933C70.2162 22.3837 70.1449 22.4684 70.0667 22.5467L52.6 40L46.3067 33.6933L64 16L69.9334 21.9333L70.3734 22.16Z" fill="#FFDB59"/>
<path d="M75.0134 11.7066L70.44 22.0132C70.4209 22.0635 70.3986 22.1124 70.3734 22.1599L69.9334 21.9332L58.0667 10.0666L57.4534 9.93324C57.6075 9.77802 57.7881 9.65159 57.9867 9.55991L68.2934 4.98657L68.44 5.31991L74.68 11.5599L75.0134 11.7066Z" fill="#171B22"/>
<path d="M74.68 11.5599L68.44 5.31991L68.2934 4.98657L65.3934 6.27324L70.68 11.5599L71.0134 11.7066L67.5387 19.5386L69.9387 21.9386L70.3787 22.1652C70.4039 22.1178 70.4262 22.0688 70.4454 22.0186L75.0187 11.7119L74.68 11.5599Z" fill="#171B22"/>
<path d="M78.5067 3.85333L75.0133 11.7067L74.68 11.56L68.44 5.32L68.2933 4.98667L76.1467 1.49333C76.8227 1.19294 77.6139 1.33988 78.137 1.86298C78.6601 2.38608 78.8071 3.1773 78.5067 3.85333Z" fill="#FFDB59"/>
<path d="M24.8949 55.1012L33.69 46.3061L39.986 52.6022L31.191 61.3973L24.8949 55.1012Z" fill="#FFDB59"/>
<path d="M31.2 61.3999L24.8933 67.7066L12.2933 55.1066L18.6 48.7999L24.8933 55.1066H24.9067L31.2 61.3999Z" fill="#171B22"/>
<path d="M77.4934 70.5466L70.5467 77.4932C68.9798 79.0531 66.4469 79.0531 64.88 77.4932L55.1067 67.7066L67.7067 55.1066L77.4934 64.8799C79.0532 66.4468 79.0532 68.9797 77.4934 70.5466Z" fill="#171B22"/>
<path d="M77.4933 64.8799L67.7067 55.1066L65.7067 57.1066L73.4933 64.8799C75.0532 66.4468 75.0532 68.9797 73.4933 70.5466L66.5467 77.4932C66.2959 77.7348 66.0149 77.9427 65.7107 78.1119C67.2774 79.0216 69.2594 78.768 70.5467 77.4932L77.4933 70.5466C79.0532 68.9797 79.0532 66.4468 77.4933 64.8799Z" fill="#171B22"/>
<path d="M33.6934 46.3067L24.9067 55.1067H24.8934L18.6 48.8L27.4 40L33.6934 46.3067Z" fill="#171B22"/>
<path d="M67.7067 55.1066L55.1067 67.7066L48.8 61.3999L55.1067 55.1066L61.4001 48.7999L67.7067 55.1066Z" fill="#171B22"/>
<path d="M55.1067 55.1067L48.8 61.4L40 52.6L33.6933 46.3067L27.4 40L9.93333 22.5467C9.77811 22.3925 9.65168 22.2119 9.56 22.0133L10.0667 21.9333L16 16L55.1067 55.1067Z" fill="#171B22"/>
<path d="M61.4 48.7999L55.1067 55.1066L16 15.9999L21.9333 10.0666L22.16 9.62659C22.2094 9.64986 22.2545 9.68143 22.2933 9.71992C22.3837 9.78372 22.4684 9.85508 22.5467 9.93325L40 27.3866L46.3067 33.6933L52.6 39.9999L61.4 48.7999Z" fill="#FFDB59"/>
<path d="M22.16 9.62657L21.9334 10.0666L10.0667 21.9332L9.56003 22.0132L4.98669 11.7066L5.32003 11.5599L11.56 5.31991L11.7067 4.98657L22.0134 9.55991C22.0636 9.57907 22.1126 9.60134 22.16 9.62657Z" fill="#171B22"/>
<path d="M22.0133 9.55991L11.7067 4.98657L11.56 5.31991L10.6067 6.27324L18.0133 9.55991C18.0636 9.57907 18.1125 9.60134 18.16 9.62657L17.9333 10.0666L8.46667 19.5332L9.56001 22.0132L10.0667 21.9332L21.9333 10.0666L22.16 9.62657C22.1125 9.60134 22.0636 9.57907 22.0133 9.55991Z" fill="#171B22"/>
<path d="M11.7067 4.98667L11.56 5.32L5.32 11.56L4.98667 11.7067L1.49333 3.85333C1.19294 3.1773 1.33988 2.38608 1.86298 1.86298C2.38608 1.33988 3.1773 1.19294 3.85333 1.49333L11.7067 4.98667Z" fill="#FFDB59"/>
<path d="M13.4533 77.4933L6.50666 70.5467C4.94684 68.9798 4.94684 66.4469 6.50666 64.88L14.292 57.1053L16.292 55.1053L22.5987 48.7987L31.3987 39.9987L13.9333 22.5467C13.7781 22.3925 13.6517 22.2119 13.56 22.0133L8.98666 11.7067L5.49332 3.85333C5.25552 3.33979 5.2834 2.7425 5.56799 2.25333L3.85332 1.49333C3.17729 1.19294 2.38607 1.33988 1.86297 1.86298C1.33987 2.38608 1.19293 3.1773 1.49332 3.85333L4.98666 11.7067L9.55999 22.0133C9.65167 22.2119 9.7781 22.3925 9.93332 22.5467L27.4 40L18.6 48.8L12.2933 55.1067L10.2933 57.1067L2.50666 64.88C0.946837 66.4469 0.946837 68.9798 2.50666 70.5467L9.45333 77.4933C9.70406 77.7348 9.98507 77.9428 10.2893 78.112C10.848 78.435 11.4766 78.6179 12.1213 78.6453H12.1533C12.3096 78.6478 12.4658 78.6416 12.6213 78.6267C12.708 78.6267 12.7947 78.6133 12.88 78.6013C13.0133 78.5827 13.132 78.556 13.2573 78.5253C13.3745 78.497 13.4903 78.4627 13.604 78.4227C13.7067 78.3867 13.8093 78.3507 13.9107 78.3067C14.0404 78.2469 14.1668 78.1801 14.2893 78.1067C13.9854 77.9391 13.7044 77.733 13.4533 77.4933Z" fill="#171B22"/>
<path d="M1.55536 63.9343L9.09669 56.393L10.982 58.2783L3.44069 65.8197L1.55536 63.9343Z" fill="#171B22"/>
<path d="M9.752 71.58C9.39841 71.5799 9.05933 71.4394 8.80934 71.1893L6.276 68.656C5.75549 68.1353 5.75549 67.2913 6.276 66.7707L8.80934 64.2373C9.33501 63.7528 10.1493 63.7691 10.6551 64.2743C11.161 64.7794 11.1784 65.5936 10.6947 66.12L9.104 67.712L10.6947 69.304C11.0759 69.6853 11.1899 70.2587 10.9836 70.7569C10.7772 71.255 10.2912 71.5799 9.752 71.58Z" fill="#FF7D61"/>
<path d="M70.2467 71.58C69.7075 71.5799 69.2214 71.255 69.0151 70.7568C68.8088 70.2587 68.9228 69.6853 69.304 69.304L70.896 67.712L69.304 66.12C68.7987 65.5968 68.8059 64.7652 69.3202 64.2509C69.8345 63.7366 70.6662 63.7293 71.1893 64.2346L73.7227 66.768C74.2432 67.2886 74.2432 68.1326 73.7227 68.6533L71.1893 71.1866C70.9398 71.4377 70.6006 71.5792 70.2467 71.58Z" fill="#FF7D61"/>
<path d="M6.30266 62.4452C5.56628 62.4489 4.96635 61.8549 4.96266 61.1186C4.95898 60.3822 5.55295 59.7822 6.28933 59.7786H6.30266C7.03904 59.7786 7.636 60.3755 7.636 61.1119C7.636 61.8483 7.03904 62.4452 6.30266 62.4452Z" fill="#FF7D61"/>
<path d="M68.6547 54.1573L54.492 40L71.0094 23.4893C71.2798 23.2194 71.4997 22.9033 71.6587 22.556L79.724 4.39995C80.2536 3.21831 79.9986 1.83239 79.0831 0.916618C78.1677 0.000844717 76.7818 -0.254589 75.6 0.274617L57.4214 8.35195C57.0826 8.50957 56.7743 8.72577 56.5107 8.99062L40 25.5026L23.4867 8.99062C23.2181 8.72004 22.9016 8.50167 22.5534 8.34662L4.38935 0.274617C3.21061 -0.250791 1.82996 0.00479444 0.917414 0.917344C0.0048643 1.82989 -0.250721 3.21054 0.274687 4.38928L8.34802 22.5546C8.50316 22.9025 8.72101 23.2189 8.99069 23.488L25.5094 40L17.684 47.8253C17.6747 47.8346 17.6614 47.8373 17.6507 47.8466C17.64 47.856 17.6387 47.8693 17.6294 47.88L11.38 54.1333C11.3694 54.1426 11.356 54.1453 11.3454 54.156L9.10402 56.4C8.5834 56.9209 8.5837 57.7653 9.10469 58.286C9.62568 58.8066 10.4701 58.8063 10.9907 58.2853L12.288 56.988L23.0147 67.7133L14.1734 76.5533C13.1185 77.561 11.4576 77.561 10.4027 76.5533L3.44802 69.6C2.407 68.5586 2.407 66.8706 3.44802 65.8293C3.79463 65.4945 3.93364 64.9988 3.81162 64.5326C3.6896 64.0664 3.32554 63.7024 2.85936 63.5804C2.39319 63.4583 1.89745 63.5973 1.56269 63.944C-0.51935 66.0266 -0.51935 69.4026 1.56269 71.4853L8.51735 78.44C10.6 80.522 13.976 80.522 16.0587 78.44L25.8427 68.6573C25.8534 68.6466 25.8574 68.632 25.868 68.62L32.112 62.376C32.1227 62.3653 32.1374 62.3626 32.148 62.352C32.1587 62.3413 32.1627 62.3266 32.172 62.316L40 54.4906L47.856 62.348L54.1614 68.6533L63.9454 78.436C66.028 80.518 69.404 80.518 71.4867 78.436L78.4414 71.4813C80.5234 69.3986 80.5234 66.0226 78.4414 63.94L68.6547 54.1573ZM55.1 65.8266L50.68 61.4066L61.4067 50.68L65.8267 55.1L55.1 65.8266ZM69.876 20L60 10.124L67.8667 6.62929L73.3707 12.1333L69.876 20ZM76.6907 2.71062C76.8614 2.62335 77.0692 2.6598 77.2 2.79995C77.3387 2.93022 77.3765 3.1355 77.2934 3.30662L74.5334 9.51995L70.48 5.46662L76.6907 2.71062ZM57.6894 11.5826L62.1094 16L54.7694 23.3413C54.4227 23.6761 54.2837 24.1718 54.4058 24.638C54.5278 25.1041 54.8918 25.4682 55.358 25.5902C55.8242 25.7122 56.3199 25.5732 56.6547 25.2266L64 17.8893L68.4214 22.3106L52.6067 38.1093L48.192 33.6946L51.6094 30.276C52.1147 29.7528 52.1074 28.9212 51.5931 28.4069C51.0788 27.8926 50.2472 27.8853 49.724 28.3906L46.3067 31.8093L41.884 27.388L57.6894 11.5826ZM51.6347 40.908C51.644 40.9186 51.648 40.932 51.6574 40.9426C51.6667 40.9533 51.6814 40.956 51.692 40.9653L59.5214 48.8L55.1 53.22L33.3427 31.4573C32.8195 30.952 31.9879 30.9592 31.4736 31.4735C30.9593 31.9878 30.9521 32.8195 31.4574 33.3426L53.2147 55.1L48.8 59.5213L40.9694 51.6906C40.96 51.68 40.9574 51.6666 40.948 51.6573C40.9387 51.648 40.9254 51.6453 40.9147 51.636L28.368 39.088C28.36 39.0786 28.3574 39.0666 28.348 39.0573C28.3387 39.048 28.3254 39.0453 28.316 39.036L11.5854 22.3093L16 17.8893L26.408 28.2973C26.9312 28.8026 27.7628 28.7954 28.2771 28.281C28.7914 27.7667 28.7987 26.9351 28.2934 26.412L17.8907 16L22.3094 11.58L51.6347 40.908ZM2.80002 2.79995C2.92712 2.66077 3.13084 2.6222 3.30002 2.70528L9.51735 5.46662L5.47335 9.51729L2.71202 3.30528C2.62216 3.13657 2.65842 2.92836 2.80002 2.79995ZM6.63335 12.1333L12.1334 6.63195L20 10.1333L10.1334 20L6.63335 12.1333ZM31.808 46.3053L24.9 53.2146L20.4854 48.8L27.3947 41.8906L31.808 46.3053ZM14.1787 55.1053L18.5987 50.684L23.9254 56.0106C23.936 56.0213 23.94 56.0373 23.9507 56.048C23.9614 56.0586 23.9774 56.0626 23.988 56.0733L29.3214 61.3986L24.8934 65.82L14.1787 55.1053ZM31.2 59.5146L26.7854 55.1L33.6947 48.1906L38.1094 52.6053L31.2 59.5146ZM76.552 69.6L69.6 76.552C68.5451 77.5597 66.8842 77.5597 65.8294 76.552L56.988 67.712L67.7147 56.9853L76.5547 65.8266C77.5957 66.868 77.5957 68.556 76.5547 69.5973L76.552 69.6Z" fill="#FF7D61"/>
</g>
<defs>
<clipPath id="clip0_2009_159">
<rect width="80" height="80" fill="white"/>
</clipPath>
</defs>
</svg>
