<svg width="80" height="80" viewBox="0 0 80 80" fill="none" xmlns="http://www.w3.org/2000/svg">
<g clip-path="url(#clip0_2009_443)">
<path fill-rule="evenodd" clip-rule="evenodd" d="M38.65 0.37262C36.6957 1.28248 32.3216 6.51251 29.8606 10.8816C28.9587 12.4828 28.8816 12.9664 29.4398 13.5244C30.2077 14.2925 30.9455 13.9463 31.8013 12.4161L32.367 11.4044L40.5108 11.4449L48.6547 11.4854L49.5448 13.2279C51.1975 16.4642 52.3358 19.8656 52.996 23.5409C53.3111 25.2957 53.3569 26.0527 53.3543 29.4607C53.3518 32.7433 53.2946 33.7308 52.9963 35.6348C52.282 40.1976 50.9754 46.0351 49.9266 49.3507L49.5187 50.6403H40.4665H31.4143L31.0063 49.3507C29.953 46.0208 28.688 40.374 27.9336 35.6348C27.6266 33.7058 27.573 32.7864 27.574 29.4607C27.5751 25.03 27.7969 23.3192 28.8488 19.6301C29.3762 17.7804 29.4046 17.5814 29.195 17.2073C28.8513 16.5941 28.2256 16.3406 27.6898 16.5974C27.4542 16.7103 27.1776 16.9779 27.075 17.192C26.7699 17.8294 26.0995 20.2702 25.7291 22.0927L25.3829 23.796L23.7391 25.242C19.9953 28.5354 18.104 31.1436 16.9356 34.6241C15.818 37.9533 15.2521 43.2198 15.8564 44.6665C16.1783 45.4371 16.8013 46.0816 17.5675 46.4362C18.1318 46.6976 18.6571 46.7263 22.9601 46.732L27.7275 46.7384L28.3975 49.1036C29.2286 52.0369 30.4741 55.4276 31.4007 57.2788C32.2808 59.0371 32.9426 59.5726 34.363 59.6753L35.295 59.7426L34.9323 60.4668C33.7926 62.7423 33.9585 65.9663 35.3437 68.4592C36.3131 70.2039 37.5556 71.5189 39.2552 72.5987C39.8231 72.9596 41.1098 72.9596 41.6777 72.5987C44.8115 70.6077 46.7178 67.4089 46.7334 64.1152C46.7406 62.5754 46.5312 61.5353 45.9988 60.4668L45.6379 59.7426L46.5699 59.6753C47.9903 59.5726 48.6521 59.0371 49.5323 57.2788C50.4588 55.4276 51.7043 52.0369 52.5354 49.1036L53.2055 46.7384L54.1894 46.7354C55.0236 46.7331 55.232 46.6741 55.5571 46.3489C56.3313 45.5747 55.7931 44.4433 54.5728 44.2795C54.2077 44.2306 53.9088 44.1085 53.9088 44.0085C53.9088 43.8562 54.3223 41.8181 54.6166 40.5194L54.6963 40.1677H58.6687C62.316 40.1677 62.6478 40.1901 62.7239 40.4412C62.9037 41.0332 62.8719 43.7443 62.6827 43.9724C62.5489 44.1337 62.0762 44.2171 61.0789 44.2554C59.7416 44.3069 59.6437 44.3345 59.2733 44.7652C58.8114 45.3024 58.8636 46.0159 59.3974 46.4591C59.878 46.8581 62.4866 46.8431 63.3654 46.4362C64.1316 46.0816 64.7547 45.4371 65.0765 44.6665C65.6808 43.2198 65.1149 37.9533 63.9973 34.6241C62.8246 31.1307 60.9387 28.5355 57.1547 25.2082C56.2292 24.3945 55.4719 23.62 55.4719 23.4873C55.4719 22.8866 54.6057 19.4245 53.9942 17.5814C52.0933 11.8519 48.8686 6.59003 44.6084 2.26706C42.8236 0.456088 41.9903 -1.52588e-05 40.4665 -1.52588e-05C39.7238 -1.52588e-05 39.2351 0.100177 38.65 0.37262ZM41.0307 2.50433C41.5697 2.70925 42.4147 3.46734 43.8838 5.06354C44.9808 6.25554 46.875 8.63375 46.875 8.81897C46.875 8.86696 43.9912 8.90635 40.4665 8.90635C36.9417 8.90635 34.0579 8.86586 34.0579 8.81631C34.0579 8.70346 35.344 7.00394 36.0597 6.17098C37.2801 4.75062 39.3253 2.75817 39.7631 2.56279C40.3403 2.30535 40.4893 2.29848 41.0307 2.50433ZM38.4671 16.6523C35.716 17.3927 33.5408 19.4475 32.6336 22.1627C32.1845 23.5068 32.1538 25.6216 32.565 26.8816C33.5253 29.8236 35.9154 32.0646 38.7157 32.6486C41.5162 33.2325 44.1533 32.4436 46.1887 30.4129C47.9195 28.6862 48.6544 26.9479 48.6396 24.6152C48.6244 22.1904 47.7177 20.1611 45.9161 18.5192C43.9488 16.7265 40.9673 15.9792 38.4671 16.6523ZM42.9957 19.4258C44.0731 19.9529 45.201 21.1358 45.7503 22.3147C46.1037 23.0729 46.1671 23.4222 46.1692 24.6185C46.1715 25.8981 46.1243 26.1246 45.6599 27.0681C44.6289 29.1621 42.7543 30.3451 40.4665 30.3451C38.8585 30.3451 37.7486 29.9119 36.5769 28.8272C35.2555 27.6038 34.7694 26.4723 34.7675 24.6152C34.7664 23.4235 34.8288 23.0742 35.1756 22.33C35.8792 20.8204 37.2084 19.5985 38.6689 19.1187C39.0509 18.9931 39.8447 18.9301 40.7097 18.9566C41.8779 18.9924 42.2773 19.0743 42.9957 19.4258ZM25.4479 35.386C25.6286 36.5816 25.751 37.5852 25.7199 37.6163C25.6889 37.6474 24.0782 37.6538 22.1407 37.6307L18.6181 37.5886L18.9929 36.26C19.4656 34.585 20.6852 32.1101 21.6889 30.7893C22.1134 30.2305 23.0128 29.2458 23.6874 28.601L24.9139 27.4287L25.0166 30.3204C25.0732 31.9108 25.2672 34.1904 25.4479 35.386ZM57.7546 29.1024C59.8387 31.2732 61.1596 33.5342 61.9363 36.26L62.3149 37.5886L58.7922 37.6307C56.8548 37.6538 55.244 37.6473 55.2129 37.6161C55.1816 37.585 55.3012 36.6164 55.4785 35.464C55.6643 34.2563 55.8402 32.1295 55.8938 30.4443C55.9777 27.7993 56.011 27.5334 56.2428 27.6575C56.3838 27.7329 57.0642 28.3831 57.7546 29.1024ZM26.3163 40.5194C26.625 41.8819 27.0241 43.8605 27.0241 44.029C27.0241 44.1901 26.1464 44.2317 22.7447 44.2317C19.14 44.2317 18.435 44.1949 18.2717 43.9983C18.0754 43.7617 18.0307 40.8811 18.2159 40.3984C18.2906 40.2033 18.9179 40.1677 22.2705 40.1677H26.2366L26.3163 40.5194ZM48.5944 53.2242C48.5944 53.4095 47.1564 56.7192 46.9579 56.9907C46.755 57.2683 46.4207 57.2833 40.4665 57.2833C34.5123 57.2833 34.1779 57.2683 33.975 56.9907C33.7765 56.7192 32.3385 53.4095 32.3385 53.2242C32.3385 53.1785 35.9961 53.1412 40.4665 53.1412C44.9368 53.1412 48.5944 53.1785 48.5944 53.2242ZM43.0566 60.3704C45.3031 63.0265 44.4556 67.4253 41.2102 69.9537L40.4718 70.5289L39.6773 69.924C36.4964 67.5022 35.6486 63.0043 37.8763 60.3704L38.306 59.8624H40.4665H42.6269L43.0566 60.3704ZM30.7471 61.749C30.4144 62.0988 29.7746 63.1398 29.3255 64.0623L28.509 65.7395L27.8056 65.5255C26.2885 65.0638 24.0391 65.5513 22.5917 66.6553L22.0623 67.059L21.5701 66.5992C19.9349 65.0716 17.3618 64.9633 15.5508 66.3455C14.8656 66.8687 14.8237 66.8794 14.2513 66.6798C9.84909 65.1446 5.35292 69.0187 6.07725 73.7232C6.53007 76.6649 9.21229 79.6195 11.7451 79.9667C12.581 80.0813 13.0034 79.886 13.26 79.2664C13.57 78.518 13.177 77.9599 12.051 77.5494C10.3099 76.9145 9.15727 75.7188 8.65459 74.0259C8.3637 73.0462 8.36339 72.469 8.6535 71.4966C9.15665 69.8102 10.4526 68.8622 12.2653 68.8547C13.2286 68.8506 13.4707 68.9113 14.1369 69.323C15.138 69.942 15.7448 70.9258 15.9282 72.2273C16.0867 73.3515 16.4341 73.7737 17.2011 73.7737C17.811 73.7737 18.4272 73.1527 18.4272 72.5381C18.4272 71.3667 17.8653 69.7438 17.0862 68.6649C16.8516 68.3401 16.8626 68.3117 17.313 68.0788C17.9678 67.7402 19.0284 67.7687 19.5915 68.1399C20.2452 68.5708 20.6252 69.3561 20.4245 69.8616C20.3382 70.079 20.2669 70.8195 20.2662 71.5072C20.2637 73.4934 21.028 75.1016 22.5443 76.3013C23.4007 76.9789 23.9772 77.0622 24.4918 76.5828C25.2158 75.9083 25.0923 75.1986 24.1226 74.4589C21.9672 72.8149 22.3038 69.3435 24.7279 68.2148C26.3112 67.4776 27.9425 67.8006 29.1891 69.0977C29.7197 69.65 29.94 69.7722 30.4045 69.7722C31.5088 69.7722 31.8844 68.7012 31.1562 67.6294C30.7901 67.0906 30.7717 66.9895 30.9432 66.4599C31.1817 65.7236 31.8843 64.3168 32.4925 63.3578C33.0799 62.4316 33.0822 62.1451 32.5068 61.5697C31.8838 60.9467 31.4702 60.9887 30.7471 61.749ZM48.4261 61.5697C47.8507 62.1451 47.8531 62.4316 48.4405 63.3578C49.0486 64.3168 49.7512 65.7236 49.9898 66.4599C50.1612 66.9895 50.1428 67.0906 49.7767 67.6294C49.0504 68.6982 49.4242 69.7722 50.5226 69.7722C50.9839 69.7722 51.2122 69.6426 51.7976 69.0488C52.7117 68.1216 53.6001 67.7741 54.8292 67.8631C56.0531 67.9516 57.0886 68.579 57.7343 69.6234C58.1441 70.2865 58.2073 70.5362 58.2073 71.495C58.2073 72.4155 58.1365 72.7219 57.7852 73.3194C57.553 73.7143 57.1144 74.2271 56.8104 74.4589C55.8406 75.1986 55.7172 75.9083 56.4412 76.5828C56.9557 77.0622 57.5322 76.9789 58.3886 76.3013C59.9049 75.1016 60.6693 73.4934 60.6668 71.5072C60.666 70.8195 60.5947 70.079 60.5084 69.8616C60.3077 69.3561 60.6877 68.5708 61.3414 68.1399C61.9046 67.7687 62.9651 67.7402 63.6199 68.0788C64.0703 68.3117 64.0813 68.3401 63.8467 68.6649C63.0676 69.7438 62.5057 71.3667 62.5057 72.5381C62.5057 73.1527 63.1219 73.7737 63.7318 73.7737C64.4988 73.7737 64.8463 73.3515 65.0047 72.2273C65.1881 70.9258 65.7949 69.942 66.796 69.323C67.4622 68.9113 67.7043 68.8506 68.6676 68.8547C70.4803 68.8622 71.7763 69.8102 72.2794 71.4966C72.5695 72.469 72.5692 73.0462 72.2783 74.0259C71.7756 75.7188 70.623 76.9145 68.8819 77.5494C67.7559 77.9599 67.3629 78.518 67.6729 79.2664C67.7775 79.5187 68.0046 79.801 68.1776 79.8937C68.6576 80.1505 69.7727 79.9295 70.8447 79.3652C73.5935 77.918 75.3102 74.6501 74.8436 71.7525C74.2107 67.8232 70.3109 65.3969 66.6847 66.6762C66.1073 66.8799 66.0698 66.8704 65.3821 66.3455C63.5711 64.9633 60.998 65.0716 59.3629 66.5992L58.8706 67.059L58.3412 66.6553C58.0502 66.4332 57.4085 66.0632 56.9154 65.833C56.1414 65.4716 55.8163 65.4144 54.5341 65.4141C53.6956 65.4137 52.9157 65.4919 52.7425 65.5935C52.4602 65.759 52.3706 65.6388 51.6135 64.0792C50.7332 62.266 49.8072 61.1128 49.2318 61.1128C49.0399 61.1128 48.6774 61.3184 48.4261 61.5697Z" fill="#FF7D61"/>
</g>
<defs>
<clipPath id="clip0_2009_443">
<rect width="80" height="80" fill="white"/>
</clipPath>
</defs>
</svg>
