<svg width="80" height="80" viewBox="0 0 80 80" fill="none" xmlns="http://www.w3.org/2000/svg">
<g id="Frame 18" clip-path="url(#clip0_2009_448)">
<path id="requirement 1 (Traced)" fill-rule="evenodd" clip-rule="evenodd" d="M34.7575 0.219531C32.2943 0.764088 30.0831 2.359 28.7675 4.54004L28.4255 5.10695L26.5897 5.18057C24.5958 5.26044 23.9274 5.45035 22.5659 6.32376C21.8436 6.78704 21.6539 6.83221 20.065 6.91927C16.755 7.10043 14.8725 7.89163 12.7853 9.97905C10.6306 12.1335 9.82724 14.1123 9.82724 17.2641V19.0013L8.66654 19.2533C5.55659 19.9282 2.69844 22.0789 1.25609 24.8295C0.401581 26.4589 0.0974164 27.5992 0.0169207 29.4742C-0.0784237 31.6938 0.217926 33.0982 1.19294 35.0479C2.57731 37.8163 5.36184 40.0286 8.34237 40.7284C8.94413 40.8696 9.52448 41.0077 9.63186 41.0352C9.78535 41.0745 9.82724 42.9923 9.82724 49.9665C9.82724 59.7735 9.82145 59.7054 10.8334 61.805C12.1671 64.5726 14.4489 66.4006 17.5642 67.1974C18.7238 67.4939 19.2979 67.51 28.7648 67.51H38.7432V68.8136C38.7432 71.6694 39.8587 74.2596 42.0274 76.4396C43.157 77.575 43.6029 77.9013 44.8466 78.502C48.302 80.1713 52.0941 80.0552 55.3075 78.1817C56.6165 77.4184 58.5154 75.5221 59.2633 74.231C60.5931 71.9357 61.0641 69.1168 60.5502 66.5291L60.2777 65.1574L60.9912 64.3946C61.8742 63.4506 62.7057 62.1659 63.1412 61.0729C63.8885 59.1973 63.8966 58.9831 63.9024 40.9657L63.9079 24.0339L63.4327 23.5588C63.0351 23.1611 62.8756 23.0994 62.4558 23.1805C62.1798 23.2338 61.8309 23.4257 61.6805 23.6069C61.4237 23.9162 61.407 24.9824 61.407 41.0795C61.407 56.0226 61.3761 58.3421 61.1658 59.1541C60.8598 60.3364 60.4456 61.1954 59.7296 62.1332L59.163 62.8754L58.9202 62.4965C58.3885 61.6667 56.7362 60.0783 55.6865 59.3878C54.048 58.3098 52.3577 57.7905 50.1872 57.6983C48.0479 57.6073 46.7529 57.8703 44.909 58.7702C42.7253 59.8362 40.8103 61.7667 39.7973 63.9235L39.2902 65.0029L29.0462 65.0061C17.7574 65.0095 17.8091 65.0134 16.0879 64.0347C14.9424 63.3832 13.7781 62.1767 13.1412 60.9813C12.2141 59.2412 12.1776 58.8037 12.1744 49.418L12.1718 40.9386H12.6522C13.4022 40.9386 15.4222 40.204 16.6231 39.4946C17.9854 38.6899 19.7243 36.9523 20.4989 35.622C23.9396 29.7124 21.1603 22.0301 14.7376 19.6982C14.0571 19.4513 13.2015 19.1995 12.8361 19.139L12.1718 19.0288V17.8209C12.1718 15.1344 12.8529 13.3449 14.5024 11.6978C15.7292 10.4727 17.0736 9.76538 18.6926 9.49326C19.3131 9.38901 19.8553 9.33821 19.8975 9.38026C19.9397 9.42246 19.8637 9.87605 19.7287 10.3882C18.8965 13.5443 20.7243 17.0222 23.8944 18.315L24.7541 18.6656H36.7894H48.8247L49.7237 18.3025C51.4484 17.6061 52.9548 16.0892 53.6082 14.3912C54.0577 13.2229 54.1676 11.279 53.8432 10.2326C53.7113 9.80665 53.6382 9.42355 53.6807 9.38104C53.7232 9.33837 54.2657 9.38854 54.8862 9.49232C57.9554 10.0055 60.462 12.3314 61.1663 15.3196C61.3085 15.9228 61.4033 17.0825 61.4047 18.2357C61.4067 19.9319 61.4422 20.1856 61.7157 20.4591C62.3778 21.1212 63.3148 20.9663 63.7678 20.1199C64.0162 19.6559 63.8458 15.6714 63.5285 14.5235C62.7553 11.7265 60.7696 9.30398 58.2028 8.02636C56.6945 7.27549 55.6865 7.03306 53.5919 6.9174C51.9326 6.82565 51.7414 6.78204 51.1058 6.34815C49.8833 5.51427 48.9952 5.26122 47.0091 5.18135L45.1935 5.10836L44.544 4.12052C42.4696 0.96525 38.515 -0.61106 34.7575 0.219531ZM38.9221 2.79696C40.7254 3.3573 42.1285 4.56896 43.0108 6.32751C43.6242 7.54995 43.6437 7.55777 46.3087 7.64764C48.5219 7.7222 48.7137 7.75362 49.3944 8.1525C50.8449 9.00263 51.5512 10.2441 51.5565 11.953C51.5622 13.753 50.6312 15.2025 48.9911 15.9475C48.3919 16.2196 47.6973 16.2361 36.781 16.2394L25.2063 16.2429L24.3945 15.8384C22.8021 15.0448 21.926 13.4827 22.0493 11.6568C22.1296 10.467 22.5156 9.63815 23.3818 8.79459C24.3218 7.87897 25.1264 7.64624 27.3508 7.64624C29.4623 7.64624 29.8999 7.5262 30.2702 6.84581C31.4748 4.63257 32.7199 3.45733 34.5039 2.84916C35.8483 2.39088 37.5507 2.37072 38.9221 2.79696ZM34.9124 5.27732C31.9278 6.68935 31.3344 10.5322 33.7637 12.7162C36.0591 14.7802 39.5042 14.0725 40.9438 11.2412C41.2127 10.7121 41.3026 10.2668 41.3067 9.44371C41.3236 6.04617 37.9431 3.84356 34.9124 5.27732ZM38.0218 7.65999C39.651 8.94151 38.8159 11.467 36.7733 11.4361C35.2459 11.413 34.2978 9.95607 34.8891 8.54091C35.3594 7.41522 37.0914 6.92818 38.0218 7.65999ZM13.6226 21.8705C15.5939 22.4795 17.6388 24.2249 18.5911 26.1115C20.2875 29.472 19.6638 33.4614 17.0317 36.0869C14.8849 38.2284 11.7387 39.0955 8.83378 38.3465C5.94563 37.6017 3.57467 35.2655 2.68188 32.2842C2.35036 31.1776 2.36067 28.9084 2.70251 27.7311C3.82507 23.8646 7.50427 21.2292 11.4229 21.4848C12.0858 21.5281 13.0755 21.7016 13.6226 21.8705ZM8.36347 24.0694C8.04852 24.317 7.95161 24.532 7.95161 24.983C7.95161 25.7371 8.34424 26.1021 9.26736 26.2062L9.97057 26.2854L10.0161 30.9425L10.0617 35.5997L10.4406 36.0028C10.9307 36.524 11.5911 36.5318 12.1007 36.0221L12.4844 35.6386V30.0756V24.5127L12.1007 24.1291C11.7477 23.776 11.5994 23.7454 10.2461 23.7454C8.99477 23.7454 8.7139 23.7937 8.36347 24.0694ZM27.083 25.998C26.2987 26.3434 26.1297 27.3489 26.757 27.9383L27.1188 28.2781H36.665C45.5267 28.2781 46.2347 28.2586 46.5405 28.0046C47.0742 27.5615 47.1264 26.848 46.6644 26.3108L46.2729 25.8555L36.9202 25.82C29.297 25.7911 27.478 25.824 27.083 25.998ZM27.0697 31.8715C26.301 32.1873 26.1468 33.3742 26.8071 33.8936C27.2087 34.2095 27.3801 34.2176 33.6915 34.2176H40.1641L40.5477 33.8339C41.0336 33.3481 41.0358 32.7936 40.5542 32.2335L40.1772 31.7949L33.7942 31.7632C30.2836 31.7457 27.2576 31.7945 27.0697 31.8715ZM28.5054 38.45C25.1944 39.0094 22.0821 41.3183 20.5715 44.3359C19.6016 46.2732 19.3038 47.6829 19.3956 49.9023C19.5438 53.4814 20.9402 55.6298 22.2603 54.3095C22.7439 53.8261 22.7405 53.5763 22.2303 52.0785C21.184 49.007 22.0173 45.5721 24.3705 43.2566C27.7529 39.9283 33.0474 39.9441 36.4132 43.2924C38.0651 44.9356 38.8942 46.9425 38.8976 49.3071C38.9012 51.7638 38.0012 53.8719 36.2392 55.5342C33.2626 58.3421 29.2924 58.698 25.5885 56.4888C24.2863 55.7122 23.7896 55.6723 23.3438 56.3089C22.9191 56.9152 23.049 57.5875 23.6934 58.1188C24.597 58.8635 26.2621 59.6737 27.5846 60.0119C29.0543 60.3878 31.5012 60.4198 32.9337 60.0822C36.0634 59.3443 38.749 57.1631 40.2423 54.1462C41.153 52.3062 41.4549 50.8613 41.3522 48.8319C41.0166 42.2005 35.015 37.3504 28.5054 38.45ZM28.6495 43.1841C26.9808 43.939 25.7818 46.2911 26.6688 47.0699C27.4327 47.7406 28.3011 47.5108 28.7231 46.5263C28.8808 46.1587 29.1073 45.7795 29.2264 45.6837C29.9097 45.135 30.9331 45.3507 31.3352 46.1282C31.7644 46.9585 31.4478 47.562 28.4397 51.6453C26.4795 54.3064 26.3543 54.6806 27.1888 55.3827C27.6692 55.7869 27.6729 55.7874 30.6345 55.7874C33.5739 55.7874 33.6027 55.7841 33.983 55.4036C34.4488 54.938 34.4839 54.2475 34.068 53.7337C33.7956 53.397 33.6194 53.3578 32.0578 53.2865L30.3461 53.2084L31.592 51.489C32.2773 50.5434 33.0846 49.2591 33.3859 48.635C33.8753 47.6218 33.9272 47.3931 33.8704 46.5024C33.7882 45.2094 33.1843 44.1869 32.1114 43.5236C31.4818 43.1344 31.1563 43.045 30.2399 43.0095C29.5393 42.9823 28.9533 43.0467 28.6495 43.1841ZM42.9812 45.4323C42.8 45.5827 42.6081 45.9316 42.5548 46.2076C42.4735 46.6282 42.5354 46.7868 42.9372 47.1887L43.4168 47.6682L51.1753 47.6248L58.934 47.5815L59.2327 47.2125C59.6747 46.6663 59.6233 45.8789 59.1195 45.4828C58.7156 45.1651 58.5609 45.1588 51.0092 45.1588C43.9069 45.1588 43.285 45.1801 42.9812 45.4323ZM42.8782 51.482C42.3922 51.9678 42.39 52.5224 42.8716 53.0824L43.2489 53.521H48.0253C52.6619 53.521 52.8113 53.5114 53.1285 53.1943C53.5794 52.7432 53.5755 51.9708 53.1197 51.4855L52.7558 51.0983H48.0088H43.2617L42.8782 51.482ZM52.539 60.554C53.9361 61.0318 54.9569 61.7056 56.0152 62.8488C57.5287 64.4834 58.281 66.4109 58.281 68.6535C58.281 71.05 57.4704 73.0097 55.7801 74.6999C51.1125 79.3676 43.3508 77.2866 41.4671 70.8624C41.0886 69.572 41.1226 67.4336 41.5429 66.0921C41.7198 65.527 42.137 64.6478 42.4699 64.1383C44.7371 60.6682 48.7235 59.2491 52.539 60.554ZM48.5508 62.5751C47.2323 63.0456 46.2655 64.1794 46.1258 65.4193C46.0606 65.9973 46.1089 66.1821 46.4082 66.5006C47.08 67.2159 47.9764 66.9362 48.4339 65.8689C48.764 65.0988 49.1143 64.8529 49.8813 64.8529C50.9962 64.8529 51.5765 66.2698 50.8002 67.0961C50.6059 67.3029 50.1948 67.5132 49.8869 67.563C48.7729 67.7439 48.2403 68.7673 48.8638 69.5287C49.0141 69.7125 49.489 69.9488 49.9188 70.054C50.5781 70.2155 50.7491 70.3369 51.0129 70.8315L51.3255 71.4176L51.0129 72.0037C50.5926 72.7918 49.7375 73.0413 49.0952 72.5631C48.8605 72.3884 48.6062 72.0416 48.53 71.7924C48.199 70.7078 48.0707 70.4967 47.6319 70.315C46.6949 69.9268 45.8162 70.7799 45.9958 71.9032C46.3445 74.0838 48.4602 75.6015 50.5473 75.1682C53.0578 74.647 54.3109 71.9492 53.1299 69.6078C52.7272 68.8095 52.6963 68.6603 52.8895 68.4469C53.6074 67.6535 53.8112 65.7416 53.2984 64.6124C52.937 63.8172 51.7675 62.7763 50.9649 62.5359C50.1715 62.2981 49.2864 62.3125 48.5508 62.5751ZM64.2477 64.902C63.7969 65.382 63.8145 66.0241 64.2916 66.5011L64.6751 66.8848H72.0012H79.3272L79.6672 66.5231C80.0997 66.0627 80.1127 65.2712 79.6944 64.8529C79.3905 64.549 79.1734 64.5403 71.9846 64.5403H64.5876L64.2477 64.902ZM64.8457 70.429C63.9093 70.7907 63.6354 71.7846 64.2916 72.4406L64.6751 72.8243H68.9533H73.2314L73.5953 72.4372C74.0509 71.952 74.055 71.1794 73.6042 70.7283C73.2915 70.4152 73.1066 70.4004 69.179 70.3701C66.9246 70.3527 64.9746 70.3793 64.8457 70.429Z" fill="#FF7D61"/>
</g>
<defs>
<clipPath id="clip0_2009_448">
<rect width="80" height="80" fill="white"/>
</clipPath>
</defs>
</svg>
