<svg width="60" height="60" viewBox="0 0 60 60" fill="none" xmlns="http://www.w3.org/2000/svg">
<rect width="60" height="60" fill="#1E1E1E"/>
<g id="Home" clip-path="url(#clip0_2009_2)">
<rect width="1920" height="8666" transform="translate(-315 -15)" fill="#0F141C"/>
<g id="Group 2">
<g id="Group 1">
<circle id="Ellipse 3" cx="30" cy="30" r="30" fill="#FFDB59"/>
<path id="Vector" fill-rule="evenodd" clip-rule="evenodd" d="M13.792 10.3514C13.7313 10.4135 13.7143 13.7839 13.7143 25.7868C13.7143 34.9694 13.7376 41.1428 13.7722 41.1428C13.8041 41.1428 14.1119 40.8766 14.4564 40.5511C16.9493 38.1959 20.2135 35.727 23.3125 33.8531C23.7434 33.5925 24.0869 33.3701 24.0759 33.3587C24.0648 33.3475 22.6683 33.6587 20.9724 34.0505C19.2765 34.4423 17.8617 34.7535 17.8284 34.7421C17.795 34.7307 17.9226 34.6594 18.1118 34.5835C18.301 34.5076 19.4582 34.0016 20.6833 33.459C24.1959 31.9034 25.5554 31.3048 25.7279 31.2376C25.816 31.2034 25.8743 31.1614 25.8575 31.1442C25.8303 31.1164 19.0925 30.4534 17.8193 30.3532C17.5393 30.3312 17.2603 30.295 17.1993 30.2727C17.1382 30.2504 18.8996 30.0597 21.1134 29.8489C26.3913 29.3463 25.9275 29.3995 25.7749 29.3141C25.7049 29.2749 23.8648 28.4573 21.686 27.4972C19.5071 26.5371 17.7315 25.7446 17.74 25.7362C17.7526 25.7237 25.8566 27.5765 26.2717 27.6867C26.335 27.7035 26.378 27.6921 26.3672 27.6615C26.3565 27.6308 24.8584 26.2667 23.0382 24.6301C21.2179 22.9934 19.7144 21.6388 19.6968 21.6197C19.648 21.5666 19.5604 21.5139 23.5712 23.9448C25.6496 25.2044 27.3629 26.222 27.3786 26.2059C27.3942 26.1899 26.4418 24.5109 25.262 22.4749C22.7725 18.1785 22.8465 18.3075 22.8917 18.3498C22.9108 18.3677 24.235 19.9062 25.8345 21.7688C27.4339 23.6313 28.7652 25.1635 28.7929 25.1737C28.8205 25.1839 28.7479 24.759 28.6317 24.2294C28.5155 23.6998 28.0787 21.7134 27.661 19.8151C27.2435 17.9167 26.9083 16.3563 26.9162 16.3475C26.9241 16.3388 27.6983 18.1557 28.6366 20.3852C30.4015 24.579 30.4506 24.6924 30.4818 24.656C30.4921 24.644 30.6825 22.6196 30.905 20.1574C31.1274 17.6951 31.3272 15.7316 31.349 15.7941C31.3708 15.8566 31.4062 16.1421 31.4277 16.4287C31.5256 17.7315 32.1735 24.6258 32.2007 24.6536C32.2175 24.6708 32.2573 24.6148 32.2892 24.5292C32.3334 24.4107 35.0891 17.8592 35.6279 16.5915C35.6812 16.4661 35.7272 16.3955 35.73 16.4345C35.7328 16.4736 35.3071 18.4508 34.784 20.8284C33.954 24.5999 33.811 25.3125 33.9101 25.1823C33.9822 25.0875 39.594 18.5526 39.6935 18.4475C39.7614 18.3759 39.6388 18.625 39.4211 19.001C36.5921 23.8892 35.564 25.663 35.4058 25.9291C35.2519 26.1879 35.2383 26.2388 35.3327 26.2021C35.4452 26.1582 42.2073 22.0747 42.6883 21.7602C42.8195 21.6743 42.927 21.6166 42.927 21.6318C42.927 21.647 41.3502 23.0866 39.423 24.831C37.4958 26.5753 35.9285 28.0121 35.9401 28.024C35.9516 28.0359 36.5189 27.8708 37.2006 27.6574C38.784 27.1614 40.7149 26.6321 42.1853 26.2909C44.0577 25.8563 43.8705 25.9416 44.1825 25.3812C45.0304 23.8581 45.4286 22.2774 45.4286 20.4337C45.4286 18.1414 44.7874 16.1658 43.4531 14.3465C42.0053 12.3727 39.9486 11.033 37.4854 10.4593L36.849 10.3112L25.3593 10.2915C16.3773 10.2761 13.8527 10.2892 13.792 10.3514Z" fill="#0F141C"/>
<path id="Subtract" fill-rule="evenodd" clip-rule="evenodd" d="M29.94 32.224C33.6587 29.8509 36.9594 28.597 40.2803 28.2958C40.4393 28.2814 40.9451 28.2824 41.4044 28.2981C44.0738 28.3892 46.051 29.2223 47.7719 30.9809C48.8653 32.0983 49.5735 33.3002 50.0638 34.8709C50.8185 37.2885 50.7264 40.2734 49.8228 42.6704C48.1287 47.1652 44.3097 49.9864 39.2253 50.4992C38.3018 50.5923 13.8911 50.5968 13.7512 50.5039C13.6698 50.4498 13.7096 50.3305 14.0081 49.733C17.1914 43.3644 23.7118 36.1985 29.94 32.224ZM38.7167 32.1457C38.7769 32.1039 38.8755 32.0524 38.9357 32.0312C39.0017 32.0079 39.1375 31.996 39.2778 32.0011C39.3439 32.0036 39.3966 32.0031 39.448 32.0108C39.7143 32.0511 39.9471 32.3127 41.8435 34.3485C43.7028 36.3443 43.963 36.6061 43.9957 36.8937C44.0031 36.959 43.9988 37.0256 43.9988 37.114C43.9988 37.5553 43.9775 37.5887 43.1011 38.5288C42.2246 39.4688 42.1934 39.4916 41.782 39.4916C41.7006 39.4916 41.6391 39.4961 41.5791 39.4887C41.3095 39.4554 41.0698 39.1804 39.1901 37.1642C37.3798 35.2225 37.1653 34.9826 37.0975 34.8245C36.9646 34.5144 36.9801 34.1332 37.137 33.8559C37.2207 33.7079 38.5693 32.248 38.7167 32.1457ZM32.8463 37.059C34.08 36.9902 35.2339 36.5897 36.5683 35.7671C36.6502 35.7166 36.7327 35.691 36.8142 35.6908L36.9369 35.6904L38.7505 37.6355L40.5641 39.5806L40.5638 39.7122C40.5635 39.7996 40.5397 39.8881 40.4926 39.9759C39.7256 41.4071 39.3522 42.6447 39.288 43.9678C39.2694 44.3524 39.2389 44.4647 39.1335 44.5381C39.1 44.5614 37.2758 45.131 35.0797 45.8038C31.2505 46.9769 30.9618 47.0714 30.8429 46.9688C30.8282 46.9561 30.8161 46.9404 30.8002 46.9234C30.7217 46.8392 30.6877 46.6241 30.7373 46.5248C30.7903 46.4186 34.8694 42.3026 34.977 42.2467C35.0457 42.2111 35.1758 42.1893 35.3947 42.1768C35.7698 42.1554 35.944 42.0826 36.1255 41.8714C36.3259 41.6383 36.3631 41.5299 36.3631 41.1793C36.3631 40.902 36.3558 40.8564 36.2903 40.7244C35.9835 40.1059 35.2564 39.9747 34.794 40.4545C34.5919 40.6642 34.5371 40.8157 34.5158 41.2234C34.5017 41.4932 34.4842 41.603 34.441 41.693C34.3808 41.8185 30.5625 46.1722 30.4622 46.2298C30.4281 46.2493 30.3485 46.2575 30.2768 46.2488C30.118 46.2296 30 46.0961 30 45.9355C30 45.8129 32.2565 37.3206 32.3146 37.2247C32.383 37.1116 32.4877 37.079 32.8463 37.059Z" fill="#0F141C"/>
</g>
</g>
</g>
<defs>
<clipPath id="clip0_2009_2">
<rect width="1920" height="8666" fill="white" transform="translate(-315 -15)"/>
</clipPath>
</defs>
</svg>
