<svg width="178" height="56" viewBox="0 0 178 56" fill="none" xmlns="http://www.w3.org/2000/svg">
<path d="M74.0312 18.5781C74.0312 17.25 74.0156 16.0938 73.9844 15.1094C73.9531 14.1094 73.9062 13.25 73.8438 12.5312C73.7812 11.7969 73.7031 11.1875 73.6094 10.7031C73.5312 10.2187 73.4453 9.8125 73.3516 9.48438V9.39062C73.6641 9.40625 73.9922 9.41406 74.3359 9.41406C74.6328 9.42969 74.9609 9.4375 75.3203 9.4375C75.6953 9.4375 76.0781 9.4375 76.4688 9.4375C77.0312 9.4375 77.7891 9.38281 78.7422 9.27344C79.7109 9.16406 80.9531 9.10938 82.4688 9.10938C83.875 9.10938 85.1719 9.29688 86.3594 9.67188C87.5469 10.0312 88.5703 10.5547 89.4297 11.2422C90.3047 11.9297 90.9844 12.7813 91.4688 13.7969C91.9688 14.7969 92.2188 15.9375 92.2188 17.2188C92.2188 18.2969 92.0703 19.2656 91.7734 20.125C91.4766 20.9688 91.0547 21.7109 90.5078 22.3516C89.9766 22.9766 89.3281 23.5078 88.5625 23.9453C87.8125 24.3672 86.9844 24.7031 86.0781 24.9531C87.4062 25.1562 88.6172 25.5 89.7109 25.9844C90.8047 26.4531 91.7422 27.0469 92.5234 27.7656C93.3203 28.4844 93.9297 29.3281 94.3516 30.2969C94.7891 31.25 95.0078 32.3125 95.0078 33.4844C95.0078 36.7812 93.9219 39.2578 91.75 40.9141C89.5781 42.5547 86.3281 43.375 82 43.375C81.5312 43.375 80.9844 43.3516 80.3594 43.3047C79.7344 43.2734 79.0938 43.2344 78.4375 43.1875C77.7969 43.1406 77.1641 43.0938 76.5391 43.0469C75.9141 43.0156 75.3672 43 74.8984 43H73.3516V42.9062C73.4453 42.5781 73.5312 42.1719 73.6094 41.6875C73.7031 41.2031 73.7812 40.6016 73.8438 39.8828C73.9062 39.1641 73.9531 38.3125 73.9844 37.3281C74.0156 36.3281 74.0312 35.1641 74.0312 33.8359V18.5781ZM82.6328 26.3828C81.5703 26.3828 80.6797 26.4219 79.9609 26.5C79.2422 26.5781 78.6875 26.6562 78.2969 26.7344V33.8359C78.2969 35.6641 78.3281 37.1719 78.3906 38.3594C78.4531 39.5469 78.5391 40.5156 78.6484 41.2656C79.2422 41.3438 79.8359 41.4141 80.4297 41.4766C81.0234 41.5391 81.5 41.5703 81.8594 41.5703C84.7812 41.5703 86.9141 40.9219 88.2578 39.625C89.6172 38.3125 90.2969 36.3047 90.2969 33.6016C90.2969 32.5391 90.1328 31.5703 89.8047 30.6953C89.4922 29.8047 89.0156 29.0391 88.375 28.3984C87.75 27.7578 86.9531 27.2656 85.9844 26.9219C85.0312 26.5625 83.9141 26.3828 82.6328 26.3828ZM78.2969 24.625C78.7344 24.6719 79.125 24.7031 79.4688 24.7188C79.8125 24.7188 80.1797 24.7188 80.5703 24.7188C81.6328 24.7188 82.6016 24.5703 83.4766 24.2734C84.3516 23.9609 85.0938 23.5 85.7031 22.8906C86.3281 22.2812 86.8125 21.5234 87.1562 20.6172C87.5 19.6953 87.6719 18.625 87.6719 17.4062C87.6719 16.3906 87.5469 15.4687 87.2969 14.6406C87.0469 13.8125 86.6719 13.1094 86.1719 12.5312C85.6875 11.9375 85.0859 11.4844 84.3672 11.1719C83.6484 10.8594 82.8281 10.7031 81.9062 10.7031C81.3125 10.7031 80.7891 10.7266 80.3359 10.7734C79.8984 10.8203 79.5234 10.875 79.2109 10.9375C78.8516 11 78.5469 11.0781 78.2969 11.1719V24.625ZM100.703 28.1641C100.703 26.8359 100.68 25.6797 100.633 24.6953C100.602 23.6953 100.555 22.8359 100.492 22.1172C100.445 21.3984 100.375 20.7969 100.281 20.3125C100.203 19.8281 100.117 19.4219 100.023 19.0938V19H105.438V19.0938C105.344 19.4219 105.258 19.8281 105.18 20.3125C105.102 20.7969 105.031 21.3984 104.969 22.1172C104.906 22.8359 104.859 23.6953 104.828 24.6953C104.797 25.6797 104.781 26.8359 104.781 28.1641V33.8359C104.781 35.1641 104.797 36.3281 104.828 37.3281C104.859 38.3125 104.906 39.1641 104.969 39.8828C105.031 40.6016 105.102 41.2031 105.18 41.6875C105.258 42.1719 105.344 42.5781 105.438 42.9062V43H100.023V42.9062C100.117 42.5781 100.203 42.1719 100.281 41.6875C100.375 41.2031 100.445 40.6016 100.492 39.8828C100.555 39.1641 100.602 38.3125 100.633 37.3281C100.68 36.3281 100.703 35.1641 100.703 33.8359V28.1641ZM100.211 11.8984C100.211 11.5547 100.273 11.2344 100.398 10.9375C100.539 10.625 100.719 10.3594 100.938 10.1406C101.156 9.90625 101.414 9.72656 101.711 9.60156C102.023 9.46094 102.359 9.39062 102.719 9.39062C103.078 9.39062 103.406 9.46094 103.703 9.60156C104.016 9.72656 104.281 9.90625 104.5 10.1406C104.734 10.3594 104.914 10.625 105.039 10.9375C105.18 11.2344 105.25 11.5547 105.25 11.8984C105.25 12.6172 105.008 13.2187 104.523 13.7031C104.039 14.1875 103.438 14.4297 102.719 14.4297C102.359 14.4297 102.023 14.3672 101.711 14.2422C101.414 14.1016 101.156 13.9219 100.938 13.7031C100.719 13.4688 100.539 13.2031 100.398 12.9062C100.273 12.5938 100.211 12.2578 100.211 11.8984ZM110.172 30.9531C110.172 29.1875 110.5 27.5547 111.156 26.0547C111.812 24.5391 112.711 23.2266 113.852 22.1172C115.008 21.0078 116.367 20.1406 117.93 19.5156C119.492 18.8906 121.172 18.5781 122.969 18.5781C124.734 18.5781 126.391 18.875 127.938 19.4688C129.5 20.0469 130.859 20.875 132.016 21.9531C133.172 23.0312 134.078 24.3438 134.734 25.8906C135.406 27.4375 135.742 29.1719 135.742 31.0938C135.742 32.7031 135.461 34.25 134.898 35.7344C134.336 37.2188 133.508 38.5312 132.414 39.6719C131.32 40.8125 129.977 41.7266 128.383 42.4141C126.805 43.0859 124.984 43.4219 122.922 43.4219C121.172 43.4219 119.523 43.1328 117.977 42.5547C116.43 41.9766 115.078 41.1484 113.922 40.0703C112.766 38.9922 111.852 37.6875 111.18 36.1562C110.508 34.6094 110.172 32.875 110.172 30.9531ZM123.461 41.7109C124.57 41.7109 125.586 41.4922 126.508 41.0547C127.445 40.6172 128.25 39.9844 128.922 39.1562C129.594 38.3281 130.117 37.3203 130.492 36.1328C130.867 34.9453 131.055 33.6016 131.055 32.1016C131.055 30.4141 130.875 28.8516 130.516 27.4141C130.156 25.9609 129.617 24.7109 128.898 23.6641C128.195 22.6016 127.305 21.7734 126.227 21.1797C125.148 20.5859 123.891 20.2891 122.453 20.2891C121.344 20.2891 120.328 20.5078 119.406 20.9453C118.484 21.3672 117.68 21.9844 116.992 22.7969C116.32 23.6094 115.797 24.6094 115.422 25.7969C115.047 26.9688 114.859 28.3047 114.859 29.8047C114.859 31.4922 115.039 33.0625 115.398 34.5156C115.773 35.9688 116.32 37.2344 117.039 38.3125C117.758 39.375 118.648 40.2109 119.711 40.8203C120.789 41.4141 122.039 41.7109 123.461 41.7109ZM150.086 53.7109C151.352 53.7109 152.422 53.5703 153.297 53.2891C154.172 53.0234 154.891 52.6484 155.453 52.1641C156.031 51.6797 156.469 51.0938 156.766 50.4062C157.078 49.7344 157.305 48.9922 157.445 48.1797C157.602 47.3672 157.688 46.5 157.703 45.5781C157.734 44.6562 157.75 43.7031 157.75 42.7188V41.9453C156.984 42.3516 156.062 42.7031 154.984 43C153.906 43.2812 152.688 43.4219 151.328 43.4219C149.469 43.4219 147.781 43.1328 146.266 42.5547C144.75 41.9766 143.453 41.1484 142.375 40.0703C141.312 38.9922 140.492 37.6875 139.914 36.1562C139.336 34.6094 139.047 32.875 139.047 30.9531C139.047 29.1875 139.328 27.5469 139.891 26.0312C140.469 24.5156 141.273 23.2031 142.305 22.0938C143.352 20.9844 144.594 20.1172 146.031 19.4922C147.484 18.8516 149.086 18.5312 150.836 18.5312C151.586 18.5312 152.273 18.5938 152.898 18.7188C153.523 18.8438 154.102 19.0156 154.633 19.2344C155.18 19.4375 155.688 19.6797 156.156 19.9609C156.641 20.2266 157.109 20.5156 157.562 20.8281L157.328 19.0938V19H162.508V19.0938C162.414 19.4219 162.32 19.8281 162.227 20.3125C162.148 20.7969 162.078 21.3984 162.016 22.1172C161.969 22.8359 161.922 23.6953 161.875 24.6953C161.844 25.6797 161.828 26.8359 161.828 28.1641V44.1016C161.828 45.5391 161.633 46.9375 161.242 48.2969C160.867 49.6719 160.219 50.8906 159.297 51.9531C158.391 53.0156 157.188 53.8672 155.688 54.5078C154.188 55.1484 152.32 55.4688 150.086 55.4688C149.305 55.4688 148.516 55.3906 147.719 55.2344C146.922 55.0938 146.164 54.9141 145.445 54.6953C144.727 54.4922 144.078 54.2656 143.5 54.0156C142.922 53.7656 142.461 53.5469 142.117 53.3594L141.391 48.8594L141.766 48.7656C142.141 49.5781 142.648 50.2891 143.289 50.8984C143.945 51.5234 144.656 52.0391 145.422 52.4453C146.188 52.8672 146.977 53.1797 147.789 53.3828C148.617 53.6016 149.383 53.7109 150.086 53.7109ZM152.383 41.7109C153.508 41.7109 154.523 41.5234 155.43 41.1484C156.352 40.7734 157.125 40.3359 157.75 39.8359V28.1641C157.75 27.2891 157.742 26.5 157.727 25.7969C157.711 25.0781 157.703 24.4297 157.703 23.8516C157.328 23.2734 156.891 22.7656 156.391 22.3281C155.906 21.875 155.383 21.5 154.82 21.2031C154.273 20.8906 153.711 20.6562 153.133 20.5C152.555 20.3281 151.984 20.2422 151.422 20.2422C150.234 20.2422 149.164 20.4609 148.211 20.8984C147.258 21.3359 146.445 21.9688 145.773 22.7969C145.117 23.6094 144.609 24.6094 144.25 25.7969C143.906 26.9688 143.734 28.3047 143.734 29.8047C143.734 31.4922 143.922 33.0625 144.297 34.5156C144.672 35.9688 145.219 37.2344 145.938 38.3125C146.672 39.375 147.578 40.2109 148.656 40.8203C149.734 41.4141 150.977 41.7109 152.383 41.7109ZM169.188 28.1641C169.188 26.8359 169.164 25.6797 169.117 24.6953C169.086 23.6953 169.039 22.8359 168.977 22.1172C168.93 21.3984 168.859 20.7969 168.766 20.3125C168.688 19.8281 168.602 19.4219 168.508 19.0938V19H173.922V19.0938C173.828 19.4219 173.742 19.8281 173.664 20.3125C173.586 20.7969 173.516 21.3984 173.453 22.1172C173.391 22.8359 173.344 23.6953 173.312 24.6953C173.281 25.6797 173.266 26.8359 173.266 28.1641V33.8359C173.266 35.1641 173.281 36.3281 173.312 37.3281C173.344 38.3125 173.391 39.1641 173.453 39.8828C173.516 40.6016 173.586 41.2031 173.664 41.6875C173.742 42.1719 173.828 42.5781 173.922 42.9062V43H168.508V42.9062C168.602 42.5781 168.688 42.1719 168.766 41.6875C168.859 41.2031 168.93 40.6016 168.977 39.8828C169.039 39.1641 169.086 38.3125 169.117 37.3281C169.164 36.3281 169.188 35.1641 169.188 33.8359V28.1641ZM168.695 11.8984C168.695 11.5547 168.758 11.2344 168.883 10.9375C169.023 10.625 169.203 10.3594 169.422 10.1406C169.641 9.90625 169.898 9.72656 170.195 9.60156C170.508 9.46094 170.844 9.39062 171.203 9.39062C171.562 9.39062 171.891 9.46094 172.188 9.60156C172.5 9.72656 172.766 9.90625 172.984 10.1406C173.219 10.3594 173.398 10.625 173.523 10.9375C173.664 11.2344 173.734 11.5547 173.734 11.8984C173.734 12.6172 173.492 13.2187 173.008 13.7031C172.523 14.1875 171.922 14.4297 171.203 14.4297C170.844 14.4297 170.508 14.3672 170.195 14.2422C169.898 14.1016 169.641 13.9219 169.422 13.7031C169.203 13.4688 169.023 13.2031 168.883 12.9062C168.758 12.5938 168.695 12.2578 168.695 11.8984Z" fill="#F1BE87"/>
<path fill-rule="evenodd" clip-rule="evenodd" d="M32.4776 0.564577C33.6168 1.12303 34.6254 2.16583 35.1677 3.34662C35.7088 4.52454 35.7059 6.88434 35.1618 8.06944C34.6648 9.15189 33.4667 10.3479 32.3284 10.8983C31.0064 11.5372 28.9436 11.5311 27.5667 10.884C25.4545 9.89159 24.2719 8.02583 24.2699 5.68326C24.2688 4.47735 24.3414 4.17659 24.8955 3.08803C25.6032 1.698 26.7598 0.671352 28.1194 0.226311C29.3504 -0.176738 31.2693 -0.0277943 32.4776 0.564577ZM28.5598 2.62917C26.138 3.73137 25.8768 7.03221 28.0967 8.48289C29.8451 9.62547 32.1122 8.96185 32.9767 7.05463C33.3947 6.13279 33.3942 5.2655 32.9749 4.3555C32.1645 2.59615 30.2645 1.85322 28.5598 2.62917ZM11.2836 10.5462C18.0874 10.9511 23.1113 12.1513 27.274 14.3662L28.6673 15.1077L27.7936 15.9833L26.9198 16.8586L25.4287 16.1075C21.9947 14.3775 17.1172 13.2509 11.7276 12.9425L9.68901 12.8258L11.1754 16.6659C11.9928 18.7781 13.0435 21.4953 13.51 22.7045L14.3584 24.9028H15.1494H15.9403V26.1401C15.9403 30.516 12.3767 34.0548 7.97015 34.0548C3.56364 34.0548 0 30.516 0 26.1401V24.9028H0.787523H1.57487L2.2483 23.1531C2.61869 22.1907 3.66484 19.4856 4.57325 17.1415L6.22478 12.8795H5.35111H4.47761V11.7233V10.5672L5.23881 10.4985C6.76191 10.361 8.38818 10.374 11.2836 10.5462ZM54.2423 10.4823L55.3433 10.5977V11.7385V12.8795H54.5182C53.8094 12.8795 53.7088 12.9238 53.8042 13.1935C53.8653 13.3661 54.8984 16.0716 56.1 19.2052L58.2847 24.9028H59.1424H60L59.9989 25.5757C59.9957 27.6564 59.1584 29.9854 57.9156 31.3707C55.5326 34.0268 51.5885 34.82 48.4619 33.2717C45.6167 31.8628 43.8887 29.1315 43.8828 26.0342L43.8806 24.9225L44.7104 24.8678L45.5404 24.813L47.4464 19.8781C48.4947 17.1639 49.5337 14.4664 49.7552 13.8837L50.1582 12.8242L48.1064 12.9417C41.7478 13.3055 36.2586 14.7806 32.5617 17.1188C32.187 17.3559 31.8806 17.6114 31.8806 17.6868C31.8806 17.7624 32.2114 18.2652 32.6158 18.8043C35.8146 23.07 36.0629 28.443 33.3507 34.7084C32.966 35.5972 32.3507 36.8379 31.9836 37.4658L31.3159 38.6073L32.2546 39.9649C32.7707 40.7116 33.7911 42.0697 34.522 42.9825L35.8508 44.6425H39.7761H43.7015V45.8986V47.1548H29.9104H16.1194V45.8986V44.6425H20.0574H23.9953L25.1171 43.2802C28.3322 39.3756 31.2292 34.3635 32.1476 31.1166C33.4444 26.5334 32.8725 22.7032 30.4698 19.8781L29.9357 19.25L29.3934 19.8781C29.0952 20.2235 28.5673 21.0393 28.2206 21.6911C26.6712 24.6034 26.6361 28.2192 28.1185 32.2603C29.1539 35.0831 29.1299 34.7364 28.3791 36.0198L27.7076 37.1678L27.0804 35.9252C25.5005 32.7954 24.7261 29.7709 24.7204 26.7088C24.7157 24.2451 25.0184 22.8471 25.9857 20.8651C28.9003 14.8931 36.7302 11.2565 48.1791 10.5572C51.2755 10.368 52.9528 10.3474 54.2423 10.4823ZM7.10472 17.135C6.65212 18.2982 5.80137 20.5017 5.21409 22.0315L4.14627 24.813L6.11302 24.8638C7.19463 24.8918 8.91439 24.8918 9.93474 24.8638L11.7901 24.813L9.93027 19.9883C8.90758 17.3347 8.03839 15.1312 7.99916 15.0918C7.95976 15.0523 7.55713 15.9718 7.10472 17.135ZM50.0029 19.8361C48.9933 22.4748 48.17 24.694 48.1732 24.7682C48.1764 24.8423 49.8802 24.9028 51.9595 24.9028C55.485 24.9028 55.7319 24.8816 55.623 24.5887C54.5398 21.6773 52.0454 15.2692 51.9568 15.1704C51.8918 15.098 51.0125 17.1976 50.0029 19.8361ZM2.50908 27.5497C2.51212 28.0957 3.53588 29.6803 4.32053 30.3532C7.01552 32.6646 11.1097 31.9161 12.9023 28.7845C13.8503 27.1283 14.1921 27.2356 7.97015 27.2356C2.88627 27.2356 2.50764 27.2573 2.50908 27.5497ZM46.4708 27.7291C46.6744 28.5551 47.6486 29.9161 48.5051 30.5715C50.1476 31.828 52.5532 32.0557 54.381 31.1278C55.5159 30.5515 56.8347 29.1062 57.1965 28.0421L57.4709 27.2356H51.91H46.3492L46.4708 27.7291ZM28.5695 42.6884C27.8158 43.6837 27.2337 44.5326 27.276 44.575C27.3183 44.6173 28.5559 44.6297 30.0261 44.6025L32.6996 44.5527L31.3198 42.7159L29.94 40.879L28.5695 42.6884ZM49.0746 50.8336V52H29.9104H10.7463V50.8336V49.6671H29.9104H49.0746V50.8336Z" fill="#F1BE87"/>
</svg>
