<svg width="168" height="60" viewBox="0 0 168 60" fill="none" xmlns="http://www.w3.org/2000/svg">
<circle cx="30" cy="30" r="30" fill="#FFDB59"/>
<path fill-rule="evenodd" clip-rule="evenodd" d="M13.792 10.3514C13.7313 10.4135 13.7143 13.7839 13.7143 25.7868C13.7143 34.9694 13.7376 41.1428 13.7722 41.1428C13.8041 41.1428 14.1119 40.8766 14.4564 40.5511C16.9493 38.1959 20.2135 35.727 23.3125 33.8531C23.7434 33.5925 24.0869 33.3701 24.0759 33.3587C24.0648 33.3475 22.6683 33.6587 20.9724 34.0505C19.2765 34.4423 17.8617 34.7535 17.8284 34.7421C17.795 34.7307 17.9226 34.6594 18.1118 34.5835C18.301 34.5076 19.4582 34.0016 20.6833 33.459C24.1959 31.9034 25.5554 31.3048 25.7279 31.2376C25.816 31.2034 25.8743 31.1614 25.8575 31.1442C25.8303 31.1164 19.0925 30.4534 17.8193 30.3532C17.5393 30.3312 17.2603 30.295 17.1993 30.2727C17.1382 30.2504 18.8996 30.0597 21.1134 29.8489C26.3913 29.3463 25.9275 29.3995 25.7749 29.3141C25.7049 29.2749 23.8648 28.4573 21.686 27.4972C19.5071 26.5371 17.7315 25.7446 17.74 25.7362C17.7526 25.7237 25.8566 27.5765 26.2717 27.6867C26.335 27.7035 26.378 27.6921 26.3672 27.6615C26.3565 27.6308 24.8584 26.2667 23.0382 24.6301C21.2179 22.9934 19.7144 21.6388 19.6968 21.6197C19.648 21.5666 19.5604 21.5139 23.5712 23.9448C25.6496 25.2044 27.3629 26.222 27.3786 26.2059C27.3942 26.1899 26.4418 24.5109 25.262 22.4749C22.7725 18.1785 22.8465 18.3075 22.8917 18.3498C22.9108 18.3677 24.235 19.9062 25.8345 21.7688C27.4339 23.6313 28.7652 25.1635 28.7929 25.1737C28.8205 25.1839 28.7479 24.759 28.6317 24.2294C28.5155 23.6998 28.0787 21.7134 27.661 19.8151C27.2435 17.9167 26.9083 16.3563 26.9162 16.3475C26.9241 16.3388 27.6983 18.1557 28.6366 20.3852C30.4015 24.579 30.4506 24.6924 30.4818 24.656C30.4921 24.644 30.6825 22.6196 30.905 20.1574C31.1274 17.6951 31.3272 15.7316 31.349 15.7941C31.3708 15.8566 31.4062 16.1421 31.4277 16.4287C31.5256 17.7315 32.1735 24.6258 32.2007 24.6536C32.2175 24.6708 32.2573 24.6148 32.2892 24.5292C32.3334 24.4107 35.0891 17.8592 35.6279 16.5915C35.6812 16.4661 35.7272 16.3955 35.73 16.4345C35.7328 16.4736 35.3071 18.4508 34.784 20.8284C33.954 24.5999 33.811 25.3125 33.9101 25.1823C33.9822 25.0875 39.594 18.5526 39.6935 18.4475C39.7614 18.3759 39.6388 18.625 39.4211 19.001C36.5921 23.8892 35.564 25.663 35.4058 25.9291C35.2519 26.1879 35.2383 26.2388 35.3327 26.2021C35.4452 26.1582 42.2073 22.0747 42.6883 21.7602C42.8195 21.6743 42.927 21.6166 42.927 21.6318C42.927 21.647 41.3502 23.0866 39.423 24.831C37.4958 26.5753 35.9285 28.0121 35.9401 28.024C35.9516 28.0359 36.5189 27.8708 37.2006 27.6574C38.784 27.1614 40.7149 26.6321 42.1853 26.2909C44.0577 25.8563 43.8705 25.9416 44.1825 25.3812C45.0304 23.8581 45.4286 22.2774 45.4286 20.4337C45.4286 18.1414 44.7874 16.1658 43.4531 14.3465C42.0053 12.3727 39.9486 11.033 37.4854 10.4593L36.849 10.3112L25.3593 10.2915C16.3773 10.2761 13.8527 10.2892 13.792 10.3514Z" fill="#0F141C"/>
<path fill-rule="evenodd" clip-rule="evenodd" d="M29.94 32.224C33.6587 29.8509 36.9594 28.597 40.2803 28.2958C40.4393 28.2814 40.9451 28.2824 41.4044 28.2981C44.0738 28.3892 46.051 29.2223 47.7719 30.9809C48.8653 32.0983 49.5735 33.3002 50.0638 34.8709C50.8185 37.2885 50.7264 40.2734 49.8228 42.6704C48.1287 47.1652 44.3097 49.9864 39.2253 50.4992C38.3018 50.5923 13.8911 50.5968 13.7512 50.5039C13.6698 50.4498 13.7096 50.3305 14.0081 49.733C17.1914 43.3644 23.7118 36.1985 29.94 32.224ZM38.7167 32.1457C38.7769 32.1039 38.8755 32.0524 38.9357 32.0312C39.0017 32.0079 39.1375 31.996 39.2778 32.0011C39.3439 32.0036 39.3966 32.0031 39.448 32.0108C39.7143 32.0511 39.9471 32.3127 41.8435 34.3485C43.7028 36.3443 43.963 36.6061 43.9957 36.8937C44.0031 36.959 43.9988 37.0256 43.9988 37.114C43.9988 37.5553 43.9775 37.5887 43.1011 38.5288C42.2246 39.4688 42.1934 39.4916 41.782 39.4916C41.7006 39.4916 41.6391 39.4961 41.5791 39.4887C41.3095 39.4554 41.0698 39.1804 39.1901 37.1642C37.3798 35.2225 37.1653 34.9826 37.0975 34.8245C36.9646 34.5144 36.9801 34.1332 37.137 33.8559C37.2207 33.7079 38.5693 32.248 38.7167 32.1457ZM32.8463 37.059C34.08 36.9902 35.2339 36.5897 36.5683 35.7671C36.6502 35.7166 36.7327 35.691 36.8142 35.6908L36.9369 35.6904L38.7505 37.6355L40.5641 39.5806L40.5638 39.7122C40.5635 39.7996 40.5397 39.8881 40.4926 39.9759C39.7256 41.4071 39.3522 42.6447 39.288 43.9678C39.2694 44.3524 39.2389 44.4647 39.1335 44.5381C39.1 44.5614 37.2758 45.131 35.0797 45.8038C31.2505 46.9769 30.9618 47.0714 30.8429 46.9688C30.8282 46.9561 30.8161 46.9404 30.8002 46.9234C30.7217 46.8392 30.6877 46.6241 30.7373 46.5248C30.7903 46.4186 34.8694 42.3026 34.977 42.2467C35.0457 42.2111 35.1758 42.1893 35.3947 42.1768C35.7698 42.1554 35.944 42.0826 36.1255 41.8714C36.3259 41.6383 36.3631 41.5299 36.3631 41.1793C36.3631 40.902 36.3558 40.8564 36.2903 40.7244C35.9835 40.1059 35.2564 39.9747 34.794 40.4545C34.5919 40.6642 34.5371 40.8157 34.5158 41.2234C34.5017 41.4932 34.4842 41.603 34.441 41.693C34.3808 41.8185 30.5625 46.1722 30.4622 46.2298C30.4281 46.2493 30.3485 46.2575 30.2768 46.2488C30.118 46.2296 30 46.0961 30 45.9355C30 45.8129 32.2565 37.3206 32.3146 37.2247C32.383 37.1116 32.4877 37.079 32.8463 37.059Z" fill="#0F141C"/>
<path d="M84.1 11.5C86.1667 11.5 87.86 11.7867 89.18 12.36C90.5133 12.9333 91.5 13.76 92.14 14.84C92.78 15.9067 93.1 17.1667 93.1 18.62C93.1 20.0733 92.8133 21.3133 92.24 22.34C91.6667 23.3533 90.94 24.14 90.06 24.7C89.18 25.2467 88.2867 25.5533 87.38 25.62C88.3267 25.6467 89.3 25.8933 90.3 26.36C91.3 26.8133 92.14 27.5533 92.82 28.58C93.5 29.5933 93.84 30.9467 93.84 32.64C93.84 34.24 93.5133 35.6733 92.86 36.94C92.22 38.1933 91.1867 39.1867 89.76 39.92C88.3333 40.64 86.4267 41 84.04 41H72.44V11.5H84.1ZM78.38 25.16L76.32 23.42H82.2C83.7733 23.42 84.9533 23.0867 85.74 22.42C86.5267 21.74 86.92 20.8267 86.92 19.68C86.92 18.9067 86.7533 18.2733 86.42 17.78C86.0867 17.2733 85.5933 16.9 84.94 16.66C84.2867 16.42 83.48 16.3 82.52 16.3H75.58L78.38 13.34V25.16ZM82.84 36.18C84.36 36.18 85.5133 35.8333 86.3 35.14C87.1 34.4333 87.5 33.48 87.5 32.28C87.5 31.6 87.38 31.0067 87.14 30.5C86.9133 29.9933 86.5867 29.5733 86.16 29.24C85.7333 28.8933 85.2133 28.6333 84.6 28.46C84 28.2733 83.3333 28.18 82.6 28.18H76.32L78.38 26.46V39.14L75.58 36.18H82.84ZM97.805 41V19.76H103.945V41H97.805ZM100.865 16.3C99.905 16.3 99.065 16.0467 98.345 15.54C97.6383 15.0333 97.285 14.32 97.285 13.4C97.285 12.4667 97.6383 11.7467 98.345 11.24C99.065 10.7333 99.905 10.48 100.865 10.48C101.838 10.48 102.678 10.7333 103.385 11.24C104.105 11.7467 104.465 12.4667 104.465 13.4C104.465 14.3333 104.105 15.0533 103.385 15.56C102.678 16.0533 101.838 16.3 100.865 16.3ZM119.154 41.46C116.86 41.46 114.84 40.9867 113.094 40.04C111.347 39.0933 109.98 37.7933 108.994 36.14C108.02 34.4733 107.534 32.5533 107.534 30.38C107.534 28.22 108.02 26.3133 108.994 24.66C109.98 22.9933 111.347 21.7 113.094 20.78C114.84 19.8467 116.86 19.38 119.154 19.38C121.447 19.38 123.467 19.8467 125.214 20.78C126.96 21.7 128.32 22.9933 129.294 24.66C130.28 26.3133 130.774 28.22 130.774 30.38C130.774 32.5533 130.28 34.4733 129.294 36.14C128.32 37.7933 126.96 39.0933 125.214 40.04C123.467 40.9867 121.447 41.46 119.154 41.46ZM119.154 36.54C120.234 36.54 121.174 36.2867 121.974 35.78C122.774 35.2733 123.394 34.56 123.834 33.64C124.274 32.7067 124.494 31.62 124.494 30.38C124.494 29.14 124.274 28.0667 123.834 27.16C123.394 26.24 122.774 25.5333 121.974 25.04C121.174 24.5467 120.234 24.3 119.154 24.3C118.087 24.3 117.147 24.5467 116.334 25.04C115.534 25.5333 114.914 26.24 114.474 27.16C114.034 28.0667 113.814 29.14 113.814 30.38C113.814 31.62 114.034 32.7067 114.474 33.64C114.914 34.56 115.534 35.2733 116.334 35.78C117.147 36.2867 118.087 36.54 119.154 36.54ZM149.307 38.48C150.613 38.6133 151.753 38.8667 152.727 39.24C153.713 39.6 154.48 40.14 155.027 40.86C155.573 41.5667 155.847 42.5133 155.847 43.7C155.847 45.0733 155.393 46.24 154.487 47.2C153.593 48.1733 152.28 48.9133 150.547 49.42C148.813 49.9267 146.713 50.18 144.247 50.18C140.607 50.18 137.787 49.6533 135.787 48.6C133.8 47.56 132.807 46.1667 132.807 44.42C132.807 43.9267 132.86 43.48 132.967 43.08C133.087 42.6933 133.233 42.36 133.407 42.08L139.047 42.9C138.98 42.9933 138.907 43.1333 138.827 43.32C138.76 43.52 138.727 43.7667 138.727 44.06C138.727 44.7667 139.253 45.2933 140.307 45.64C141.373 45.9867 142.747 46.16 144.427 46.16C145.613 46.16 146.627 46.0733 147.467 45.9C148.32 45.74 148.967 45.5 149.407 45.18C149.86 44.86 150.087 44.4933 150.087 44.08C150.087 43.48 149.793 43.0867 149.207 42.9C148.633 42.7133 147.967 42.58 147.207 42.5L139.167 41.68C137.687 41.5333 136.46 41.1067 135.487 40.4C134.513 39.6933 134.027 38.74 134.027 37.54C134.027 36.7933 134.233 36.1133 134.647 35.5C135.06 34.8733 135.533 34.36 136.067 33.96C136.6 33.5467 137.047 33.2867 137.407 33.18L140.567 34.78C140.313 34.82 140.013 34.98 139.667 35.26C139.333 35.54 139.167 35.8667 139.167 36.24C139.167 36.6133 139.353 36.9333 139.727 37.2C140.113 37.4667 140.813 37.6467 141.827 37.74L149.307 38.48ZM151.407 19.76H156.867L154.647 27.92C154.233 29.4667 153.62 30.8467 152.807 32.06C151.993 33.26 150.907 34.2067 149.547 34.9C148.2 35.5933 146.5 35.94 144.447 35.94C142.287 35.94 140.413 35.6067 138.827 34.94C137.253 34.2733 136.04 33.3333 135.187 32.12C134.333 30.8933 133.907 29.4467 133.907 27.78C133.907 26.1133 134.34 24.6467 135.207 23.38C136.087 22.1133 137.28 21.1267 138.787 20.42C140.307 19.7133 142.027 19.36 143.947 19.36C145.4 19.36 146.727 19.6 147.927 20.08C149.14 20.5467 150.113 21.1667 150.847 21.94C151.593 22.7133 151.98 23.5667 152.007 24.5L150.867 24.8L151.407 19.76ZM144.407 31.4C145.287 31.4 146.06 31.26 146.727 30.98C147.393 30.6867 147.913 30.2667 148.287 29.72C148.66 29.16 148.847 28.4867 148.847 27.7C148.847 26.9267 148.66 26.2667 148.287 25.72C147.913 25.1733 147.393 24.7533 146.727 24.46C146.06 24.1667 145.287 24.02 144.407 24.02C143.567 24.02 142.807 24.1733 142.127 24.48C141.46 24.7733 140.933 25.2 140.547 25.76C140.16 26.3067 139.967 26.9733 139.967 27.76C139.967 28.5333 140.153 29.1933 140.527 29.74C140.9 30.2733 141.42 30.6867 142.087 30.98C142.753 31.26 143.527 31.4 144.407 31.4ZM159.641 41V19.76H165.781V41H159.641ZM162.701 16.3C161.741 16.3 160.901 16.0467 160.181 15.54C159.474 15.0333 159.121 14.32 159.121 13.4C159.121 12.4667 159.474 11.7467 160.181 11.24C160.901 10.7333 161.741 10.48 162.701 10.48C163.674 10.48 164.514 10.7333 165.221 11.24C165.941 11.7467 166.301 12.4667 166.301 13.4C166.301 14.3333 165.941 15.0533 165.221 15.56C164.514 16.0533 163.674 16.3 162.701 16.3Z" fill="white"/>
</svg>
