<svg width="48" height="48" viewBox="0 0 48 48" fill="none" xmlns="http://www.w3.org/2000/svg">
<g id="Frame 20">
<g id="Group 34">
<path id="Vector" d="M2 24C2 26.8891 2.56905 29.7499 3.67465 32.419C4.78025 35.0882 6.40076 37.5135 8.44365 39.5563C10.4865 41.5992 12.9118 43.2197 15.581 44.3254C18.2501 45.431 21.1109 46 24 46C26.8891 46 29.7499 45.431 32.419 44.3254C35.0882 43.2197 37.5135 41.5992 39.5563 39.5563C41.5992 37.5135 43.2197 35.0882 44.3254 32.419C45.431 29.7499 46 26.8891 46 24C46 21.1109 45.431 18.2501 44.3254 15.581C43.2197 12.9118 41.5992 10.4865 39.5563 8.44365C37.5135 6.40076 35.0882 4.78025 32.419 3.67465C29.7499 2.56905 26.8891 2 24 2C21.1109 2 18.2501 2.56905 15.581 3.67465C12.9118 4.78025 10.4865 6.40076 8.44365 8.44365C6.40076 10.4865 4.78025 12.9118 3.67465 15.581C2.56905 18.2501 2 21.1109 2 24Z" stroke="#FFDB59" stroke-width="2" stroke-linecap="round" stroke-linejoin="round"/>
<path id="Vector_2" d="M22.7778 2C19.3402 4.54625 16.5471 7.86263 14.6225 11.6832C12.698 15.5037 11.6955 19.7221 11.6955 24C11.6955 28.2779 12.698 32.4963 14.6225 36.3168C16.5471 40.1374 19.3402 43.4538 22.7778 46" stroke="#FFDB59" stroke-width="2" stroke-linecap="round" stroke-linejoin="round"/>
<path id="Vector_3" d="M25.2222 2C28.6598 4.54625 31.4529 7.86263 33.3775 11.6832C35.302 15.5037 36.3045 19.7221 36.3045 24C36.3045 28.2779 35.302 32.4963 33.3775 36.3168C31.4529 40.1374 28.6598 43.4538 25.2222 46" stroke="#FFDB59" stroke-width="2" stroke-linecap="round" stroke-linejoin="round"/>
<path id="Vector_4" d="M24 2V46" stroke="#FFDB59" stroke-width="2" stroke-linecap="round" stroke-linejoin="round"/>
</g>
</g>
</svg>
