<svg width="48" height="48" viewBox="0 0 48 48" fill="none" xmlns="http://www.w3.org/2000/svg">
<g id="Frame 19">
<g id="Group 35">
<path id="Vector" d="M45.8149 26.8419C46.22 23.7388 45.9584 20.5851 45.0474 17.5913C44.1363 14.5974 42.5969 11.8325 40.532 9.48113C38.4671 7.12976 35.9241 5.2461 33.0731 3.956C30.222 2.6659 27.1285 1.99905 23.9991 2C18.1646 2 12.569 4.31776 8.44339 8.44339C4.31776 12.569 2 18.1646 2 23.9991C2 29.8336 4.31776 35.4292 8.44339 39.5548C12.569 43.6804 18.1646 45.9982 23.9991 45.9982" stroke="#FFDB59" stroke-width="2" stroke-linecap="round" stroke-linejoin="round"/>
<path id="Vector_2" d="M16.6661 19.1104H16.6905" stroke="#FFDB59" stroke-width="3" stroke-linecap="round" stroke-linejoin="round"/>
<path id="Vector_3" d="M31.3321 19.1104H31.3566" stroke="#FFDB59" stroke-width="3" stroke-linecap="round" stroke-linejoin="round"/>
<path id="Vector_4" d="M17.8882 31.3322C19.4966 32.8965 21.7014 33.7765 23.9991 33.7765C26.2968 33.7765 28.5016 32.8965 30.11 31.3322" stroke="#FFDB59" stroke-width="2" stroke-linecap="round" stroke-linejoin="round"/>
<path id="Vector_5" d="M31.3321 41.1095L36.2208 45.9982L45.9982 36.2208" stroke="#FFDB59" stroke-width="2" stroke-linecap="round" stroke-linejoin="round"/>
</g>
</g>
</svg>
