<svg width="80" height="80" viewBox="0 0 80 80" fill="none" xmlns="http://www.w3.org/2000/svg">
<g id="Frame 5" clip-path="url(#clip0_2009_89)">
<path id="fast 1 (Traced)" fill-rule="evenodd" clip-rule="evenodd" d="M2.02631 0.411792C1.12552 0.860779 0.392112 1.72187 0.126595 2.64282C0.0165758 3.02429 -0.0206184 15.0766 0.0106372 40.3319L0.0564266 77.4603L0.529324 78.2252C0.822501 78.6994 1.29321 79.1701 1.76736 79.4633L2.53234 79.9362L26.1425 79.979C51.9743 80.0259 50.4261 80.0765 51.5298 79.1477L51.9663 78.7805L52.9112 79.0746C55.0534 79.7413 56.2513 79.9082 58.8951 79.9082C61.6338 79.9082 62.7717 79.7393 65.201 78.9718C70.286 77.3655 74.8923 73.4866 77.3252 68.7623C78.968 65.5723 79.5189 63.4656 79.636 59.927C79.7954 55.1042 78.7288 51.2843 76.1411 47.4113C73.1781 42.9763 67.8582 39.47 62.7629 38.5938L61.7081 38.4123V37.6672V36.9219L62.7825 36.8161C64.2682 36.6697 65.3345 36.0189 65.9813 34.8639C67.0637 32.9314 66.2167 30.4743 64.1745 29.6226C63.3306 29.2705 54.4751 29.264 53.6357 29.6147C53.327 29.7436 53.0481 29.8491 53.0156 29.8491C52.9831 29.8491 52.9565 23.9804 52.9565 16.8075C52.9565 7.97017 52.9015 3.50953 52.7859 2.97022C52.5539 1.88862 51.8176 0.956733 50.7786 0.429764L49.9311 0H26.3919H2.85271L2.02631 0.411792ZM49.4009 2.50857C50.5278 2.8216 50.4561 1.51246 50.4561 21.7715V39.9642L49.4793 40.4472C46.797 41.7737 43.6784 44.4581 41.8691 46.9979C39.5888 50.1987 38.1406 54.3611 38.0637 57.9357C38.034 59.3156 38.0557 59.4294 38.4009 59.7105C39.3003 60.4425 40.4543 59.8154 40.4543 58.5945C40.4543 58.2684 40.5283 57.4517 40.619 56.7792C41.7773 48.183 48.5188 41.6612 57.1544 40.7828C63.1129 40.1767 69.3519 42.7761 73.0889 47.4211C77.6001 53.029 78.5278 60.6268 75.4751 66.9651C71.4439 75.3353 62.3913 79.3178 53.4749 76.6435C49.6245 75.4886 45.9876 72.864 43.7472 69.6231C42.7295 68.1511 41.6801 65.9426 41.2219 64.3084C41.0291 63.6207 40.7299 62.9 40.5574 62.7065C40.1544 62.255 39.3234 62.2355 38.8915 62.6674C38.39 63.1689 38.4269 63.7575 39.0821 65.7149C40.5898 70.2186 43.4537 73.909 47.5188 76.5862L48.8791 77.4821L46.6593 77.5857C45.4383 77.6426 35.1757 77.6675 23.8533 77.6406L3.26716 77.592L2.83395 77.1586L2.4006 76.7254V40.0162V3.307L2.7716 2.91208C2.9757 2.69486 3.29216 2.48779 3.47485 2.45184C4.26437 2.29697 48.8372 2.35198 49.4009 2.50857ZM7.96268 7.98424C7.11097 8.32477 6.90718 9.28728 7.55073 9.93068L7.93424 10.3143H26.433H44.9318L45.2717 9.95272C45.6064 9.59625 45.7044 9.01942 45.5144 8.52418C45.2351 7.79639 45.6961 7.81327 26.4361 7.82374C15.2202 7.82999 8.19601 7.89094 7.96268 7.98424ZM7.87032 13.9298C7.07159 14.3746 6.92781 15.2465 7.55073 15.8692L7.93424 16.2529H13.7026C19.3016 16.2529 19.483 16.2434 19.8826 15.9289C20.3863 15.5329 20.4377 14.7456 19.9958 14.1996L19.6971 13.8306L13.94 13.7932C9.93694 13.7673 8.08771 13.8089 7.87032 13.9298ZM23.3418 13.9298C22.5431 14.3746 22.3993 15.2465 23.0222 15.8692L23.4058 16.2529H29.1741C34.7731 16.2529 34.9545 16.2434 35.3541 15.9289C35.8578 15.5329 35.9092 14.7456 35.4673 14.1996L35.1686 13.8306L29.4115 13.7932C25.4085 13.7673 23.5592 13.8089 23.3418 13.9298ZM7.55073 26.7946C6.87468 27.4705 7.20708 28.6064 8.14818 28.8361C8.33916 28.8828 14.8133 28.9013 22.5353 28.877L36.575 28.8333L36.8738 28.4643C37.2884 27.9522 37.2596 27.1725 36.8108 26.7507L36.449 26.411H22.1916H7.93424L7.55073 26.7946ZM39.9003 26.7946C39.2758 27.419 39.4336 28.2955 40.2486 28.7297C40.7689 29.0067 44.4187 28.9705 44.9751 28.6828C45.7171 28.2991 45.8562 27.3205 45.2498 26.7507C44.9121 26.4336 44.7344 26.411 42.5859 26.411C40.35 26.411 40.2727 26.4221 39.9003 26.7946ZM63.5656 32.1542C63.7467 32.3047 63.9386 32.6533 63.9919 32.9293C64.073 33.3491 64.0113 33.5085 63.6137 33.9061L63.1386 34.3811H58.9774C54.6302 34.3811 54.0783 34.3049 53.8349 33.6709C53.6449 33.1756 53.7429 32.5988 54.0776 32.2423C54.4172 31.8809 54.4199 31.8807 58.8269 31.8807C62.7965 31.8807 63.2691 31.9079 63.5656 32.1542ZM7.49104 32.7613C7.08003 33.2838 7.08003 33.7595 7.49104 34.2819L7.81484 34.6937H13.5077C18.9922 34.6937 19.2119 34.6823 19.513 34.3811C19.7065 34.1877 19.8256 33.8603 19.8256 33.5216C19.8256 33.183 19.7065 32.8556 19.513 32.6621C19.2119 32.3609 18.9922 32.3495 13.5077 32.3495H7.81484L7.49104 32.7613ZM55.078 36.833L56.0821 36.9268V37.6547V38.3828L54.7928 38.6344C54.0836 38.7729 53.3803 38.9349 53.23 38.9945C52.9817 39.0929 52.9565 38.9726 52.9565 37.6877V36.2724L53.5152 36.5059C53.8224 36.6342 54.5257 36.7814 55.078 36.833ZM59.2076 37.5848C59.2076 38.2307 59.1757 38.2881 58.8169 38.2881C58.4581 38.2881 58.4262 38.2307 58.4262 37.5848C58.4262 36.9389 58.4581 36.8816 58.8169 36.8816C59.1757 36.8816 59.2076 36.9389 59.2076 37.5848ZM56.2383 42.1496C55.0338 42.3601 53.2319 42.9058 52.0302 43.4237C50.1882 44.2179 48.621 45.2839 46.9912 46.8512C40.4779 53.1148 39.9831 63.2263 45.8488 70.1974C49.3324 74.3373 55.1794 76.6914 60.5444 76.1136C68.2233 75.2869 74.3611 69.6045 75.7028 62.0802C75.987 60.4857 75.9858 57.717 75.6999 56.0852C75.0966 52.6393 73.4994 49.602 70.936 47.0251C68.4502 44.5264 65.4447 42.932 61.9816 42.2751C60.8209 42.0549 57.2291 41.9764 56.2383 42.1496ZM60.536 44.5555C66.1348 45.2387 70.8633 49.005 72.676 54.225C73.7122 57.2093 73.7127 60.9365 72.6771 63.9177C70.8388 69.2092 66.1178 72.9732 60.4907 73.6335C57.1549 74.0248 53.4022 73.1053 50.6123 71.213C49.5745 70.5092 47.707 68.6646 46.9195 67.5658C44.8474 64.6744 43.8489 60.6368 44.3531 57.1883C45.4205 49.8891 51.2012 44.7238 58.6607 44.4039C58.9185 44.3929 59.7624 44.4611 60.536 44.5555ZM7.87032 45.0406C7.0794 45.4941 6.93672 46.3547 7.55073 46.9686L7.93424 47.3522H21.2122C28.5151 47.3522 34.604 47.3085 34.7431 47.2552C35.028 47.1458 35.4534 46.4058 35.4534 46.0196C35.4534 45.8798 35.2479 45.5599 34.9966 45.3086L34.5398 44.8518L21.3613 44.8565C11.7434 44.86 8.09849 44.9097 7.87032 45.0406ZM58.0285 45.548C57.668 45.9084 57.6448 46.0346 57.6448 47.6366C57.6448 49.1249 57.6859 49.394 57.9688 49.7534C58.3648 50.2569 59.152 50.3085 59.6982 49.8667C60.0389 49.5912 60.0712 49.4356 60.12 47.837L60.1728 46.1056L59.7022 45.6349C59.1245 45.0571 58.5491 45.0273 58.0285 45.548ZM51.849 47.0837C51.45 47.39 51.2117 47.962 51.3278 48.3349C51.5277 48.9766 52.8263 51.1035 53.1619 51.3385C53.8993 51.855 54.9881 51.3232 54.9881 50.4467C54.9881 49.9236 53.8864 47.7999 53.322 47.235C52.9376 46.8502 52.2458 46.7791 51.849 47.0837ZM64.3051 47.4089C64.0371 47.6981 63.5409 48.4602 63.2024 49.1028C62.6323 50.1847 62.6015 50.3065 62.7859 50.7517C63.0331 51.3482 63.7502 51.6833 64.3374 51.4769C64.6258 51.3754 64.9971 50.9119 65.573 49.9349C66.5317 48.3082 66.6222 47.7088 65.9846 47.2073C65.3839 46.7348 64.8733 46.796 64.3051 47.4089ZM7.84141 50.9477C7.10112 51.246 6.94453 52.3011 7.55073 52.9071L7.93424 53.2908H13.1056H18.277L18.6605 52.9071C18.9025 52.6654 19.0442 52.345 19.0442 52.0406C19.0442 51.7361 18.9025 51.4157 18.6605 51.174L18.277 50.7903L13.2299 50.8002C10.4541 50.8056 8.02926 50.8721 7.84141 50.9477ZM21.772 51.174C21.5301 51.4157 21.3884 51.7361 21.3884 52.0406C21.3884 52.345 21.5301 52.6654 21.772 52.9071L22.1555 53.2908H27.3269H32.4983L32.8818 52.9071C33.1237 52.6654 33.2655 52.345 33.2655 52.0406C33.2655 51.7361 33.1237 51.4157 32.8818 51.174L32.4983 50.7903H27.3269H22.1555L21.772 51.174ZM47.0179 51.8843C46.5699 52.3323 46.6012 53.2101 47.0809 53.6499C47.2874 53.8392 48.0448 54.3046 48.764 54.684C50.0085 55.3405 50.0943 55.363 50.5359 55.1513C50.7913 55.0289 51.0951 54.7309 51.211 54.4888C51.5677 53.7449 51.2495 53.3027 49.6972 52.3836C48.1883 51.4903 47.5338 51.3684 47.0179 51.8843ZM68.1903 52.2897C66.7577 53.1145 66.3944 53.4721 66.4014 54.0504C66.4102 54.7856 67.2028 55.4329 67.8479 55.2321C68.4896 55.0322 70.6165 53.7335 70.8516 53.398C71.1734 52.9384 71.1433 52.4697 70.7608 51.9835C70.2773 51.3687 69.6628 51.4418 68.1903 52.2897ZM61.4246 53.3817C61.2305 53.5177 60.7865 54.0803 60.4382 54.632L59.8048 55.6349L58.9201 55.6384C57.7855 55.6428 56.9233 56.0361 56.2029 56.8777C54.5409 58.8194 55.4377 61.7299 57.9202 62.4516C59.6118 62.9434 61.408 62.0794 62.0905 60.4455C62.4163 59.6655 62.4001 58.347 62.0564 57.6666L61.78 57.1196L62.5254 55.9331C63.4818 54.4108 63.5071 53.8143 62.6345 53.3631C62.0724 53.0725 61.8615 53.0757 61.4246 53.3817ZM45.6607 57.9802C44.8926 58.2898 44.7377 59.4798 45.3981 59.9993C45.7576 60.2822 46.0267 60.3233 47.5149 60.3233C49.1169 60.3233 49.2432 60.3002 49.6036 59.9396C50.1996 59.3437 50.0225 58.344 49.2594 57.9963C48.8122 57.7925 46.1561 57.7806 45.6607 57.9802ZM68.4772 57.9802C67.7091 58.2898 67.5543 59.4798 68.2147 59.9993C68.5741 60.2822 68.8432 60.3233 70.3315 60.3233C71.9335 60.3233 72.0598 60.3002 72.4201 59.9396C72.9363 59.4236 72.9107 58.8433 72.347 58.2796C71.9024 57.835 71.8493 57.8231 70.3545 57.8327C69.5098 57.8381 68.6651 57.9046 68.4772 57.9802ZM59.2822 58.1621C60.0026 58.4905 60.0287 59.613 59.3248 60.0056C58.942 60.219 58.8499 60.2195 58.4808 60.0107C58.2529 59.8818 57.9918 59.6569 57.9007 59.5111C57.6661 59.1357 57.949 58.4228 58.4289 58.1801C58.9002 57.9416 58.8024 57.9436 59.2822 58.1621ZM20.315 64.0128C16.7641 67.2455 13.8036 69.83 13.7361 69.7561C13.6687 69.6823 12.7013 68.2505 11.5865 66.5744C10.4716 64.8983 9.43935 63.4274 9.29261 63.3055C8.8469 62.9358 8.1013 63.0306 7.68935 63.5096C7.48807 63.7436 7.32335 64.0915 7.32335 64.2827C7.32335 64.4739 8.41636 66.2629 9.75238 68.2584C11.5366 70.9238 12.3144 71.9558 12.6826 72.1469C13.3561 72.4967 14.3679 72.4798 14.9442 72.1093C15.6219 71.6736 28.3782 60.0346 28.486 59.7535C28.7839 58.9776 28.1618 58.1354 27.2908 58.1354C26.8264 58.1354 26.0905 58.7553 20.315 64.0128ZM48.4777 63.6533C47.8623 64.0158 47.2117 64.4454 47.0322 64.6081C46.646 64.9575 46.5999 65.7291 46.9362 66.2092C47.368 66.8257 47.8689 66.7987 49.2043 66.0873C51.0098 65.1252 51.3 64.8574 51.3 64.153C51.3 63.727 51.2004 63.4842 50.9388 63.2724C50.3815 62.8211 49.715 62.9242 48.4777 63.6533ZM66.7204 63.3918C66.3378 63.878 66.3078 64.3467 66.6296 64.8063C66.8876 65.1745 69.0984 66.5014 69.7097 66.6547C70.2674 66.7947 71.0847 66.0843 71.0847 65.4595C71.0847 64.8567 70.6608 64.4489 69.1902 63.6375C67.782 62.8603 67.185 62.8009 66.7204 63.3918ZM53.277 66.769C52.7435 67.0442 51.3472 69.4791 51.3382 70.1499C51.3248 71.1588 52.6951 71.6722 53.3703 70.9111C53.9745 70.23 54.9881 68.3146 54.9881 67.8537C54.9881 66.956 54.0576 66.3662 53.277 66.769ZM63.4318 66.7743C63.2196 66.8818 62.9383 67.164 62.8067 67.4016C62.5771 67.8162 62.5956 67.8868 63.2708 69.1727C63.6576 69.9092 64.129 70.6808 64.3182 70.8872C65.026 71.6595 66.3964 71.1457 66.3964 70.1082C66.3964 69.5224 64.8843 66.9602 64.4115 66.7447C63.9468 66.533 63.9063 66.5342 63.4318 66.7743ZM58.0285 68.3646C57.6673 68.7257 57.6448 68.8495 57.6448 70.4813C57.6448 72.1132 57.6673 72.237 58.0285 72.5981C58.6444 73.2142 59.5286 73.0959 59.9167 72.3454C60.1972 71.803 60.2306 69.2144 59.9635 68.7129C59.5294 67.8979 58.6528 67.7401 58.0285 68.3646Z" fill="#FF7D61"/>
</g>
<defs>
<clipPath id="clip0_2009_89">
<rect width="80" height="80" fill="white"/>
</clipPath>
</defs>
</svg>
