<svg width="80" height="80" viewBox="0 0 80 80" fill="none" xmlns="http://www.w3.org/2000/svg">
<g clip-path="url(#clip0_2009_202)">
<path d="M12.208 65.2558V75.8899C12.208 77.3582 13.3983 78.5485 14.8665 78.5485H65.3782C66.8464 78.5485 68.0367 77.3582 68.0367 75.8899V70.0081C65.2407 70.8198 62.2632 70.7555 59.5049 69.8238C51.9281 67.3639 47.7205 59.2855 50.0478 51.6669C52.3752 44.0483 60.3787 39.7001 68.0369 41.8941V18.732L50.7564 1.45166H14.8665C13.3983 1.45166 12.208 2.64196 12.208 4.11019V65.2558Z" fill="#FFDB59"/>
<path d="M68.1474 18.732V78.5485H14.9774C13.5109 78.5442 12.3231 77.3564 12.3188 75.8899V4.11019C12.3231 2.6437 13.5109 1.45594 14.9774 1.45166H50.8672L68.1474 18.732Z" fill="#FFDB59"/>
<path d="M64.1597 18.732V78.5485H14.9774C13.5109 78.5442 12.3231 77.3564 12.3188 75.8899V4.11019C12.3231 2.6437 13.5109 1.45594 14.9774 1.45166H46.8795L64.1597 18.732Z" fill="#171B22"/>
<path d="M50.8671 1.45166V16.0735C50.8671 17.5417 52.0574 18.732 53.5256 18.732H68.1474L50.8671 1.45166Z" fill="#FFDB59"/>
<path d="M78.6707 55.9511C78.6729 59.8296 77.1331 63.55 74.3904 66.2927C71.6478 69.0353 67.9274 70.5751 64.0488 70.5729C63.3813 70.5781 62.7146 70.5292 62.055 70.4267C54.8195 69.4355 49.4272 63.2542 49.4272 55.9511C49.4272 48.6479 54.8196 42.4666 62.055 41.4754C62.7146 41.3729 63.3813 41.324 64.0488 41.3292C67.9274 41.327 71.6478 42.8668 74.3904 45.6095C77.1331 48.3521 78.6729 52.0725 78.6707 55.9511Z" fill="#171B22"/>
<path d="M62.055 70.4267C69.0292 70.4267 74.683 63.9458 74.683 55.9511C74.683 47.9564 69.0292 41.4755 62.055 41.4755C55.0808 41.4755 49.427 47.9564 49.427 55.9511C49.427 63.9458 55.0808 70.4267 62.055 70.4267Z" fill="#171B22"/>
<path d="M20.1835 62.1721V62.5974C17.6446 62.5976 15.2208 61.5375 13.4974 59.673L4.07291 49.4643L8.06062 45.4766L17.7642 55.9909C19.3179 57.6746 20.1815 59.8809 20.1835 62.1721Z" fill="#171B22"/>
<path d="M8.06079 45.4765L4.07308 49.4643L2.07922 47.3109C1.02211 46.1656 1.09354 44.3803 2.2387 43.3232C3.38386 42.2661 5.1693 42.3375 6.22641 43.4827L8.06079 45.4765Z" fill="#171B22"/>
<path d="M16.1958 41.3559V4.1368C16.1958 2.66857 17.3861 1.47827 18.8544 1.47827H14.8667C13.3984 1.47827 12.2081 2.66857 12.2081 4.1368V41.3559H16.1958Z" fill="#171B22"/>
<path d="M12.208 58.303V75.9165C12.208 77.3848 13.3983 78.5751 14.8665 78.5751H18.8542C17.386 78.5751 16.1957 77.3848 16.1957 75.9165V61.2681L12.208 58.303Z" fill="#171B22"/>
<path d="M10.8788 38.6706V21.3904V4.11011H13.5373V21.3904V38.6706H10.8788Z" fill="#171B22"/>
<path d="M20.1836 29.3659H60.0611C60.7953 29.3659 61.3903 28.7707 61.3903 28.0367C61.3903 27.3025 60.7952 26.7075 60.0611 26.7075H20.1836C19.4494 26.7075 18.8544 27.3027 18.8544 28.0367C18.8542 28.7707 19.4494 29.3659 20.1836 29.3659Z" fill="#FF7D61"/>
<path d="M44.1101 67.9143H21.5127C20.7785 67.9143 20.1835 68.5095 20.1835 69.2435C20.1835 69.9775 20.7787 70.5727 21.5127 70.5727H44.1101C44.8443 70.5727 45.4393 69.9775 45.4393 69.2435C45.4393 68.5095 44.8441 67.9143 44.1101 67.9143Z" fill="#FF7D61"/>
<path d="M20.1836 36.0122H60.0611C60.7953 36.0122 61.3903 35.4171 61.3903 34.6831C61.3903 33.9489 60.7952 33.3539 60.0611 33.3539H20.1836C19.4494 33.3539 18.8544 33.949 18.8544 34.6831C18.8542 35.4171 19.4494 36.0122 20.1836 36.0122Z" fill="#FF7D61"/>
<path d="M20.1836 42.6585H49.061C49.7952 42.6585 50.3902 42.0633 50.3902 41.3293C50.3902 40.5951 49.7951 40.0001 49.061 40.0001H20.1836C19.4494 40.0001 18.8544 40.5953 18.8544 41.3293C18.8542 42.0633 19.4494 42.6585 20.1836 42.6585Z" fill="#FF7D61"/>
<path d="M20.1836 49.3047H44.9357C45.6699 49.3047 46.2649 48.7096 46.2649 47.9755C46.2649 47.2415 45.6697 46.6464 44.9357 46.6464H20.1836C19.4494 46.6464 18.8544 47.2415 18.8544 47.9755C18.8544 48.7096 19.4494 49.3047 20.1836 49.3047Z" fill="#FF7D61"/>
<path d="M44.1101 53.2925H24.1713C23.4371 53.2925 22.8421 53.8876 22.8421 54.6217C22.8421 55.3559 23.4372 55.9508 24.1713 55.9508H44.1101C44.8443 55.9508 45.4393 55.3557 45.4393 54.6217C45.4393 53.8876 44.8442 53.2925 44.1101 53.2925Z" fill="#FF7D61"/>
<path d="M80 55.951C79.9884 49.1991 75.7304 43.1848 69.3659 40.9306V18.732C69.3659 18.7036 69.3513 18.6783 69.3496 18.6502C69.3423 18.5327 69.3192 18.4167 69.2808 18.3053C69.2683 18.2635 69.2538 18.2223 69.237 18.1819C69.1743 18.0374 69.0861 17.9053 68.9765 17.792L51.6963 0.511864C51.5834 0.40259 51.4516 0.314537 51.3075 0.251982C51.2662 0.23472 51.224 0.219833 51.1813 0.207005C51.0715 0.169472 50.9573 0.146825 50.8416 0.139382C50.8123 0.137481 50.786 0.122437 50.7565 0.122437H14.8665C12.6652 0.124812 10.8812 1.90883 10.8788 4.11015V22.7197C10.8788 23.4539 11.4739 24.0489 12.208 24.0489C12.9422 24.0489 13.5372 23.4537 13.5372 22.7197V4.11015C13.5379 3.37627 14.1326 2.7816 14.8663 2.78096H49.4269V16.0734C49.4292 18.2748 51.2133 20.0588 53.4146 20.0611H66.7071V40.2297C66.6344 40.2171 66.5617 40.2181 66.489 40.2067C65.9895 40.1296 65.4833 40.0762 64.9702 40.0466C64.7856 40.0355 64.6015 40.023 64.4172 40.0185C64.2934 40.0157 64.173 39.9999 64.0485 39.9999C63.6756 39.9999 63.3105 40.0306 62.9442 40.0558C62.8056 40.0653 62.6661 40.0637 62.5282 40.0768C61.9136 40.1356 61.3027 40.2303 60.6992 40.3603C60.5717 40.3877 60.4482 40.4271 60.3216 40.4575C59.8445 40.5724 59.3756 40.706 58.9161 40.8626C58.7394 40.923 58.5658 40.9889 58.3913 41.0552C57.9764 41.2133 57.5705 41.3881 57.1734 41.5794C57.0059 41.6597 56.8374 41.7351 56.6725 41.8211C56.1765 42.0792 55.6944 42.3632 55.2281 42.6718C55.0925 42.762 54.9639 42.862 54.8305 42.9564C54.4539 43.2244 54.0873 43.5042 53.7361 43.8031C53.5395 43.9697 53.3528 44.1466 53.164 44.323C52.9062 44.5645 52.6568 44.8141 52.4159 45.0716C52.3024 45.1931 52.1746 45.2981 52.0645 45.4233C51.9908 45.5071 51.9305 45.5996 51.8588 45.6846C51.7173 45.8524 51.5862 46.0281 51.4516 46.2017C51.2609 46.4481 51.068 46.6922 50.8929 46.9483C50.7355 47.1776 50.5953 47.4185 50.4499 47.656C50.3218 47.8665 50.184 48.0712 50.066 48.2871C49.2677 49.7403 48.7028 51.31 48.3918 52.9385C48.3834 52.9824 48.3794 53.0271 48.3713 53.0711C48.2822 53.5584 48.212 54.052 48.1682 54.5536C48.1545 54.707 48.1542 54.8618 48.1447 55.016C48.1267 55.327 48.0975 55.6352 48.0975 55.9507C48.0975 56.028 48.108 56.1027 48.1092 56.1797C48.1119 56.4207 48.1322 56.6619 48.146 56.9036C48.1637 57.2024 48.1791 57.5011 48.2131 57.7954C48.2236 57.8869 48.222 57.9783 48.2339 58.0698C48.349 58.9369 48.5384 59.7926 48.8 60.6272C48.8154 60.6769 48.8319 60.7258 48.8476 60.7754C48.9823 61.1955 49.1337 61.6087 49.3022 62.0148C49.3295 62.0813 49.3543 62.1489 49.3827 62.215C49.5586 62.6215 49.7507 63.0199 49.9591 63.4102C50.0573 63.5948 50.1663 63.7719 50.2714 63.9521C50.3742 64.1265 50.4773 64.3002 50.5866 64.4704C50.7432 64.7167 50.9048 64.9582 51.0741 65.1953C51.0913 65.2192 51.1095 65.2422 51.1269 65.2659C53.8453 69.0427 58.0788 71.4421 62.7155 71.8341C62.9016 71.8504 63.0879 71.8528 63.2743 71.8623C63.5326 71.8748 63.7872 71.9015 64.0487 71.9015C64.1956 71.9015 64.3379 71.8835 64.4839 71.8795C64.6974 71.8735 64.911 71.8619 65.1248 71.8471C65.5719 71.817 66.0123 71.7672 66.4489 71.7009C66.5349 71.6874 66.6212 71.6873 66.7072 71.6724V75.8893C66.7064 76.6231 66.1117 77.2178 65.378 77.2184H14.8665C14.1326 77.2176 13.5379 76.623 13.5373 75.8893V65.2551C13.5373 64.521 12.9422 63.926 12.2081 63.926C11.4739 63.926 10.8789 64.5211 10.8789 65.2551V75.8893C10.8813 78.0906 12.6653 79.8746 14.8667 79.877H65.3783C67.5797 79.8746 69.3637 78.0906 69.3661 75.8893V70.971C75.7304 68.7172 79.9884 62.7029 80 55.951ZM53.4149 17.4026C52.681 17.4018 52.0863 16.8072 52.0857 16.0734V4.66048L64.8279 17.4026H53.4149ZM67.6476 68.7351C67.0594 68.8987 66.4611 69.0226 65.8565 69.1059C65.7882 69.1152 65.7214 69.1288 65.6525 69.1371C65.0629 69.2107 64.4688 69.2433 63.8748 69.2346C63.7709 69.2334 63.6695 69.2227 63.5663 69.2191C63.0191 69.2007 62.4739 69.147 61.9337 69.0587C61.8873 69.0512 61.8404 69.0454 61.7942 69.0375C61.1605 68.9244 60.5359 68.7657 59.9251 68.5628C56.9774 67.5782 54.4584 65.6089 52.7914 62.9859C52.7521 62.9233 52.7144 62.8597 52.6763 62.7963C52.4203 62.3743 52.1883 61.9381 51.9815 61.4901C51.9372 61.3943 51.886 61.3024 51.844 61.2052C51.639 60.7299 51.4625 60.243 51.3159 59.7465C51.2598 59.5578 51.216 59.3643 51.168 59.1722C51.0774 58.8104 51.0012 58.4444 50.9428 58.073C50.9116 57.8804 50.8767 57.6891 50.8541 57.4938C50.8275 57.2568 50.8137 57.0213 50.7991 56.7856C50.785 56.5588 50.7673 56.333 50.7648 56.1034C50.7619 55.8858 50.7744 55.6705 50.7822 55.4547C50.7918 55.1937 50.7971 54.9318 50.8216 54.6749C50.8349 54.532 50.8606 54.392 50.8785 54.2503C50.9204 53.9236 50.9619 53.5967 51.0273 53.2779L51.0321 53.2586C51.3737 51.6166 52.0246 50.0547 52.9504 48.6561C52.9846 48.6045 53.0142 48.5508 53.0491 48.4995C53.2206 48.2472 53.4087 48.0076 53.5965 47.7681C53.6912 47.6476 53.7825 47.5249 53.8818 47.4069C54.0238 47.2381 54.1765 47.0791 54.3266 46.9175C54.5843 46.6407 54.8522 46.3762 55.1305 46.1241C55.2594 46.0069 55.3836 45.8847 55.5174 45.7725C55.9165 45.4381 56.335 45.1273 56.7707 44.8421C56.8844 44.7674 57.0038 44.7012 57.1199 44.6297C57.5068 44.3924 57.9057 44.1748 58.3148 43.9779C58.4141 43.9301 58.5121 43.8796 58.6127 43.8341C59.6589 43.366 60.7613 43.0351 61.8923 42.8499C61.985 42.8346 62.0781 42.8204 62.1715 42.8071C62.741 42.7228 63.3153 42.676 63.8909 42.6666H63.8913C64.5097 42.6608 65.1278 42.6981 65.741 42.7784C65.7776 42.7832 65.8135 42.7901 65.85 42.7951C72.0886 43.6411 76.8751 48.7522 77.3106 55.0328C77.7452 61.3134 73.7096 67.0363 67.6476 68.7351Z" fill="#FF7D61"/>
<path d="M12.208 32.0244C11.4747 32.0265 10.8808 32.6204 10.8788 33.3536V41.3292C10.8788 42.0634 11.4739 42.6584 12.208 42.6584C12.9422 42.6584 13.5372 42.0632 13.5372 41.3292V33.3536C13.5351 32.6205 12.9412 32.0266 12.208 32.0244Z" fill="#FF7D61"/>
<path d="M12.7136 26.8139C12.5537 26.7457 12.3819 26.7096 12.208 26.7075C11.6705 26.7096 11.1866 27.0339 10.9806 27.5304C10.7746 28.0269 10.8862 28.5984 11.2642 28.9806L11.4635 29.1402C11.5376 29.1907 11.6182 29.2311 11.7029 29.2603C11.7783 29.2986 11.8591 29.3252 11.9424 29.3394C12.0301 29.3543 12.119 29.3632 12.208 29.366C12.5599 29.3611 12.897 29.2235 13.1517 28.9806C13.4741 28.6699 13.6157 28.216 13.527 27.7771C13.4383 27.3381 13.1316 26.9748 12.7136 26.8139Z" fill="#FF7D61"/>
<path d="M73.3538 54.6218H65.3782V46.6462C65.3782 45.912 64.783 45.317 64.049 45.317C63.3148 45.317 62.7198 45.9122 62.7198 46.6462V54.6218C62.7216 56.0894 63.9107 57.2786 65.3783 57.2803H73.3539C74.0881 57.2803 74.6831 56.6852 74.6831 55.9511C74.6831 55.2171 74.0878 54.6218 73.3538 54.6218Z" fill="#FF7D61"/>
<path d="M19.6026 63.8962L20.573 64.8666C20.9079 65.2067 21.3993 65.3412 21.8608 65.2188C22.3221 65.0963 22.6826 64.7361 22.8049 64.2747C22.9271 63.8134 22.7927 63.3218 22.4526 62.9869L21.5069 62.0411C21.4801 59.4627 20.496 56.9863 18.7454 55.0932L7.19878 42.5827C6.63103 41.9637 5.88765 41.5332 5.06809 41.3492C3.67936 41.0375 2.2276 41.4575 1.21975 42.4627C-0.360452 44.0339 -0.411605 46.5747 1.10414 48.2081L12.5158 60.5707C14.3583 62.5547 16.8988 63.7469 19.6026 63.8962ZM18.7867 61.1416C17.1286 60.8372 15.6135 60.0043 14.468 58.7673L5.91568 49.5014L8.02229 47.3948L16.7929 56.8968C17.8806 58.0715 18.5772 59.5544 18.7867 61.1416ZM3.05777 46.405C2.51377 45.819 2.53214 44.9073 3.09926 44.3436V44.3424C3.37704 44.0627 3.75522 43.9057 4.1494 43.9068L4.1806 43.9075C4.5857 43.9137 4.97038 44.0868 5.24372 44.3859H5.24499L6.21721 45.44L4.11092 47.5463L3.05777 46.405Z" fill="#FF7D61"/>
</g>
<defs>
<clipPath id="clip0_2009_202">
<rect width="80" height="80" fill="white"/>
</clipPath>
</defs>
</svg>
