<svg width="80" height="80" viewBox="0 0 80 80" fill="none" xmlns="http://www.w3.org/2000/svg">
<g clip-path="url(#clip0_2009_408)">
<path d="M12 16.1466V2.66665C12 2.31302 12.1405 1.97389 12.3905 1.72384C12.6406 1.47379 12.9797 1.33331 13.3333 1.33331H16C16.3536 1.33331 16.6928 1.47379 16.9428 1.72384C17.1929 1.97389 17.3333 2.31302 17.3333 2.66665V6.66665C17.3333 7.02027 17.4738 7.35941 17.7239 7.60946C17.9739 7.8595 18.313 7.99998 18.6667 7.99998H21.3333C21.687 7.99998 22.0261 7.8595 22.2761 7.60946C22.5262 7.35941 22.6667 7.02027 22.6667 6.66665V2.66665C22.6667 2.31302 22.8071 1.97389 23.0572 1.72384C23.3072 1.47379 23.6464 1.33331 24 1.33331H26.6667C27.0203 1.33331 27.3594 1.47379 27.6095 1.72384C27.8595 1.97389 28 2.31302 28 2.66665V6.66665C28 7.02027 28.1405 7.35941 28.3905 7.60946C28.6406 7.8595 28.9797 7.99998 29.3333 7.99998H32C32.3536 7.99998 32.6928 7.8595 32.9428 7.60946C33.1929 7.35941 33.3333 7.02027 33.3333 6.66665V2.66665C33.3333 2.31302 33.4738 1.97389 33.7239 1.72384C33.9739 1.47379 34.313 1.33331 34.6667 1.33331H37.3333C37.687 1.33331 38.0261 1.47379 38.2761 1.72384C38.5262 1.97389 38.6667 2.31302 38.6667 2.66665V6.66665C38.6667 7.02027 38.8071 7.35941 39.0572 7.60946C39.3072 7.8595 39.6464 7.99998 40 7.99998H42.6667C43.0203 7.99998 43.3594 7.8595 43.6095 7.60946C43.8595 7.35941 44 7.02027 44 6.66665V2.66665C44 2.31302 44.1405 1.97389 44.3905 1.72384C44.6406 1.47379 44.9797 1.33331 45.3333 1.33331H48C48.3536 1.33331 48.6928 1.47379 48.9428 1.72384C49.1929 1.97389 49.3333 2.31302 49.3333 2.66665V6.66665C49.3333 7.02027 49.4738 7.35941 49.7239 7.60946C49.9739 7.8595 50.313 7.99998 50.6667 7.99998H53.3333C53.687 7.99998 54.0261 7.8595 54.2761 7.60946C54.5262 7.35941 54.6667 7.02027 54.6667 6.66665V2.66665C54.6667 2.31302 54.8071 1.97389 55.0572 1.72384C55.3072 1.47379 55.6464 1.33331 56 1.33331H58.6667C59.0203 1.33331 59.3594 1.47379 59.6095 1.72384C59.8595 1.97389 60 2.31302 60 2.66665V6.66665C60 7.02027 60.1405 7.35941 60.3905 7.60946C60.6406 7.8595 60.9797 7.99998 61.3333 7.99998H64C64.3536 7.99998 64.6928 7.8595 64.9428 7.60946C65.1929 7.35941 65.3333 7.02027 65.3333 6.66665V2.66665C65.3333 2.31302 65.4738 1.97389 65.7239 1.72384C65.9739 1.47379 66.313 1.33331 66.6667 1.33331H69.3333C69.687 1.33331 70.0261 1.47379 70.2761 1.72384C70.5262 1.97389 70.6667 2.31302 70.6667 2.66665V76C70.6646 76.7066 70.3829 77.3836 69.8833 77.8833C69.3836 78.3829 68.7066 78.6645 68 78.6666H14.6667C13.9601 78.6645 13.283 78.3829 12.7834 77.8833C12.2837 77.3836 12.0021 76.7066 12 76V16.1466Z" fill="#171B22"/>
<path d="M69.3333 1.33331H66.6667C66.4298 1.33934 66.1992 1.41037 66 1.53865C66.1998 1.65226 66.3664 1.81612 66.4833 2.01399C66.6003 2.21185 66.6635 2.43683 66.6667 2.66665V76C66.6646 76.7066 66.3829 77.3836 65.8833 77.8833C65.3836 78.3829 64.7066 78.6645 64 78.6666H68C68.7066 78.6645 69.3836 78.3829 69.8833 77.8833C70.3829 77.3836 70.6646 76.7066 70.6667 76V2.66665C70.6667 2.31302 70.5262 1.97389 70.2761 1.72384C70.0261 1.47379 69.687 1.33331 69.3333 1.33331Z" fill="#FFDB59"/>
<path d="M55.1733 70.5333L49.4933 67.84L54.2533 63.08L56.9467 68.7466C57.0677 68.9953 57.1083 69.2754 57.0631 69.5482C57.0178 69.821 56.8889 70.073 56.6941 70.2693C56.4993 70.4656 56.2482 70.5964 55.9758 70.6437C55.7033 70.691 55.4229 70.6524 55.1733 70.5333Z" fill="#FFDB59"/>
<path d="M54.2533 63.08L49.4933 67.84L41.4267 64.0266C41.1572 63.8965 40.8985 63.7449 40.6533 63.5733L45.32 58.9066L49.9867 54.2266C50.166 54.4715 50.318 54.7353 50.44 55.0133L54.2533 63.08Z" fill="#171B22"/>
<path d="M50.44 55.0133C50.318 54.7353 50.166 54.4715 49.9867 54.2266L47.328 56.8933L50.2533 63.08L46.7773 66.556L49.4933 67.84L54.2533 63.08L50.44 55.0133Z" fill="#FFDB59"/>
<path d="M45.32 58.9067L40.6533 63.5733C40.4032 63.3912 40.1669 63.1907 39.9467 62.9733L11.4267 34.4533L16.1467 29.7333L45.32 58.9067Z" fill="#171B22"/>
<path d="M49.9867 54.2267L45.32 58.9067L16.1467 29.7333L20.88 25L49.3867 53.52C49.6077 53.7368 49.8086 53.9734 49.9867 54.2267Z" fill="#FFDB59"/>
<path d="M5.75369 28.7816L15.202 19.3333L20.8712 25.0025L11.4229 34.4508L5.75369 28.7816Z" fill="#171B22"/>
<path d="M15.2 19.3333L13.204 21.332L16.88 25L9.42667 32.4533L11.4267 34.4533L20.88 25L15.2 19.3333Z" fill="#FFDB59"/>
<path d="M15.2 19.3333L5.75999 28.7867H5.74666L2.91999 25.9467C2.3398 25.3831 1.8991 24.6919 1.63291 23.928C1.36673 23.1642 1.28241 22.3488 1.38666 21.5467C1.65987 19.9067 2.46587 18.4025 3.67999 17.2667C4.81559 16.0499 6.31923 15.2395 7.95999 14.96C8.76407 14.8574 9.581 14.9424 10.3467 15.2085C11.1124 15.4745 11.8061 15.9143 12.3733 16.4933L15.2 19.3333Z" fill="#FFDB59"/>
<path d="M12.3733 16.4933C11.8061 15.9143 11.1124 15.4745 10.3467 15.2085C9.58099 14.9424 8.76406 14.8574 7.95998 14.96C7.49742 15.0305 7.04373 15.1503 6.60665 15.3173C7.2669 15.5898 7.86717 15.9894 8.37332 16.4933L11.2 19.3333L3.75598 26.7867L5.74665 28.7867H5.75998L15.2 19.3333L12.3733 16.4933Z" fill="#FFDB59"/>
<path d="M12 2.67735V16C13.3333 17.3334 14.888 19.0667 16 20V2.68002C16.003 2.45035 16.0662 2.22548 16.1831 2.0278C16.3001 1.83012 16.4668 1.66654 16.6667 1.55335C16.1667 1.25468 16.072 1.34668 13.3333 1.34668C12.9802 1.34668 12.6414 1.48679 12.3915 1.73626C12.1415 1.98574 12.0007 2.32419 12 2.67735Z" fill="#171B22"/>
<path d="M18.6667 78.6667H14.6667C13.9601 78.6646 13.283 78.383 12.7834 77.8833C12.2837 77.3837 12.0021 76.7066 12 76V36.6934L16 39.9734V76C16.0021 76.7066 16.2837 77.3837 16.7834 77.8833C17.283 78.383 17.9601 78.6646 18.6667 78.6667Z" fill="#171B22"/>
<path d="M10.6667 65.3333H13.3334V76H10.6667V65.3333Z" fill="#171B22"/>
<path d="M12 72C12.7364 72 13.3334 71.403 13.3334 70.6666C13.3334 69.9303 12.7364 69.3333 12 69.3333C11.2636 69.3333 10.6667 69.9303 10.6667 70.6666C10.6667 71.403 11.2636 72 12 72Z" fill="#FF7D61"/>
<path d="M10.48 35.3987L10.6667 35.584V65.3333C10.6667 65.687 10.8072 66.0261 11.0572 66.2761C11.3072 66.5262 11.6464 66.6667 12 66.6667C12.3536 66.6667 12.6928 66.5262 12.9428 66.2761C13.1929 66.0261 13.3333 65.687 13.3333 65.3333V38.252L38.9973 63.9173C39.5395 64.4587 40.171 64.9025 40.864 65.2293L54.6013 71.7333C54.9608 71.9066 55.3543 71.9977 55.7533 72C56.2027 71.9967 56.644 71.8803 57.0365 71.6615C57.4291 71.4426 57.7602 71.1285 57.9993 70.748C58.2384 70.3676 58.3779 69.933 58.4048 69.4844C58.4317 69.0358 58.3452 68.5877 58.1533 68.1813L51.6453 54.448C51.3183 53.7548 50.874 53.1233 50.332 52.5813L21.8173 24.06L13.3333 15.5747V2.66667H16V6.66667C16 7.37391 16.281 8.05219 16.7811 8.55229C17.2812 9.05238 17.9594 9.33333 18.6667 9.33333H21.3333C22.0406 9.33333 22.7189 9.05238 23.219 8.55229C23.7191 8.05219 24 7.37391 24 6.66667V2.66667H26.6667V6.66667C26.6667 7.37391 26.9476 8.05219 27.4477 8.55229C27.9478 9.05238 28.6261 9.33333 29.3333 9.33333H32C32.7073 9.33333 33.3855 9.05238 33.8856 8.55229C34.3857 8.05219 34.6667 7.37391 34.6667 6.66667V2.66667H37.3333V6.66667C37.3333 7.37391 37.6143 8.05219 38.1144 8.55229C38.6145 9.05238 39.2928 9.33333 40 9.33333H42.6667C43.0169 9.33333 43.3636 9.26436 43.6872 9.13035C44.0107 8.99633 44.3047 8.79991 44.5523 8.55229C44.7999 8.30466 44.9963 8.01069 45.1304 7.68716C45.2644 7.36362 45.3333 7.01686 45.3333 6.66667V2.66667H48V6.66667C48 7.37391 48.281 8.05219 48.7811 8.55229C49.2812 9.05238 49.9594 9.33333 50.6667 9.33333H53.3333C54.0406 9.33333 54.7189 9.05238 55.219 8.55229C55.7191 8.05219 56 7.37391 56 6.66667V2.66667H58.6667V6.66667C58.6667 7.37391 58.9476 8.05219 59.4477 8.55229C59.9478 9.05238 60.6261 9.33333 61.3333 9.33333H64C64.7073 9.33333 65.3855 9.05238 65.8856 8.55229C66.3857 8.05219 66.6667 7.37391 66.6667 6.66667V2.66667H69.3333V76C69.3333 76.3536 69.1929 76.6928 68.9428 76.9428C68.6928 77.1929 68.3536 77.3333 68 77.3333H14.6667C14.3131 77.3333 13.9739 77.1929 13.7239 76.9428C13.4738 76.6928 13.3333 76.3536 13.3333 76C13.3333 75.6464 13.1929 75.3072 12.9428 75.0572C12.6928 74.8071 12.3536 74.6667 12 74.6667C11.6464 74.6667 11.3072 74.8071 11.0572 75.0572C10.8072 75.3072 10.6667 75.6464 10.6667 76C10.6667 77.0609 11.0881 78.0783 11.8382 78.8284C12.5884 79.5786 13.6058 80 14.6667 80H68C69.0609 80 70.0783 79.5786 70.8284 78.8284C71.5786 78.0783 72 77.0609 72 76V2.66667C72 1.95942 71.7191 1.28115 71.219 0.781049C70.7189 0.280952 70.0406 0 69.3333 0L66.6667 0C65.9594 0 65.2812 0.280952 64.7811 0.781049C64.281 1.28115 64 1.95942 64 2.66667V6.66667H61.3333V2.66667C61.3333 1.95942 61.0524 1.28115 60.5523 0.781049C60.0522 0.280952 59.3739 0 58.6667 0L56 0C55.2928 0 54.6145 0.280952 54.1144 0.781049C53.6143 1.28115 53.3333 1.95942 53.3333 2.66667V6.66667H50.6667V2.66667C50.6667 1.95942 50.3857 1.28115 49.8856 0.781049C49.3855 0.280952 48.7073 0 48 0L45.3333 0C44.6261 0 43.9478 0.280952 43.4477 0.781049C42.9476 1.28115 42.6667 1.95942 42.6667 2.66667V6.66667H40V2.66667C40 1.95942 39.7191 1.28115 39.219 0.781049C38.7189 0.280952 38.0406 0 37.3333 0L34.6667 0C33.9594 0 33.2812 0.280952 32.7811 0.781049C32.281 1.28115 32 1.95942 32 2.66667V6.66667H29.3333V2.66667C29.3333 1.95942 29.0524 1.28115 28.5523 0.781049C28.0522 0.280952 27.3739 0 26.6667 0L24 0C23.2928 0 22.6145 0.280952 22.1144 0.781049C21.6143 1.28115 21.3333 1.95942 21.3333 2.66667V6.66667H18.6667V2.66667C18.6667 1.95942 18.3857 1.28115 17.8856 0.781049C17.3855 0.280952 16.7073 0 16 0L13.3333 0C12.6261 0 11.9478 0.280952 11.4477 0.781049C10.9476 1.28115 10.6667 1.95942 10.6667 2.66667V13.9173C9.73549 13.6013 8.74321 13.5076 7.76934 13.644C5.84493 13.9569 4.07679 14.8939 2.73734 16.3107C1.32074 17.6508 0.383787 19.4193 0.0706754 21.344C-0.0615996 22.3521 0.0418756 23.3771 0.372959 24.3385C0.704041 25.2998 1.2537 26.1711 1.97868 26.884L10.48 35.3987ZM48.1627 54.176L45.3213 57.016L18.0347 29.7333L20.8747 26.8933L48.1627 54.176ZM13.308 34.456L16.1493 31.6147L43.436 58.9013L40.596 61.7427L13.308 34.456ZM51.772 67.4467L53.8667 65.356L55.7427 69.3333L51.772 67.4467ZM52.652 62.796L49.2133 66.2347L42.876 63.2333L49.652 56.456L52.652 62.796ZM15.2067 28.7867L11.4227 32.5707L7.63601 28.784L15.2 21.2173L18.9853 25.0027L15.2067 28.7867ZM2.70134 21.7333C2.93937 20.3783 3.61413 19.1384 4.62268 18.2027C5.5578 17.1943 6.79742 16.52 8.15201 16.2827C8.74988 16.2086 9.35679 16.2744 9.92486 16.4751C10.4929 16.6757 11.0066 17.0056 11.4253 17.4387L13.3187 19.332L5.75068 26.8987L3.85868 25.0053C3.42644 24.5862 3.09705 24.0727 2.89627 23.5051C2.6955 22.9374 2.62878 22.331 2.70134 21.7333Z" fill="#FF7D61"/>
<path d="M65.3333 17.3333C65.3333 16.9797 65.1929 16.6406 64.9428 16.3905C64.6928 16.1405 64.3536 16 64 16H22.6667C22.3131 16 21.9739 16.1405 21.7239 16.3905C21.4738 16.6406 21.3333 16.9797 21.3333 17.3333C21.3333 17.687 21.4738 18.0261 21.7239 18.2761C21.9739 18.5262 22.3131 18.6667 22.6667 18.6667H64C64.3536 18.6667 64.6928 18.5262 64.9428 18.2761C65.1929 18.0261 65.3333 17.687 65.3333 17.3333Z" fill="#FF7D61"/>
<path d="M33.3333 28H64C64.3536 28 64.6928 27.8595 64.9428 27.6095C65.1929 27.3594 65.3333 27.0203 65.3333 26.6666C65.3333 26.313 65.1929 25.9739 64.9428 25.7238C64.6928 25.4738 64.3536 25.3333 64 25.3333H33.3333C32.9797 25.3333 32.6406 25.4738 32.3905 25.7238C32.1405 25.9739 32 26.313 32 26.6666C32 27.0203 32.1405 27.3594 32.3905 27.6095C32.6406 27.8595 32.9797 28 33.3333 28Z" fill="#FF7D61"/>
<path d="M41.3333 37.3334H64C64.3536 37.3334 64.6928 37.1929 64.9428 36.9428C65.1929 36.6928 65.3333 36.3536 65.3333 36C65.3333 35.6464 65.1929 35.3073 64.9428 35.0572C64.6928 34.8072 64.3536 34.6667 64 34.6667H41.3333C40.9797 34.6667 40.6406 34.8072 40.3905 35.0572C40.1405 35.3073 40 35.6464 40 36C40 36.3536 40.1405 36.6928 40.3905 36.9428C40.6406 37.1929 40.9797 37.3334 41.3333 37.3334Z" fill="#FF7D61"/>
<path d="M50.6667 46.6667H64C64.3536 46.6667 64.6928 46.5262 64.9428 46.2761C65.1929 46.0261 65.3333 45.687 65.3333 45.3333C65.3333 44.9797 65.1929 44.6406 64.9428 44.3905C64.6928 44.1405 64.3536 44 64 44H50.6667C50.3131 44 49.9739 44.1405 49.7239 44.3905C49.4738 44.6406 49.3333 44.9797 49.3333 45.3333C49.3333 45.687 49.4738 46.0261 49.7239 46.2761C49.9739 46.5262 50.3131 46.6667 50.6667 46.6667Z" fill="#FF7D61"/>
<path d="M58.6667 56H64C64.3536 56 64.6928 55.8595 64.9428 55.6095C65.1929 55.3594 65.3333 55.0203 65.3333 54.6666C65.3333 54.313 65.1929 53.9739 64.9428 53.7238C64.6928 53.4738 64.3536 53.3333 64 53.3333H58.6667C58.3131 53.3333 57.9739 53.4738 57.7239 53.7238C57.4738 53.9739 57.3333 54.313 57.3333 54.6666C57.3333 55.0203 57.4738 55.3594 57.7239 55.6095C57.9739 55.8595 58.3131 56 58.6667 56Z" fill="#FF7D61"/>
<path d="M64 62.6667H61.3333C60.9797 62.6667 60.6406 62.8072 60.3905 63.0572C60.1405 63.3073 60 63.6464 60 64C60 64.3536 60.1405 64.6928 60.3905 64.9428C60.6406 65.1929 60.9797 65.3334 61.3333 65.3334H64C64.3536 65.3334 64.6928 65.1929 64.9428 64.9428C65.1929 64.6928 65.3333 64.3536 65.3333 64C65.3333 63.6464 65.1929 63.3073 64.9428 63.0572C64.6928 62.8072 64.3536 62.6667 64 62.6667Z" fill="#FF7D61"/>
<path d="M18.6667 65.3334H32C32.3536 65.3334 32.6928 65.1929 32.9428 64.9428C33.1929 64.6928 33.3333 64.3536 33.3333 64C33.3333 63.6464 33.1929 63.3073 32.9428 63.0572C32.6928 62.8072 32.3536 62.6667 32 62.6667H18.6667C18.3131 62.6667 17.9739 62.8072 17.7239 63.0572C17.4738 63.3073 17.3333 63.6464 17.3333 64C17.3333 64.3536 17.4738 64.6928 17.7239 64.9428C17.9739 65.1929 18.3131 65.3334 18.6667 65.3334Z" fill="#FF7D61"/>
<path d="M18.6667 56H24C24.3536 56 24.6928 55.8595 24.9428 55.6095C25.1929 55.3594 25.3333 55.0203 25.3333 54.6666C25.3333 54.313 25.1929 53.9739 24.9428 53.7238C24.6928 53.4738 24.3536 53.3333 24 53.3333H18.6667C18.3131 53.3333 17.9739 53.4738 17.7239 53.7238C17.4738 53.9739 17.3333 54.313 17.3333 54.6666C17.3333 55.0203 17.4738 55.3594 17.7239 55.6095C17.9739 55.8595 18.3131 56 18.6667 56Z" fill="#FF7D61"/>
</g>
<defs>
<clipPath id="clip0_2009_408">
<rect width="80" height="80" fill="white"/>
</clipPath>
</defs>
</svg>
