<svg width="80" height="80" viewBox="0 0 80 80" fill="none" xmlns="http://www.w3.org/2000/svg">
<g clip-path="url(#clip0_2009_270)">
<path d="M60.2266 16.72L56.4533 20.4933L55.52 19.5467L48.92 12.9467L52.68 9.17334L60.2266 16.72Z" fill="#171B22"/>
<path d="M66.8267 10.1201L60.2267 16.7201L52.68 9.17343L59.28 2.57343C60.8469 1.01361 63.3798 1.01361 64.9467 2.57343L66.8267 4.46676C68.3864 6.02846 68.3864 8.5584 66.8267 10.1201Z" fill="#171B22"/>
<path d="M76.1867 24.8933L47.44 50.6667L43.56 54.1467C41.5341 55.9628 38.4659 55.9628 36.44 54.1467L34.3867 52.3067L32.56 50.6667L3.81332 24.8933C5.29162 23.4583 7.27304 22.659 9.33332 22.6667H70.6667C72.7269 22.659 74.7084 23.4583 76.1867 24.8933Z" fill="#171B22"/>
<path d="M70.6667 22.6667H66.6667C68.727 22.659 70.7084 23.4583 72.1867 24.8933L43.44 50.6667L39.56 54.1467C39.0994 54.5547 38.5716 54.88 38 55.108C39.885 55.8745 42.0418 55.5015 43.56 54.1467L47.44 50.6667L76.1867 24.8933C74.7084 23.4583 72.727 22.659 70.6667 22.6667Z" fill="#FFDB59"/>
<path d="M78.6667 30.6666V70.6666C78.6701 72.8505 77.773 74.9391 76.1867 76.44L47.44 50.6666L76.1867 24.8933C77.773 26.3942 78.6701 28.4828 78.6667 30.6666Z" fill="#171B22"/>
<path d="M76.1867 24.8933L73.7867 27.0453C74.3643 28.1651 74.666 29.4067 74.6667 30.6666V70.6666C74.666 71.9266 74.3643 73.1682 73.7867 74.288L76.1867 76.44C77.773 74.9391 78.6702 72.8505 78.6667 70.6666V30.6666C78.6702 28.4828 77.773 26.3942 76.1867 24.8933Z" fill="#FFDB59"/>
<path d="M76.1867 76.4401C74.7084 77.8752 72.7269 78.6744 70.6667 78.6667H9.33332C7.27304 78.6744 5.29162 77.8752 3.81332 76.4401L32.56 50.6667L34.3867 52.3067L36.44 54.1467C38.4659 55.9629 41.5341 55.9629 43.56 54.1467L47.44 50.6667L76.1867 76.4401Z" fill="#171B22"/>
<path d="M47.44 50.6667L45.44 52.4601L72.1867 76.4401C70.7084 77.8752 68.727 78.6744 66.6667 78.6667H70.6667C72.727 78.6744 74.7084 77.8752 76.1867 76.4401L47.44 50.6667Z" fill="#FFDB59"/>
<path d="M32.56 50.6666L3.81332 76.44C2.22703 74.9391 1.32985 72.8505 1.33332 70.6666V30.6666C1.32985 28.4828 2.22703 26.3942 3.81332 24.8933L32.56 50.6666Z" fill="#171B22"/>
<path d="M25.1067 48.6667L20.28 50.9067C19.7674 51.1607 19.1498 51.0593 18.7453 50.6547C18.3407 50.2502 18.2393 49.6326 18.4933 49.12L20.7333 44.2933C21.7579 44.6219 22.69 45.1884 23.4533 45.9467C24.2206 46.7029 24.7886 47.6374 25.1067 48.6667Z" fill="#171B22"/>
<path d="M31 45.9467L25.1067 48.6667C24.7886 47.6374 24.2206 46.7029 23.4533 45.9467C22.69 45.1884 21.7579 44.6219 20.7333 44.2933L23.4533 38.4C24.2038 37.6537 25.3237 37.4199 26.3101 37.8035C27.2966 38.1871 27.9642 39.1161 28.0133 40.1733C28.0425 40.8333 28.5671 41.3636 29.2267 41.4C29.8946 41.423 30.5287 41.6996 31 42.1733C31.5007 42.6735 31.7821 43.3522 31.7821 44.06C31.7821 44.7678 31.5007 45.4465 31 45.9467Z" fill="#171B22"/>
<path d="M52.6933 16.72L28.3867 41.0267C28.1577 40.8004 28.0241 40.495 28.0133 40.1733C27.9642 39.1161 27.2966 38.1871 26.3101 37.8035C25.3237 37.4199 24.2038 37.6537 23.4533 38.4L48.92 12.9467L52.6933 16.72Z" fill="#171B22"/>
<path d="M31 45.9468C31.5007 45.4466 31.7821 44.7678 31.7821 44.0601C31.7821 43.3523 31.5007 42.6736 31 42.1734C30.5286 41.6996 29.8946 41.4231 29.2267 41.4001C28.9103 41.3832 28.6112 41.2503 28.3867 41.0268L52.6933 16.7201L55.52 19.5468L56.4533 20.4934L31 45.9468Z" fill="#FFDB59"/>
<path d="M9.33334 78.6667H13.3333C8.91811 78.6594 5.34068 75.082 5.33334 70.6667V30.6667C5.34068 26.2515 8.91811 22.6741 13.3333 22.6667H9.33334C4.91811 22.6741 1.34068 26.2515 1.33334 30.6667V70.6667C1.34068 75.082 4.91811 78.6594 9.33334 78.6667Z" fill="#171B22"/>
<path d="M0 60H2.66667V70.6667H0V60Z" fill="#171B22"/>
<path d="M63.0573 8.23466C63.4388 7.85336 63.5529 7.27984 63.3466 6.78156C63.1402 6.28327 62.654 5.95837 62.1147 5.95837C61.5754 5.95837 61.0892 6.28327 60.8828 6.78156C60.6765 7.27984 60.7906 7.85336 61.172 8.23466C61.6927 8.75517 62.5367 8.75517 63.0573 8.23466Z" fill="#FF7D61"/>
<path d="M47.972 19.548L31.0013 36.52C30.5249 37.0477 30.5463 37.8563 31.0498 38.3581C31.5534 38.8599 32.3621 38.8783 32.888 38.4L49.8587 21.4334C50.3793 20.9124 50.379 20.068 49.858 19.5474C49.337 19.0268 48.4926 19.0271 47.972 19.548Z" fill="#FF7D61"/>
<path d="M22.2493 37.8454L17.3027 48.5334C16.8959 49.3603 16.942 50.3382 17.4249 51.1232C17.9078 51.9081 18.7598 52.3902 19.6813 52.4C20.0856 52.3994 20.4842 52.3044 20.8453 52.1227L31.5627 47.1587C31.7047 47.0926 31.8342 47.0024 31.9453 46.892L61.1707 17.6627L67.7707 11.0627C69.8527 8.98004 69.8527 5.60404 67.7707 3.52137L65.8853 1.63604C63.7737 -0.376238 60.4542 -0.376238 58.3427 1.63604L51.744 8.2347L22.516 37.4667C22.4052 37.576 22.3148 37.7042 22.2493 37.8454ZM26.288 39.3494C26.5248 39.5843 26.6639 39.9001 26.6773 40.2334C26.7435 41.583 27.8224 42.6624 29.172 42.7294C29.6646 42.7503 30.1053 43.0414 30.3181 43.4861C30.5308 43.9309 30.4808 44.4567 30.188 44.8534L25.7787 46.884C25.0505 45.4866 23.91 44.347 22.512 43.62L24.5507 39.22C25.0818 38.8266 25.821 38.8816 26.288 39.3494ZM19.7053 49.6827L21.3893 46.0454C22.2159 46.4977 22.897 47.1756 23.3533 48L19.7053 49.6827ZM56.4573 18.6054C55.9342 18.1001 55.1025 18.1073 54.5882 18.6216C54.0739 19.1359 54.0667 19.9675 54.572 20.4907L32.7133 42.3494C32.1034 41.0154 30.7986 40.1347 29.3333 40.068C29.2625 38.6051 28.3829 37.3034 27.052 36.692L48.9147 14.8334L50.8 16.72C51.3232 17.2253 52.1548 17.2181 52.6691 16.7038C53.1834 16.1895 53.1906 15.3579 52.6853 14.8347L50.8 12.948L52.6867 11.0667L55.5147 13.8947L58.3413 16.7227L56.4573 18.6054ZM60.228 3.52137C61.2833 2.51345 62.9447 2.51345 64 3.52137L65.8853 5.4067C66.9263 6.44804 66.9263 8.13604 65.8853 9.17737L60.228 14.8347L58.3427 12.9494L59.2867 12C59.7631 11.4724 59.7417 10.6638 59.2382 10.162C58.7346 9.66023 57.9259 9.64176 57.4 10.12L56.4573 11.0627L54.572 9.17737L60.228 3.52137Z" fill="#FF7D61"/>
<path d="M1.33333 66.6667C2.06971 66.6667 2.66667 66.0697 2.66667 65.3333C2.66667 64.597 2.06971 64 1.33333 64C0.596954 64 0 64.597 0 65.3333C0 66.0697 0.596954 66.6667 1.33333 66.6667Z" fill="#FF7D61"/>
<path d="M30.6667 21.3334H9.33333C4.18111 21.3393 0.00587819 25.5145 0 30.6667V60C0 60.7364 0.596954 61.3334 1.33333 61.3334C2.06971 61.3334 2.66667 60.7364 2.66667 60V30.6667C2.66943 29.2736 3.11229 27.9171 3.932 26.7907L16.8 38.3254C17.1518 38.6606 17.6581 38.778 18.1214 38.6316C18.5848 38.4853 18.9319 38.0984 19.0273 37.622C19.1227 37.1455 18.9513 36.6548 18.58 36.3414L5.91333 24.9787C6.94222 24.3455 8.12523 24.007 9.33333 24H30.6667C31.403 24 32 23.4031 32 22.6667C32 21.9303 31.403 21.3334 30.6667 21.3334Z" fill="#FF7D61"/>
<path d="M70.6667 21.3334H62.6667C61.9303 21.3334 61.3333 21.9303 61.3333 22.6667C61.3333 23.4031 61.9303 24 62.6667 24H70.6667C71.8775 24.0055 73.0635 24.3441 74.0947 24.9787L42.6667 53.1534C41.1483 54.5115 38.8517 54.5115 37.3333 53.1534L33.452 49.6734C32.9455 49.2193 32.1785 49.2193 31.672 49.6734L3.932 74.5427C3.11228 73.4163 2.66943 72.0598 2.66667 70.6667C2.66667 69.9303 2.06971 69.3334 1.33333 69.3334C0.596954 69.3334 0 69.9303 0 70.6667C0.00587819 75.8189 4.18111 79.9942 9.33333 80H70.6667C75.8189 79.9942 79.9941 75.8189 80 70.6667V30.6667C79.9941 25.5145 75.8189 21.3393 70.6667 21.3334ZM77.3333 70.6667C77.3306 72.0598 76.8877 73.4163 76.068 74.5427L49.4373 50.6667L76.068 26.7907C76.8877 27.9171 77.3306 29.2736 77.3333 30.6667V70.6667ZM9.33333 77.3334C8.12251 77.3279 6.93654 76.9893 5.90533 76.3547L32.56 52.4574L35.552 55.14C38.084 57.4086 41.9174 57.4086 44.4493 55.14L47.4413 52.4587L74.0947 76.356C73.0633 76.9902 71.8774 77.3283 70.6667 77.3334H9.33333Z" fill="#FF7D61"/>
</g>
<defs>
<clipPath id="clip0_2009_270">
<rect width="80" height="80" fill="white"/>
</clipPath>
</defs>
</svg>
