<svg width="80" height="80" viewBox="0 0 80 80" fill="none" xmlns="http://www.w3.org/2000/svg">
<g clip-path="url(#clip0_2009_338)">
<path fill-rule="evenodd" clip-rule="evenodd" d="M68 21.9733V74.6666C67.9956 76.1376 66.8043 77.3289 65.3334 77.3333H4.00001C2.52907 77.3289 1.33774 76.1376 1.33334 74.6666V17.3333C1.33334 15.8605 2.52725 14.6666 4.00001 14.6666H55.9067L32.7867 37.7733L27.7867 50.4666C27.5759 50.9664 27.6889 51.544 28.0724 51.9276C28.4559 52.3111 29.0336 52.4241 29.5333 52.2133L42.2267 47.2133L67.68 21.7466C67.7719 21.8411 67.8804 21.918 68 21.9733Z" fill="#171B22"/>
<path fill-rule="evenodd" clip-rule="evenodd" d="M67.68 21.7466L64 25.428V74.6666C63.9956 76.1376 62.8043 77.3289 61.3333 77.3333H65.3333C66.8043 77.3289 67.9956 76.1376 68 74.6666V21.9733C67.8804 21.918 67.7719 21.8412 67.68 21.7466Z" fill="#FFDB59"/>
<path fill-rule="evenodd" clip-rule="evenodd" d="M58.2533 10.44C57.7364 10.96 57.7364 11.7999 58.2533 12.32L55.9067 14.6666H11.2533L12.6267 4.95996C12.8331 3.50205 14.182 2.48734 15.64 2.6933L59.7733 8.90663L58.2533 10.44Z" fill="#FFDB59"/>
<path fill-rule="evenodd" clip-rule="evenodd" d="M78.64 14.2666L71.2 67.08C70.9902 68.5359 69.6436 69.5488 68.1867 69.3466L68 69.32V21.9733C68.5118 22.2571 69.1501 22.1644 69.56 21.7466L71.4533 19.8666C71.9703 19.3466 71.9703 18.5067 71.4533 17.9866L70.5067 17.04L74.28 13.2666C74.797 12.7466 74.797 11.9067 74.28 11.3866L73.7867 10.8933L76.3733 11.2533C77.8312 11.4597 78.846 12.8087 78.64 14.2666Z" fill="#FFDB59"/>
<path fill-rule="evenodd" clip-rule="evenodd" d="M76.3733 11.2533L73.7867 10.8933L74.28 11.3866C74.6944 11.806 74.7773 12.4507 74.4827 12.9613C74.6432 13.3765 74.6973 13.8252 74.64 14.2666L68 61.4013V69.32L68.1867 69.3466C69.6436 69.5488 70.9902 68.5359 71.2 67.08L78.64 14.2666C78.846 12.8087 77.8312 11.4597 76.3733 11.2533Z" fill="#FFDB59"/>
<path fill-rule="evenodd" clip-rule="evenodd" d="M71.4533 19.8667L69.56 21.7467C69.1501 22.1644 68.5118 22.2571 68 21.9733C67.8803 21.918 67.7719 21.8412 67.68 21.7467L58.2533 12.32C57.7364 11.7999 57.7364 10.96 58.2533 10.44L59.7733 8.90666L60.1333 8.54666C60.6534 8.02969 61.4933 8.02969 62.0133 8.54666L62.96 9.49333L70.5067 17.04L71.4533 17.9867C71.9703 18.5067 71.9703 19.3466 71.4533 19.8667Z" fill="#FFDB59"/>
<path fill-rule="evenodd" clip-rule="evenodd" d="M74.28 13.2667L70.5067 17.04L62.96 9.49333L66.7333 5.72C67.2534 5.20303 68.0933 5.20303 68.6133 5.72L74.28 11.3867C74.797 11.9067 74.797 12.7466 74.28 13.2667Z" fill="#171B22"/>
<path fill-rule="evenodd" clip-rule="evenodd" d="M34.32 50.32L29.5333 52.2133C29.0336 52.4241 28.4559 52.3111 28.0724 51.9276C27.6889 51.5441 27.5759 50.9664 27.7867 50.4667L29.68 45.68L34.32 50.32Z" fill="#FFDB59"/>
<path fill-rule="evenodd" clip-rule="evenodd" d="M42.2267 47.2133L34.32 50.32L29.68 45.68L32.7867 37.7733L42.2267 47.2133Z" fill="#171B22"/>
<path fill-rule="evenodd" clip-rule="evenodd" d="M67.68 21.7467L42.2267 47.2133L32.7867 37.7733L55.9067 14.6667L58.2533 12.32L67.68 21.7467Z" fill="#171B22"/>
<path fill-rule="evenodd" clip-rule="evenodd" d="M58.2533 12.32L56.2533 14.32L63.68 21.7467L40.2267 45.2133L42.2267 47.2133L67.68 21.7467L58.2533 12.32Z" fill="#FFDB59"/>
<path fill-rule="evenodd" clip-rule="evenodd" d="M8.00001 14.6666H4.00001C2.52725 14.6666 1.33334 15.8605 1.33334 17.3333V74.6666C1.33774 76.1376 2.52907 77.3289 4.00001 77.3333H8.00001C6.52907 77.3289 5.33774 76.1376 5.33334 74.6666V17.3333C5.33334 15.8605 6.52725 14.6666 8.00001 14.6666Z" fill="#171B22"/>
<path fill-rule="evenodd" clip-rule="evenodd" d="M15.2533 14.6666L16.6267 4.95996C16.7414 4.13966 17.2353 3.42109 17.96 3.01996L15.64 2.6933C14.182 2.48734 12.8331 3.50205 12.6267 4.95996L11.2533 14.6666H15.2533Z" fill="#171B22"/>
<path fill-rule="evenodd" clip-rule="evenodd" d="M0 64H2.66667V74.6667H0V64Z" fill="#171B22"/>
<path d="M1.33333 70.6667C2.06971 70.6667 2.66667 70.0697 2.66667 69.3333C2.66667 68.597 2.06971 68 1.33333 68C0.596954 68 0 68.597 0 69.3333C0 70.0697 0.596954 70.6667 1.33333 70.6667Z" fill="#FF7D61"/>
<path d="M4 78.6667H65.3333C67.5425 78.6667 69.3333 76.8758 69.3333 74.6667V70.6213C69.924 70.5058 70.4812 70.2593 70.964 69.9C71.8161 69.2669 72.377 68.3172 72.52 67.2653L79.9613 14.4467C80.2661 12.2607 78.7428 10.241 76.5573 9.93332L74.416 9.63465L69.5613 4.78132C68.52 3.7403 66.832 3.7403 65.7907 4.78132L62.9627 7.60932C61.9691 6.6269 60.3856 6.57804 59.3333 7.49732L15.824 1.36398C14.7728 1.21654 13.7061 1.493 12.8588 2.13246C12.0115 2.77193 11.4531 3.72196 11.3067 4.77332L10.0947 13.3333H4C1.79086 13.3333 0 15.1242 0 17.3333V64C0 64.7364 0.596954 65.3333 1.33333 65.3333C2.06971 65.3333 2.66667 64.7364 2.66667 64V17.3333C2.66667 16.5969 3.26362 16 4 16H52.6867L31.8493 36.8373C31.7218 36.9652 31.6215 37.1176 31.5547 37.2853L26.8 49.3333H10.6667C9.93029 49.3333 9.33333 49.9303 9.33333 50.6667C9.33333 51.403 9.93029 52 10.6667 52H26.5827C26.7086 52.3208 26.8961 52.6139 27.1347 52.8627C27.8891 53.6227 29.0261 53.8556 30.0187 53.4533L42.7093 48.448H42.716C42.8837 48.3811 43.0362 48.2809 43.164 48.1533L66.6667 24.6467V74.6667C66.6667 75.403 66.0697 76 65.3333 76H4C3.26362 76 2.66667 75.403 2.66667 74.6667C2.66667 73.9303 2.06971 73.3333 1.33333 73.3333C0.596954 73.3333 0 73.9303 0 74.6667C0 76.8758 1.79086 78.6667 4 78.6667ZM59.192 11.38L61.0773 9.49465L62.02 10.4373L69.5627 17.98L70.5053 18.9227L68.6187 20.808L59.192 11.38ZM77.3253 14.0813L69.8787 66.8987C69.8312 67.2459 69.6451 67.5591 69.3627 67.7667C69.3547 67.7667 69.3427 67.7747 69.3333 67.7813V23.3667C69.7748 23.2498 70.1783 23.0201 70.504 22.7L72.3907 20.8133C73.4317 19.772 73.4317 18.084 72.3907 17.0427L75.2187 14.2147C75.6618 13.7682 75.9309 13.178 75.9773 12.5507L76.192 12.5813C76.9158 12.6872 77.4192 13.3565 77.32 14.0813H77.3253ZM67.676 6.66665L73.3333 12.3227L73.484 12.172L70.5053 15.152L64.848 9.49465L67.676 6.66665ZM12.788 13.3333L13.948 5.14132C14.0538 4.41512 14.7266 3.91098 15.4533 4.01332L57.0027 9.86665C56.5486 10.5043 56.4092 11.3139 56.624 12.0667L55.3533 13.3333H12.788ZM39.8387 46.7107L34.6387 48.7547L31.2387 45.3533L33.2853 40.16L39.8387 46.7107ZM29.028 50.9613L30.1733 48.0587L31.9333 49.8186L29.028 50.9613ZM42.22 45.3213L39.392 42.4933L54.4773 27.4093C54.9826 26.8861 54.9754 26.0545 54.4611 25.5402C53.9468 25.0259 53.1152 25.0187 52.592 25.524L37.5067 40.608L34.6787 37.78L56.8427 15.6147L56.8547 15.6027L58.2493 14.208L61.0773 17.0373L56.3627 21.7507C56.0256 22.0874 55.8939 22.5784 56.0171 23.0387C56.1402 23.499 56.4995 23.8585 56.9597 23.982C57.4199 24.1055 57.911 23.9741 58.248 23.6373L62.9627 18.9227L65.7907 21.7507L42.22 45.3213Z" fill="#FF7D61"/>
<path fill-rule="evenodd" clip-rule="evenodd" d="M10.6667 44H22.6667C23.4031 44 24 43.403 24 42.6666C24 41.9303 23.4031 41.3333 22.6667 41.3333H10.6667C9.9303 41.3333 9.33334 41.9303 9.33334 42.6666C9.33334 43.403 9.9303 44 10.6667 44Z" fill="#FF7D61"/>
<path fill-rule="evenodd" clip-rule="evenodd" d="M10.6667 36H28C28.7364 36 29.3333 35.403 29.3333 34.6666C29.3333 33.9303 28.7364 33.3333 28 33.3333H10.6667C9.9303 33.3333 9.33334 33.9303 9.33334 34.6666C9.33334 35.403 9.9303 36 10.6667 36Z" fill="#FF7D61"/>
<path fill-rule="evenodd" clip-rule="evenodd" d="M10.6667 28H18.6667C19.4031 28 20 27.403 20 26.6666C20 25.9303 19.4031 25.3333 18.6667 25.3333H10.6667C9.9303 25.3333 9.33334 25.9303 9.33334 26.6666C9.33334 27.403 9.9303 28 10.6667 28Z" fill="#FF7D61"/>
<path fill-rule="evenodd" clip-rule="evenodd" d="M33.3333 28C34.0697 28 34.6667 27.403 34.6667 26.6666C34.6667 25.9303 34.0697 25.3333 33.3333 25.3333H24C23.2636 25.3333 22.6667 25.9303 22.6667 26.6666C22.6667 27.403 23.2636 28 24 28H33.3333Z" fill="#FF7D61"/>
</g>
<defs>
<clipPath id="clip0_2009_338">
<rect width="80" height="80" fill="white"/>
</clipPath>
</defs>
</svg>
