<svg width="80" height="80" viewBox="0 0 80 80" fill="none" xmlns="http://www.w3.org/2000/svg">
<g clip-path="url(#clip0_2009_371)">
<path d="M49.6267 39.6933V39.7067C49.4897 39.8473 49.3377 39.9725 49.1733 40.08C48.6504 40.4551 48.0397 40.6893 47.4 40.76L41.2 41.32C40.8611 41.3519 40.5194 41.3086 40.1991 41.1933C39.8789 41.0779 39.5881 40.8933 39.3474 40.6526C39.1067 40.4119 38.9221 40.1211 38.8067 39.8009C38.6914 39.4806 38.6481 39.1389 38.68 38.8L39.2267 32.6C39.305 31.757 39.678 30.9686 40.28 30.3733L40.2933 30.36L49.6267 39.6933Z" fill="#171B22"/>
<path d="M40.2806 30.3616L60.8345 9.80772L65.5102 14.4834L44.9563 35.0373L40.2806 30.3616Z" fill="#171B22"/>
<path d="M44.9483 35.0189L65.5022 14.465L70.1647 19.1274L49.6108 39.6813L44.9483 35.0189Z" fill="#171B22"/>
<path d="M76.7333 12.6133L74.8667 14.48L65.52 5.13331L67.3733 3.26665C67.987 2.65206 68.7158 2.16437 69.518 1.83142C70.3202 1.49848 71.1801 1.32679 72.0486 1.32617C72.9172 1.32555 73.7773 1.49601 74.58 1.82782C75.3826 2.15962 76.1121 2.64627 76.7267 3.25998C77.3413 3.87369 77.8289 4.60244 78.1619 5.40463C78.4948 6.20682 78.6665 7.06673 78.6671 7.93527C78.6678 8.8038 78.4973 9.66396 78.1655 10.4666C77.8337 11.2693 77.347 11.9987 76.7333 12.6133Z" fill="#171B22"/>
<path d="M76.7333 3.26664C75.8732 2.4151 74.7957 1.81626 73.6183 1.53551C72.441 1.25476 71.2092 1.30288 70.0573 1.67464C71.1283 1.99973 72.0977 2.59449 72.8727 3.40187C73.6478 4.20925 74.2024 5.20219 74.4835 6.2855C74.7645 7.3688 74.7626 8.50615 74.4779 9.5885C74.1931 10.6708 73.6351 11.6619 72.8573 12.4666L74.8707 14.48L76.7373 12.6133C77.9729 11.3716 78.6662 9.69088 78.6655 7.93914C78.6647 6.1874 77.97 4.50731 76.7333 3.26664Z" fill="#FFDB59"/>
<path d="M74.8667 14.48L70.1867 19.1466L60.84 9.79997L65.52 5.1333L74.8667 14.48Z" fill="#171B22"/>
<path d="M39.2267 32.6L38.68 38.8C38.6481 39.1389 38.6914 39.4806 38.8067 39.8008C38.9221 40.1211 39.1067 40.4119 39.3474 40.6526C39.5881 40.8933 39.8789 41.0779 40.1991 41.1933C40.5194 41.3086 40.8611 41.3519 41.2 41.32L42.2267 41.2266C41.2729 45.3786 38.8236 49.0338 35.3462 51.4947C31.8688 53.9556 27.607 55.0497 23.3743 54.5682C19.1415 54.0868 15.2343 52.0634 12.3985 48.8844C9.56268 45.7054 7.99688 41.5934 8 37.3333V18.6666C8 14.0696 9.82618 9.66076 13.0768 6.41013C16.3274 3.1595 20.7362 1.33331 25.3333 1.33331C29.9304 1.33331 34.3392 3.1595 37.5899 6.41013C40.8405 9.66076 42.6667 14.0696 42.6667 18.6666V27.9866L40.28 30.3733C39.678 30.9686 39.305 31.757 39.2267 32.6Z" fill="#171B22"/>
<path d="M40.28 30.3733L42.6667 27.9867V18.6667C42.6761 16.2191 42.1651 13.7975 41.1676 11.5624C40.17 9.32739 38.7087 7.32995 36.8805 5.70259C35.0523 4.07524 32.899 2.85515 30.5634 2.12325C28.2278 1.39135 25.7633 1.16436 23.3333 1.45734C27.5543 1.94764 31.4481 3.97139 34.2749 7.14408C37.1018 10.3168 38.6646 14.4173 38.6667 18.6667V27.9867L36.28 30.3733C35.678 30.9686 35.305 31.757 35.2267 32.6L34.68 38.8C34.6481 39.1389 34.6914 39.4806 34.8067 39.8009C34.9221 40.1211 35.1067 40.4119 35.3474 40.6526C35.5881 40.8933 35.8789 41.0779 36.1991 41.1933C36.5194 41.3086 36.8611 41.3519 37.2 41.32L38.2267 41.2267C37.4204 44.7111 35.5564 47.861 32.8902 50.2449C30.224 52.6287 26.8859 54.1299 23.3333 54.5427C23.9971 54.6217 24.6649 54.6631 25.3333 54.6667C29.2531 54.663 33.0561 53.3327 36.1235 50.8924C39.1909 48.452 41.342 45.0453 42.2267 41.2267L41.2 41.32C40.8611 41.3519 40.5194 41.3086 40.1991 41.1933C39.8789 41.0779 39.5881 40.8933 39.3474 40.6526C39.1067 40.4119 38.9221 40.1211 38.8067 39.8009C38.6914 39.4806 38.6481 39.1389 38.68 38.8L39.2267 32.6C39.305 31.757 39.678 30.9686 40.28 30.3733Z" fill="#FFDB59"/>
<path d="M49.1733 40.08C48.5109 45.9352 45.7127 51.3406 41.3143 55.2618C36.9158 59.183 31.2259 61.3448 25.3333 61.3333C23.0772 61.3396 20.8319 61.0207 18.6667 60.3867C13.6675 58.9449 9.27286 55.9162 6.1461 51.7577C3.01934 47.5991 1.3301 42.5363 1.33333 37.3333V31.52C1.31539 30.6712 1.60956 29.8453 2.16007 29.1989C2.71057 28.5525 3.47913 28.1307 4.32 28.0133C4.78485 27.9647 5.25472 28.0144 5.69911 28.1592C6.14351 28.3039 6.5525 28.5405 6.89952 28.8536C7.24655 29.1667 7.52386 29.5492 7.71345 29.9764C7.90303 30.4036 8.00067 30.8659 8 31.3333V37.3333C7.99689 41.5934 9.56269 45.7054 12.3985 48.8844C15.2343 52.0634 19.1415 54.0868 23.3743 54.5683C27.607 55.0497 31.8688 53.9556 35.3462 51.4947C38.8236 49.0338 41.2729 45.3786 42.2267 41.2267L47.4 40.76C48.0415 40.697 48.6542 40.4621 49.1733 40.08Z" fill="#171B22"/>
<path d="M47.4 40.76L45.0373 40.9734C44.345 45.4988 42.3733 49.732 39.3547 53.1739C36.3361 56.6159 32.3964 59.1231 28 60.4C26.4766 60.8369 24.9132 61.1196 23.3333 61.244C24 61.2973 24.6573 61.3334 25.3333 61.3334C31.2259 61.3448 36.9158 59.1831 41.3143 55.2618C45.7127 51.3406 48.5109 45.9352 49.1733 40.08C48.6542 40.4621 48.0415 40.697 47.4 40.76Z" fill="#FFDB59"/>
<path d="M32 60.4V70.6667H18.6667V60.3867C20.8319 61.0207 23.0772 61.3396 25.3333 61.3333C27.5884 61.3374 29.8327 61.0232 32 60.4Z" fill="#171B22"/>
<path d="M37.3333 74.6667V77.3334C37.3333 77.687 37.1929 78.0261 36.9428 78.2762C36.6928 78.5262 36.3536 78.6667 36 78.6667H14.6667C14.313 78.6667 13.9739 78.5262 13.7239 78.2762C13.4738 78.0261 13.3333 77.687 13.3333 77.3334V74.6667C13.3333 73.6058 13.7548 72.5884 14.5049 71.8383C15.255 71.0881 16.2725 70.6667 17.3333 70.6667H33.3333C34.3942 70.6667 35.4116 71.0881 36.1618 71.8383C36.9119 72.5884 37.3333 73.6058 37.3333 74.6667Z" fill="#171B22"/>
<path d="M33.3333 70.6667H29.3333C30.3942 70.6667 31.4116 71.0881 32.1618 71.8383C32.9119 72.5884 33.3333 73.6058 33.3333 74.6667V77.3334C33.3333 77.687 33.1929 78.0261 32.9428 78.2762C32.6928 78.5262 32.3536 78.6667 32 78.6667H36C36.3536 78.6667 36.6928 78.5262 36.9428 78.2762C37.1929 78.0261 37.3333 77.687 37.3333 77.3334V74.6667C37.3333 73.6058 36.9119 72.5884 36.1618 71.8383C35.4116 71.0881 34.3942 70.6667 33.3333 70.6667Z" fill="#FFDB59"/>
<path d="M8 25.3333H16C16.7072 25.3333 17.3855 25.6143 17.8856 26.1144C18.3857 26.6145 18.6667 27.2927 18.6667 28C18.6667 28.7072 18.3857 29.3855 17.8856 29.8856C17.3855 30.3857 16.7072 30.6666 16 30.6666H8V25.3333Z" fill="#171B22"/>
<path d="M42.6667 18.6667V20H34.6667C33.961 19.9948 33.2858 19.7122 32.7868 19.2132C32.2879 18.7142 32.0052 18.039 32 17.3334C32.0021 16.6268 32.2837 15.9497 32.7834 15.4501C33.283 14.9504 33.9601 14.6688 34.6667 14.6667H42.2C42.5116 15.9771 42.6683 17.3197 42.6667 18.6667Z" fill="#171B22"/>
<path d="M42.2 14.6667H38.2C38.5116 15.9771 38.6683 17.3197 38.6667 18.6667V20H42.6667V18.6667C42.6683 17.3197 42.5116 15.9771 42.2 14.6667Z" fill="#FFDB59"/>
<path d="M18.6667 17.3334C18.6614 18.039 18.3788 18.7142 17.8798 19.2132C17.3809 19.7122 16.7056 19.9948 16 20H8V18.6667C7.99839 17.3197 8.15502 15.9771 8.46666 14.6667H16C16.7066 14.6688 17.3836 14.9504 17.8833 15.4501C18.3829 15.9497 18.6646 16.6268 18.6667 17.3334Z" fill="#171B22"/>
<path d="M18.6667 38.6667C18.6646 39.3733 18.3829 40.0503 17.8833 40.55C17.3836 41.0496 16.7066 41.3312 16 41.3333H8.46666C8.15502 40.0229 7.99839 38.6803 8 37.3333V36H16C16.7056 36.0052 17.3809 36.2879 17.8798 36.7868C18.3788 37.2858 18.6614 37.961 18.6667 38.6667Z" fill="#171B22"/>
<path d="M42.6667 25.3334V27.9867L40.28 30.3734C40.1843 30.4647 40.0951 30.5627 40.0133 30.6667H34.6667C33.961 30.6615 33.2858 30.3788 32.7868 29.8799C32.2879 29.3809 32.0052 28.7057 32 28C32.0021 27.2934 32.2837 26.6164 32.7834 26.1168C33.283 25.6171 33.9601 25.3355 34.6667 25.3334H42.6667Z" fill="#171B22"/>
<path d="M38.6667 25.3333V27.9866L36.28 30.3733C36.1843 30.4646 36.0951 30.5627 36.0133 30.6666H40.0133C40.0951 30.5627 40.1843 30.4646 40.28 30.3733L42.6667 27.9866V25.3333H38.6667Z" fill="#FFDB59"/>
<path d="M40.9867 41.3333H34.6667C33.9601 41.3312 33.283 41.0496 32.7834 40.55C32.2837 40.0503 32.0021 39.3733 32 38.6667C32.0052 37.961 32.2879 37.2858 32.7868 36.7868C33.2858 36.2879 33.961 36.0052 34.6667 36H38.9333L38.68 38.8C38.6497 39.1211 38.6869 39.445 38.789 39.7509C38.8912 40.0569 39.0562 40.3381 39.2733 40.5766C39.4905 40.8151 39.755 41.0056 40.0501 41.1359C40.3451 41.2662 40.6641 41.3335 40.9867 41.3333Z" fill="#171B22"/>
<path d="M38.68 38.8L38.9333 36H34.9333L34.68 38.8C34.6497 39.1211 34.6869 39.445 34.789 39.7509C34.8912 40.0569 35.0561 40.3381 35.2733 40.5766C35.4905 40.8151 35.755 41.0056 36.0501 41.1359C36.3451 41.2662 36.6641 41.3335 36.9867 41.3333H40.9867C40.6641 41.3335 40.3451 41.2662 40.0501 41.1359C39.755 41.0056 39.4905 40.8151 39.2733 40.5766C39.0561 40.3381 38.8912 40.0569 38.789 39.7509C38.6869 39.445 38.6497 39.1211 38.68 38.8Z" fill="#FFDB59"/>
<path d="M1.33333 37.3333C1.33249 42.5357 3.02264 47.5973 6.14905 51.7555C9.27545 55.9136 13.6687 58.9428 18.6667 60.3867V70.6667H17.3333C16.2725 70.6667 15.255 71.0881 14.5049 71.8382C13.7548 72.5884 13.3333 73.6058 13.3333 74.6667V77.3333C13.3333 77.687 13.4738 78.0261 13.7239 78.2761C13.9739 78.5262 14.313 78.6667 14.6667 78.6667H18.6667C18.313 78.6667 17.9739 78.5262 17.7239 78.2761C17.4738 78.0261 17.3333 77.687 17.3333 77.3333V74.6667C17.3333 73.6058 17.7548 72.5884 18.5049 71.8382C19.255 71.0881 20.2725 70.6667 21.3333 70.6667H22.6667V60.3867C17.6687 58.9428 13.2754 55.9136 10.149 51.7555C7.02264 47.5973 5.33249 42.5357 5.33333 37.3333V31.52C5.33286 30.9782 5.45355 30.4432 5.68656 29.9542C5.91956 29.4651 6.25899 29.0343 6.68 28.6933C6.17401 28.3085 5.56854 28.0764 4.93498 28.0244C4.30142 27.9723 3.6662 28.1026 3.10421 28.3997C2.54222 28.6968 2.07691 29.1484 1.76314 29.7013C1.44938 30.2541 1.30025 30.8852 1.33333 31.52V37.3333Z" fill="#171B22"/>
<path d="M4.86666 47.0786L2.46666 48.2266C0.849383 44.8225 0.00694641 41.1021 -3.8147e-06 37.3333H2.66666C2.6718 40.7043 3.42311 44.0324 4.86666 47.0786Z" fill="#171B22"/>
<path d="M1.948 43.9653C1.59438 43.9671 1.25454 43.8283 1.00324 43.5795C0.751939 43.3307 0.609767 42.9923 0.607999 42.6386C0.606231 42.285 0.745011 41.9452 0.99381 41.6939C1.24261 41.4426 1.58104 41.3004 1.93467 41.2986H1.948C2.30162 41.2986 2.64076 41.4391 2.89081 41.6892C3.14086 41.9392 3.28133 42.2784 3.28133 42.632C3.28133 42.9856 3.14086 43.3247 2.89081 43.5748C2.64076 43.8248 2.30162 43.9653 1.948 43.9653Z" fill="#FF7D61"/>
<path d="M1.33333 38.6667C1.68695 38.6667 2.02609 38.5262 2.27614 38.2761C2.52619 38.0261 2.66667 37.687 2.66667 37.3333V31.52C2.6464 31.0012 2.81684 30.493 3.14579 30.0913C3.47474 29.6897 3.9394 29.4224 4.452 29.34C4.73226 29.3111 5.01547 29.3411 5.28345 29.4281C5.55142 29.5151 5.79822 29.6572 6.008 29.8453C6.21687 30.0326 6.38359 30.2621 6.49714 30.5186C6.61069 30.7751 6.66847 31.0528 6.66667 31.3333V37.3333C6.67233 41.8304 8.30132 46.1743 11.2541 49.5662C14.2069 52.9581 18.2849 55.17 22.7383 55.7952C27.1918 56.4204 31.7212 55.4168 35.4938 52.969C39.2663 50.5212 42.0283 46.7937 43.272 42.472L47.496 42.0853C46.6422 46.0714 44.7292 49.7535 41.9585 52.7437C39.1879 55.7339 35.6621 57.9216 31.7525 59.0762C27.8429 60.2309 23.6943 60.3099 19.7437 59.3049C15.793 58.2998 12.1865 56.2479 9.304 53.3653C7.48282 51.5334 5.98277 49.4082 4.86667 47.0787C4.71236 46.7723 4.44802 46.5357 4.12659 46.416C3.80516 46.2963 3.45039 46.3025 3.13333 46.4333C2.96766 46.5023 2.81796 46.6046 2.69354 46.734C2.56912 46.8633 2.47264 47.0168 2.41011 47.1851C2.34758 47.3533 2.32033 47.5325 2.33006 47.7117C2.33979 47.8909 2.38629 48.0662 2.46667 48.2267C3.71696 50.827 5.39241 53.2005 7.424 55.2493C10.2074 58.0279 13.6003 60.1193 17.3333 61.3573V69.3333C15.9188 69.3333 14.5623 69.8952 13.5621 70.8954C12.5619 71.8956 12 73.2522 12 74.6667V77.3333C12 78.0406 12.281 78.7189 12.781 79.2189C13.2811 79.719 13.9594 80 14.6667 80H36C36.7072 80 37.3855 79.719 37.8856 79.2189C38.3857 78.7189 38.6667 78.0406 38.6667 77.3333V74.6667C38.6667 73.2522 38.1048 71.8956 37.1046 70.8954C36.1044 69.8952 34.7478 69.3333 33.3333 69.3333V61.3507C37.8188 59.8631 41.7969 57.1469 44.8155 53.511C47.8342 49.8751 49.7722 45.4652 50.4093 40.7827C50.4573 40.7373 50.5147 40.7013 50.56 40.6493L77.6773 13.5507C79.1663 12.06 80.002 10.0389 80.0008 7.93195C79.9995 5.82504 79.1614 3.80492 77.6707 2.316C76.18 0.827072 74.1589 -0.0086951 72.052 -0.00744489C69.945 -0.00619467 67.9249 0.831971 66.436 2.32266L44 24.7573V18.6667C44 13.716 42.0333 8.96802 38.5327 5.46734C35.032 1.96666 30.284 -2.71574e-06 25.3333 -2.71574e-06C20.3826 -2.71574e-06 15.6347 1.96666 12.134 5.46734C8.63333 8.96802 6.66667 13.716 6.66667 18.6667V27.14C5.89715 26.766 5.04009 26.6092 4.188 26.6867C3.01883 26.8389 1.94631 27.4153 1.17421 28.3064C0.402116 29.1974 -0.0157525 30.3411 -1.47085e-06 31.52V37.3333C-1.47085e-06 37.687 0.140474 38.0261 0.390523 38.2761C0.640571 38.5262 0.97971 38.6667 1.33333 38.6667ZM36 74.6667V77.3333H14.6667V74.6667C14.6667 73.9594 14.9476 73.2811 15.4477 72.781C15.9478 72.2809 16.6261 72 17.3333 72H33.3333C34.0406 72 34.7189 72.2809 35.219 72.781C35.7191 73.2811 36 73.9594 36 74.6667ZM30.6667 69.3333H20V62.0907C23.5141 62.8614 27.1537 62.8586 30.6667 62.0827V69.3333ZM9.33333 37.3333H16C16.1777 37.3331 16.3536 37.3691 16.5168 37.4393C16.6801 37.5094 16.8272 37.6122 16.9493 37.7413C17.0725 37.8617 17.17 38.0057 17.2359 38.1647C17.3019 38.3238 17.3351 38.4945 17.3333 38.6667C17.3333 39.0203 17.1929 39.3594 16.9428 39.6095C16.6928 39.8595 16.3536 40 16 40H9.57467C9.41977 39.1194 9.33904 38.2274 9.33333 37.3333ZM46.844 35.0333L65.5107 16.3667L68.2987 19.1533L49.6213 37.82L46.844 35.0333ZM62.7267 9.80266L65.5147 7.01466L72.9813 14.4813L70.192 17.268L62.7267 9.80266ZM63.6307 14.4773L44.964 33.144L42.1693 30.36L60.836 11.6933L63.6307 14.4773ZM41.3333 27.424L39.424 29.3333H34.6667C34.489 29.3336 34.3131 29.2975 34.1499 29.2274C33.9866 29.1572 33.8394 29.0544 33.7173 28.9253C33.5942 28.805 33.4967 28.661 33.4307 28.5019C33.3647 28.3429 33.3316 28.1722 33.3333 28C33.3333 27.6464 33.4738 27.3072 33.7239 27.0572C33.9739 26.8071 34.313 26.6667 34.6667 26.6667H41.3333V27.424ZM37.488 40H34.6667C34.313 40 33.9739 39.8595 33.7239 39.6095C33.4738 39.3594 33.3333 39.0203 33.3333 38.6667C33.3329 38.4888 33.3689 38.3126 33.439 38.1491C33.5092 37.9856 33.6121 37.8382 33.7413 37.716C33.8622 37.5936 34.0063 37.4967 34.1652 37.431C34.3242 37.3652 34.4947 37.332 34.6667 37.3333H37.4667L37.3467 38.6773C37.3121 39.1232 37.36 39.5715 37.488 40ZM41.08 40C40.9353 40.0163 40.7887 39.9992 40.6516 39.9499C40.5146 39.9007 40.3906 39.8207 40.2893 39.716C40.1849 39.6125 40.105 39.4869 40.0556 39.3485C40.0062 39.21 39.9886 39.0622 40.004 38.916L40.5587 32.7253C40.5587 32.668 40.5933 32.6187 40.604 32.5627L47.4267 39.3867C47.3747 39.3947 47.3293 39.4227 47.2773 39.4267L41.08 40ZM72.0573 2.67333C73.1006 2.66997 74.1213 2.97669 74.9899 3.55454C75.8586 4.13239 76.5359 4.95531 76.9359 5.91883C77.336 6.88235 77.4407 7.94301 77.2368 8.96616C77.0329 9.9893 76.5295 10.9288 75.7907 11.6653L74.8573 12.5987L67.3907 5.132L68.3093 4.21333C68.802 3.7226 69.3866 3.33395 70.0298 3.06968C70.673 2.80541 71.362 2.67072 72.0573 2.67333ZM41.3333 18.6667H34.6667C34.489 18.6669 34.3131 18.6309 34.1499 18.5607C33.9866 18.4905 33.8394 18.3878 33.7173 18.2587C33.5942 18.1383 33.4967 17.9943 33.4307 17.8353C33.3647 17.6762 33.3316 17.5055 33.3333 17.3333C33.3333 16.9797 33.4738 16.6406 33.7239 16.3905C33.9739 16.1405 34.313 16 34.6667 16H41.092C41.2469 16.8806 41.3276 17.7726 41.3333 18.6667ZM25.3333 2.66666C28.6385 2.67238 31.8609 3.70067 34.5584 5.61043C37.2559 7.52019 39.2965 10.2179 40.4 13.3333H34.6667C33.6058 13.3333 32.5884 13.7548 31.8382 14.5049C31.0881 15.255 30.6667 16.2725 30.6667 17.3333C30.6726 18.3924 31.096 19.4063 31.8448 20.1552C32.5937 20.904 33.6076 21.3274 34.6667 21.3333H41.3333V24H34.6667C33.6058 24 32.5884 24.4214 31.8382 25.1716C31.0881 25.9217 30.6667 26.9391 30.6667 28C30.6726 29.059 31.096 30.073 31.8448 30.8218C32.5937 31.5707 33.6076 31.994 34.6667 32H37.992C37.9539 32.1592 37.9246 32.3203 37.904 32.4827L37.708 34.6667H34.6667C33.6074 34.6719 32.5931 35.095 31.844 35.844C31.095 36.5931 30.6719 37.6074 30.6667 38.6667C30.6667 39.7275 31.0881 40.7449 31.8382 41.4951C32.5884 42.2452 33.6058 42.6667 34.6667 42.6667H40.4C39.303 45.7869 37.2644 48.4896 34.5655 50.4016C31.8667 52.3135 28.6408 53.3404 25.3333 53.3404C22.0259 53.3404 18.8 52.3135 16.1012 50.4016C13.4023 48.4896 11.3636 45.7869 10.2667 42.6667H16C17.0609 42.6667 18.0783 42.2452 18.8284 41.4951C19.5786 40.7449 20 39.7275 20 38.6667C19.9941 37.6076 19.5707 36.5937 18.8219 35.8448C18.073 35.096 17.059 34.6726 16 34.6667H9.33333V32H16C17.0609 32 18.0783 31.5786 18.8284 30.8284C19.5786 30.0783 20 29.0609 20 28C20 26.9391 19.5786 25.9217 18.8284 25.1716C18.0783 24.4214 17.0609 24 16 24H9.33333V21.3333H16C17.0592 21.3281 18.0736 20.905 18.8226 20.156C19.5716 19.4069 19.9947 18.3926 20 17.3333C20 16.2725 19.5786 15.255 18.8284 14.5049C18.0783 13.7548 17.0609 13.3333 16 13.3333H10.2667C11.3702 10.2179 13.4107 7.52019 16.1083 5.61043C18.8058 3.70067 22.0282 2.67238 25.3333 2.66666ZM9.33333 29.3333V26.6667H16C16.3536 26.6667 16.6928 26.8071 16.9428 27.0572C17.1929 27.3072 17.3333 27.6464 17.3333 28C17.3333 28.3536 17.1929 28.6928 16.9428 28.9428C16.6928 29.1929 16.3536 29.3333 16 29.3333H9.33333ZM9.57467 16H16C16.3536 16 16.6928 16.1405 16.9428 16.3905C17.1929 16.6406 17.3333 16.9797 17.3333 17.3333C17.3338 17.5112 17.2978 17.6874 17.2276 17.8509C17.1575 18.0143 17.0546 18.1618 16.9253 18.284C16.8045 18.4064 16.6604 18.5033 16.5014 18.569C16.3425 18.6348 16.172 18.668 16 18.6667H9.33333C9.33904 17.7726 9.41977 16.8806 9.57467 16Z" fill="#FF7D61"/>
</g>
<defs>
<clipPath id="clip0_2009_371">
<rect width="80" height="80" fill="white"/>
</clipPath>
</defs>
</svg>
