<svg width="80" height="80" viewBox="0 0 80 80" fill="none" xmlns="http://www.w3.org/2000/svg">
<g id="Frame 18">
<path id="stamp 1 (Traced)" fill-rule="evenodd" clip-rule="evenodd" d="M5.1844 0.228348C3.6332 0.712884 2.21838 1.97881 1.42573 3.59148L1 4.45748V40.0391V75.6207L1.45967 76.5591C2.04571 77.7558 3.24235 78.9524 4.44086 79.5399L5.37928 80H33.6882H61.9971L62.932 79.5416C64.1812 78.9293 65.2623 77.818 65.873 76.5186C66.3396 75.5258 66.372 75.339 66.4292 73.3138L66.49 71.1632L70.7342 71.1617C74.8512 71.1603 75.002 71.1493 75.7605 70.7952C77.3294 70.0631 78.28 68.4883 78.155 66.8284C78.0387 65.2858 77.1755 63.9923 75.8812 63.4213C75.2774 63.1548 75.2749 63.1501 74.5966 60.8956C73.8561 58.435 73.3602 57.5193 72.4119 56.8621C71.4757 56.2133 70.5116 55.9922 68.6193 55.9922C67.1085 55.9922 66.9239 55.9623 66.9245 55.7185C66.925 55.568 67.1358 54.1427 67.393 52.5513C67.9501 49.1044 67.9499 49.1078 67.5379 48.5842C67.1931 48.1456 66.5317 48.0361 65.9875 48.3272C65.579 48.5458 65.4454 49.0739 64.8699 52.7468L64.3613 55.9922H59.9368H55.5123L55.4353 55.6403C55.393 55.4466 54.8223 51.9101 54.1671 47.781C52.7737 39.0003 52.7344 38.2258 53.5885 36.4013C54.2727 34.9404 55.4313 33.7581 56.8811 33.0415C57.915 32.5305 58.2073 32.4594 59.5028 32.4027C60.675 32.3514 61.1763 32.4043 62.0603 32.6728C64.0508 33.2775 65.6977 34.8459 66.4481 36.8516C66.9766 38.2642 67.0093 39.2959 66.6078 41.9026C66.2687 44.1048 66.2629 44.2632 66.5096 44.6395C66.9976 45.3845 68.1636 45.3684 68.5366 44.6117C68.8605 43.9546 69.348 40.5882 69.3345 39.1007C69.3156 36.9778 68.5771 34.9856 67.1677 33.2553L66.4689 32.3974L66.4226 24.9963L66.3763 17.5953L65.9179 16.5787C65.4977 15.6467 64.8854 14.9848 58.567 8.63015C54.7761 4.81752 51.3578 1.46643 50.9707 1.18334C50.5836 0.900098 49.8596 0.518006 49.3616 0.334233L48.4565 0L27.1524 0.010479C9.91464 0.0189247 5.7218 0.0605279 5.1844 0.228348ZM46.1222 5.09013C46.1222 7.79527 46.1277 7.83984 46.5062 8.21818C46.9923 8.70428 47.5472 8.70663 48.1076 8.22506L48.5464 7.84798L48.596 5.25341C48.6234 3.82639 48.705 2.65885 48.7776 2.65885C49.1151 2.65885 50.8954 4.35238 56.8583 10.3454C60.3977 13.9028 63.4083 17.042 63.5486 17.3216L63.8037 17.8299H56.9884C49.5882 17.8299 49.647 17.8363 48.9512 16.9517C48.6612 16.5831 48.6243 16.3244 48.6223 14.6416C48.6198 12.5599 48.4851 12.0898 47.7965 11.7596C47.2961 11.5197 46.8592 11.6237 46.4297 12.0848C46.1575 12.3768 46.1222 12.6423 46.1222 14.3901C46.1222 15.6964 46.2021 16.6348 46.3584 17.1607C46.6713 18.2145 47.7358 19.3932 48.8156 19.881L49.6413 20.2542L56.7967 20.2992L63.9521 20.3442V25.5179V30.6914L63.6002 30.5783C61.6578 29.9541 61.0128 29.8512 59.4946 29.9238C56.8993 30.0476 54.8673 30.9831 53.073 32.8799C51.4214 34.6262 50.5015 36.9017 50.5015 39.241C50.5015 40.0405 52.1257 50.913 52.9252 55.4656L53.0113 55.9557L50.9352 56.0224C49.0737 56.082 48.777 56.1314 48.0631 56.4997C46.8945 57.1028 46.0953 58.0881 45.6838 59.433C45.5917 59.7341 45.3011 60.691 45.0378 61.5595C44.5724 63.0965 44.5427 63.1462 43.9277 63.4235C43.1874 63.7573 42.2839 64.7044 41.9364 65.5108C41.7998 65.8279 41.6883 66.5347 41.6849 67.1055C41.6796 67.9664 41.7553 68.2678 42.1568 68.9824C42.6952 69.9408 43.6543 70.7585 44.523 70.9996C44.8944 71.1029 48.5198 71.1618 54.5288 71.1623L63.9521 71.1632V73.0094C63.9521 74.6903 63.9152 74.9294 63.54 75.6825C63.0439 76.678 62.2027 77.3326 61.1212 77.5645C60.5822 77.6801 52.0195 77.7322 33.5524 77.7322C3.45568 77.7322 5.6949 77.8213 4.44649 76.5731C4.07847 76.205 3.68027 75.629 3.56172 75.2931C3.23953 74.3804 3.23953 5.69775 3.56172 4.78514C3.87093 3.90944 4.95934 2.88125 5.87507 2.59988C6.52508 2.40016 9.38506 2.36637 26.3763 2.35699L46.1222 2.34604V5.09013ZM24.7574 18.1948C24.2327 18.6462 24.2017 19.4393 24.6895 19.9273C25.0133 20.251 25.1001 20.2542 33.7063 20.2542H42.3962L42.6951 19.8849C43.1376 19.3386 43.0861 18.5506 42.582 18.1541C42.1766 17.8352 42.0323 17.8299 33.6758 17.8299H25.1817L24.7574 18.1948ZM11.0994 25.2802C10.6693 25.8268 10.6899 26.3611 11.1591 26.8301L11.543 27.2141H33.6882H55.8334L56.2172 26.8301C56.6864 26.3611 56.7071 25.8268 56.277 25.2802L55.9529 24.868H33.6882H11.4235L11.0994 25.2802ZM11.4034 31.9509C10.9392 32.1856 10.6912 32.8017 10.8332 33.3671C11.0648 34.2904 10.3005 34.2522 28.5899 34.2522C40.695 34.2522 45.4328 34.2032 45.7132 34.0755C45.9265 33.9783 46.1847 33.6968 46.287 33.4499C46.5259 32.8734 46.2637 32.1772 45.7132 31.9265C45.1228 31.6575 11.9366 31.6811 11.4034 31.9509ZM20.8384 44.1702C16.9908 44.904 13.4493 47.0793 11.1848 50.1C10.5381 50.9624 10.4822 51.3972 10.943 51.9828C11.1767 52.28 11.4117 52.3949 11.7858 52.3949C12.3739 52.3949 12.6306 52.1977 13.6042 50.9975C15.1637 49.0748 17.9109 47.3846 20.4721 46.7718C22.3116 46.3318 24.9442 46.3345 26.7376 46.7783C30.5259 47.7157 33.6259 50.2192 35.3387 53.7243C36.2444 55.578 36.5552 56.7718 36.6822 58.8856C36.852 61.7121 36.1012 64.4177 34.4636 66.8787C32.6961 69.5352 30.0107 71.4258 26.8065 72.2698C25.0561 72.7309 22.1472 72.7313 20.3939 72.2707C15.4119 70.9621 11.7525 67.1001 10.7093 62.0497C10.4117 60.6087 10.3953 59.2469 10.6505 57.1857L10.8415 55.6422L10.4086 55.2698C9.44262 54.4388 8.59773 55.0032 8.26115 56.7044C7.94819 58.286 7.98416 61.2723 8.33451 62.7957C9.67019 68.6051 13.9519 73.0678 19.6901 74.6316C20.8472 74.9469 21.3641 74.9925 23.6784 74.9832C26.1042 74.9734 26.4606 74.9352 27.7449 74.5475C32.2543 73.1858 35.5234 70.4699 37.5207 66.4255C38.7009 64.0355 39.1189 62.227 39.1189 59.5112C39.1189 57.6538 39.057 57.0843 38.7104 55.7576C37.2332 50.1035 33.0282 45.8862 27.3812 44.3955C25.8206 43.9836 22.4295 43.8667 20.8384 44.1702ZM22.1913 48.0142C18.1017 48.515 14.4184 51.3575 12.86 55.2156C12.3692 56.4306 12.0326 58.0176 12.0291 59.1321C12.0259 60.1702 12.4298 60.6843 13.2485 60.6843C13.9367 60.6843 14.3316 60.2343 14.4398 59.327C14.7411 56.7992 15.23 55.442 16.3663 53.9787C18.0413 51.8215 20.8514 50.375 23.3873 50.3643C24.6021 50.3593 25.2426 49.2608 24.5139 48.432C24.08 47.9385 23.5656 47.8459 22.1913 48.0142ZM27.9842 50.8404C27.1077 51.2084 26.5413 51.8813 24.713 54.7256C23.6571 56.3685 22.778 57.7126 22.7595 57.7126C22.7411 57.7126 22.4556 57.358 22.1252 56.9247C20.6228 54.9546 18.2109 54.6931 16.5805 56.3234C15.2966 57.6072 15.1829 59.5608 16.3059 61.0401C16.5818 61.4036 17.6592 62.8271 18.7003 64.2036C20.7824 66.957 21.2828 67.3706 22.71 67.5178C23.6792 67.6179 24.8808 67.1819 25.5183 66.4988C25.9484 66.0382 32.0473 56.595 32.5478 55.6148C33.0069 54.7158 32.8974 53.1425 32.3145 52.2617C31.6222 51.2156 30.7921 50.7635 29.4794 50.7172C28.8696 50.6958 28.1966 50.7513 27.9842 50.8404ZM30.1137 53.3523C30.2134 53.435 30.3402 53.6835 30.3957 53.9047C30.5166 54.3861 30.344 54.6848 26.5241 60.6061C23.6617 65.0431 23.4311 65.2992 22.5906 64.9764C22.061 64.7729 17.9716 59.3215 17.9705 58.8174C17.9688 57.9924 19.0955 57.405 19.7145 57.9081C19.8467 58.0157 20.4341 58.7259 21.0199 59.4865C22.9381 61.9779 22.958 61.9683 26.1078 57.0654C27.4383 54.9943 28.6676 53.24 28.8397 53.1668C29.1817 53.0212 29.8282 53.1153 30.1137 53.3523ZM33.2559 58.5337C32.9049 58.8002 32.6716 59.4825 32.6716 60.2418C32.6716 61.1195 32.2637 62.605 31.735 63.652C30.3544 66.387 27.5034 68.3275 24.4629 68.6017C23.2294 68.7129 22.7411 68.9096 22.5257 69.3826C22.2556 69.9754 22.3075 70.2075 22.8268 70.7267C23.2926 71.1925 23.3317 71.2019 24.3517 71.0986C25.9361 70.9383 27.2549 70.5933 28.4986 70.0137C32.221 68.2785 34.8395 64.4978 35.1225 60.4497C35.2014 59.3236 35.1759 59.1554 34.8679 58.7683C34.4908 58.2944 33.719 58.182 33.2559 58.5337ZM71.1498 59.0513C71.5121 59.4136 71.7557 59.9539 72.1542 61.28L72.6803 63.0303H59.9487C49.8613 63.0303 47.2195 62.9896 47.2287 62.8348C47.2352 62.7274 47.499 61.8654 47.8153 60.9195C48.3154 59.4229 48.4596 59.1537 48.9262 58.844L49.4623 58.4884L60.0669 58.5306L70.6715 58.5728L71.1498 59.0513ZM75.2029 65.9139C75.5953 66.2899 75.6823 66.4979 75.6823 67.0599C75.6823 67.967 75.0942 68.5909 74.1047 68.7335C73.7251 68.7883 67.0802 68.8119 59.3382 68.7861C48.2596 68.749 45.1874 68.6963 44.9116 68.5388C44.5073 68.3078 44.089 67.5744 44.089 67.0968C44.089 66.5372 44.5552 65.8321 45.0766 65.6036C45.4931 65.4211 47.9624 65.3909 60.1492 65.4198L74.7234 65.4545L75.2029 65.9139Z" fill="#FF7D61"/>
</g>
</svg>
